<svg width="168" height="42" viewBox="0 0 168 42" fill="none" xmlns="http://www.w3.org/2000/svg">
<path d="M55.944 31.0363C54.6665 19.2125 50.5015 10.5176 45.5612 10.5176C40.6227 10.5176 36.456 19.2125 35.2126 31.0363H28.9301C26.5772 23.99 20.9667 19.0068 14.4812 19.0068C7.9975 19.0068 2.352 23.99 0 31.0363H18.48C20.1933 21.5163 25.0994 14.6756 30.8446 14.6756C36.5907 14.6756 41.496 21.5496 43.2093 31.0363H55.944ZM68.6446 31.0713V14.6765H76.272L81.8493 25.7443H81.8834L87.36 14.6765H95.088V31.0713H89.5107V20.8295H89.4766L84.4707 31.0713H79.4972L74.256 20.8636H74.2227V31.0713H68.6446ZM96.1966 31.0713L104.194 14.6765H111.048L118.843 31.0713H112.728L111.485 28.2188H103.522L102.312 31.0713H96.1966ZM104.631 24.8501H110.343L107.52 18.3541L104.631 24.8501ZM119.986 31.0713V14.6765H125.866V31.0713H119.986ZM140.985 28.6651L140.045 27.0848C139.373 26.0873 138.398 25.6061 137.289 25.6061H133.963V31.0372H128.049V14.6765H141.557C145.857 14.6765 148.343 16.5665 148.343 19.867C148.343 22.3415 146.63 24.06 143.706 24.6095V24.6445C144.245 24.816 144.749 25.2972 145.118 25.8817L146.227 27.5652C146.529 28.0123 146.933 28.2871 147.605 28.2871C147.974 28.2871 148.511 28.1156 148.781 27.7717L149.721 30.2121C148.847 30.9681 147.066 31.4834 145.622 31.4834C143.169 31.5184 141.926 30.0397 140.985 28.666M133.997 22.2732H139.775C141.455 22.2732 142.43 21.5172 142.43 20.2458C142.43 18.9745 141.455 18.2176 139.775 18.2176H133.963V22.2732H133.997ZM150.83 31.0713V14.6765H167.765V18.3891H156.575V21.1383H166.891V24.3347H156.575V27.3596H167.999V31.0713H150.83Z" fill="white"/>
</svg>
