<svg width="107" height="21" viewBox="0 0 107 21" fill="none" xmlns="http://www.w3.org/2000/svg">
<path d="M20.1735 8.74844C20.1735 8.74844 20.6737 3.07378 20.7192 2.51904C20.7919 1.62783 20.0735 0 18.3456 0H13.2257H10.1429H4.02258C2.28562 0 1.44897 1.17313 1.33985 2.30079C1.27619 2.96465 0.0939659 16.6875 0.0121198 17.4787C-0.115196 18.7519 0.766923 20.1887 2.35838 20.1887H8.37861H10.8886H16.5996C18.4912 20.1887 19.2278 19.1884 19.3824 17.6424C19.4824 16.7239 19.9462 11.1311 19.9462 11.1311H11.3433L10.9704 15.4507H8.78784L9.72453 4.72889H11.898L11.5524 8.73935H20.1554L20.1735 8.74844Z" fill="white"/>
<path d="M33.4596 1.73696C33.1504 2.61908 30.6495 10.4581 30.6495 10.4581L31.759 0H23.1561L21.3555 20.1887H27.8395C29.4673 20.1887 30.0221 19.2611 30.2949 18.5245C30.6223 17.6424 33.0049 11.0401 33.0049 11.0401L32.1228 20.1887H40.7348L42.5081 0C42.5081 0 36.3333 0 35.7513 0C34.2599 0 33.6688 1.10038 33.4505 1.72786" fill="white"/>
<path d="M77.0651 0.00927734L76.2557 9.21242H74.0731L74.8825 0.00927734H66.2705C66.2705 0.00927734 65.4429 9.75806 65.3611 10.6947C65.261 11.8224 65.8885 13.4139 67.7983 13.4139H75.8919L75.71 15.46H64.9427L64.5244 20.198H81.6575C82.8125 20.198 83.9401 19.4432 84.0947 17.8244C84.1948 16.7877 85.6771 0.00927734 85.6771 0.00927734H77.0651Z" fill="white"/>
<path d="M54.1118 15.9964H51.911L52.3475 10.9856H54.5483L54.1118 15.9964ZM52.7204 6.78413L52.9023 4.73798H63.6878L64.097 0H44.7086L42.9443 20.1887H46.1727C46.1727 20.1887 59.0771 20.1887 60.1138 20.1887C61.1505 20.1887 62.3873 19.543 62.5419 17.8515C62.6602 16.5875 63.1876 10.5854 63.2876 9.49415C63.415 8.03911 62.4874 6.78413 60.6777 6.78413H52.7204Z" fill="white"/>
<path d="M95.5908 9.74897L96.0273 4.73816H98.1826L97.7461 9.74897H95.5908ZM99.5285 0.00927734H96.4456H87.8336L86.0693 20.198H94.6723L95.2179 13.9504H98.3008H97.7279H103.584C105.067 13.9504 106.049 13.1956 106.203 11.4677C106.267 10.7948 106.949 3.14671 106.995 2.46466C107.095 0.973243 105.912 0.00927734 104.439 0.00927734H99.5285Z" fill="white"/>
</svg>
