<svg width="168" height="31" viewBox="0 0 168 31" fill="none" xmlns="http://www.w3.org/2000/svg">
<g clip-path="url(#clip0_3375_1800)">
<path d="M34.3279 15.4968H30.1664L17.8916 0V11.3362C16.8288 11.3362 15.8095 11.7745 15.058 12.5548C14.3065 13.335 13.8843 14.3933 13.8843 15.4968H5.70312L17.9286 30.9936V19.5998C17.0131 19.4168 16.1887 18.9057 15.5994 18.1557C15.01 17.4058 14.6932 16.4646 14.7042 15.4968C14.6576 14.9712 14.7171 14.4413 14.8788 13.9409C15.0406 13.4405 15.301 12.9806 15.6436 12.5906C15.9862 12.2007 16.4034 11.8892 16.8685 11.676C17.3336 11.4629 17.8364 11.3528 18.3447 11.3528C18.8531 11.3528 19.3559 11.4629 19.821 11.676C20.2861 11.8892 20.7032 12.2007 21.0458 12.5906C21.3884 12.9806 21.6489 13.4405 21.8107 13.9409C21.9724 14.4413 22.0319 14.9712 21.9853 15.4968H30.1171L20.0247 28.35L22.1579 30.9936L35.8383 15.4968L22.1579 0L34.3279 15.4968Z" fill="white"/>
<path d="M13.6804 0L0 15.4968L13.6804 31L1.45497 15.4968H5.72125L15.8136 2.70122L13.6804 0Z" fill="white"/>
<path d="M85.714 17.8718C86.3533 17.8712 86.9847 17.7248 87.5635 17.4429C87.8383 17.2354 88.0553 16.9562 88.1928 16.6337C88.3303 16.3111 88.3833 15.9565 88.3465 15.6058V13.0455C88.3765 12.7058 88.3309 12.3635 88.2133 12.045C88.0958 11.7264 87.9093 11.4402 87.6683 11.2084C87.0758 10.8305 86.3821 10.66 85.6893 10.7219H76.2012V21.898H79.1666V17.9038H81.1949C81.3491 18.0126 85.4612 21.898 85.4612 21.898H89.8816C89.8816 21.898 85.9298 18.6591 85.042 17.9038L85.714 17.8718ZM79.2098 15.4394V13.0647H84.7214C85.1899 13.0647 85.3379 13.1735 85.3996 13.2247C85.46 13.2752 85.5062 13.3417 85.5333 13.4171C85.5605 13.4926 85.5675 13.5743 85.5537 13.6535V14.8569C85.5537 15.1258 85.5537 15.2346 85.3996 15.2858C85.169 15.3822 84.9195 15.4195 84.6721 15.3946C84.6166 15.4458 79.6845 15.4458 79.2159 15.4458L79.2098 15.4394Z" fill="white"/>
<path d="M49.0497 16.2009H54.8203V13.4485H49.0497V11.0737H58.9139V8.32129H45.665V21.821H59.0865V18.9021H49.0497V16.2009Z" fill="white"/>
<path d="M70.8934 19.28H64.1857V10.6387H61.1894V19.12C61.1548 19.5085 61.1971 19.9003 61.3138 20.2713C61.4304 20.6423 61.6189 20.9846 61.8676 21.2771C62.5239 21.7404 63.3155 21.951 64.1056 21.8724H70.918C72.0648 21.8724 72.7676 21.7124 73.2053 21.2771C73.4463 20.9898 73.6303 20.6558 73.7467 20.2944C73.8631 19.933 73.9096 19.5513 73.8835 19.1712V10.6387H70.918C70.8934 10.6387 70.8934 18.7935 70.8934 19.28Z" fill="white"/>
<path d="M165.762 10.6387C165.762 10.6387 161.187 16.63 160.83 17.1165C160.466 16.63 155.897 10.6387 155.897 10.6387H153.555V21.8148H156.52V15.4138C157.248 16.3868 160.423 20.5346 160.423 20.5346H161.15C161.15 20.5346 164.325 16.374 165.053 15.4138V21.8148H168.018V10.6387H165.762Z" fill="white"/>
<path d="M142.513 17.2761H147.501V14.8565H142.507V13.0642H151.04V10.6318H139.486V21.808H151.138V19.2476H142.507V17.2505L142.513 17.2761Z" fill="white"/>
<path d="M101.632 10.6387H93.6173C92.5261 10.6387 91.8479 10.7987 91.4349 11.234C90.8184 11.8293 90.8184 12.9622 90.8184 13.4487V19.0624C90.8184 19.4912 90.8184 20.6306 91.3917 21.2195C91.8027 21.6462 92.5836 21.8596 93.7345 21.8596H101.632C102.464 21.8596 103.401 21.8084 103.975 21.2195C104.387 20.6447 104.59 19.9374 104.548 19.2224V13.4615C104.617 12.6939 104.413 11.9266 103.975 11.3044C103.297 10.6387 102.101 10.6387 101.632 10.6387ZM101.527 19.28H93.7283V13.2311H101.527V19.28Z" fill="white"/>
<path d="M134.085 14.7417H126.687V10.6899H123.722V21.898H126.687V17.4173H134.085V21.898H137.051V10.6387H134.085V14.7417Z" fill="white"/>
<path d="M117.81 8.31494H110.319C109.592 8.31494 108.47 8.31495 107.718 9.01905C106.965 9.72316 106.935 11.0738 106.935 11.6627V18.5181C106.935 19.0558 106.935 20.4384 107.718 21.1617C108.5 21.885 109.567 21.8658 110.319 21.8658H117.81C118.537 21.8658 119.659 21.8658 120.412 21.1617C121.164 20.4576 121.195 19.107 121.195 18.5181V16.7386H117.761V18.9534H110.424V11.2338H117.761V13.2309H121.195V11.6563C121.195 11.1186 121.195 9.73596 120.412 9.01265C119.758 8.31494 118.525 8.31494 117.81 8.31494Z" fill="white"/>
</g>
<defs>
<clipPath id="clip0_3375_1800">
<rect width="168" height="31" fill="white"/>
</clipPath>
</defs>
</svg>
