<svg width="202" height="13" viewBox="0 0 202 13" fill="none" xmlns="http://www.w3.org/2000/svg">
<g clip-path="url(#clip0_3375_1764)">
<path d="M178.223 0C172.939 0 169.606 2.88788 169.606 6.49886C169.606 10.1098 172.939 12.9977 178.223 12.9977C183.506 12.9977 186.897 10.0848 186.897 6.49886C186.897 2.91289 183.535 0 178.223 0ZM178.223 10.435C175.207 10.435 173.311 8.66591 173.311 6.50114C173.311 4.33637 175.207 2.56726 178.223 2.56726C181.238 2.56726 183.163 4.33637 183.163 6.50114C183.163 8.66591 181.267 10.435 178.223 10.435Z" fill="white"/>
<path d="M187.385 0.25V3.03783H192.841V12.752H196.573V3.03783H202V0.25H187.385Z" fill="white"/>
<path d="M164.64 6.25101C166.564 5.82806 167.771 4.73203 167.771 3.38814C167.771 1.44621 165.416 0 160.935 0C156.168 0 153.871 1.66906 153.64 3.98391H157.631C157.833 2.93791 159.039 2.4149 160.932 2.4149C162.511 2.4149 163.688 2.96292 163.688 3.80882C163.688 4.65471 162.424 5.22774 160.932 5.22774H158.722V7.51985H160.932C163.001 7.51985 164.32 8.06787 164.32 8.96379C164.32 10.0348 162.799 10.5828 160.932 10.5828C158.892 10.5828 157.458 9.98478 157.256 9.06385H153.294C153.695 11.5788 156.338 12.9977 160.932 12.9977C165.526 12.9977 168.429 11.5538 168.429 9.16162C168.429 7.66766 167.021 6.54662 164.637 6.24873" fill="white"/>
<path d="M141.261 0.248047L134.627 12.7501H138.676L139.882 10.3602H147.52L148.813 12.7501H153.092L146.172 0.248047H141.261ZM141.117 7.94299L143.644 2.98812L146.259 7.94299H141.119H141.117Z" fill="white"/>
<path d="M58.9007 4.28425H55.3398V0.248047H51.6348V12.7523H58.9295C62.4326 12.7523 66.4812 12.4544 66.4812 8.51829C66.4812 4.58214 62.4326 4.28425 58.9007 4.28425ZM58.9295 10.1874H55.3398V6.84924H58.9295C61.6565 6.84924 62.7499 6.92428 62.7499 8.51829C62.7499 10.1123 61.6591 10.1874 58.9295 10.1874Z" fill="white"/>
<path d="M23.7777 0C18.4942 0 15.1641 2.88788 15.1641 6.50114C15.1641 10.1144 18.4968 13 23.7803 13C29.0639 13 32.4517 10.0871 32.4517 6.50114C32.4517 2.91517 29.0901 0 23.7777 0ZM23.7777 10.435C20.7623 10.435 18.8665 8.66591 18.8665 6.50114C18.8665 4.33637 20.7623 2.56726 23.7777 2.56726C26.7931 2.56726 28.7178 4.33637 28.7178 6.50114C28.7178 8.66591 26.822 10.435 23.7777 10.435Z" fill="white"/>
<path d="M35.1211 7.94527C35.1211 8.91623 34.6622 9.96223 33.0811 9.96223V12.7523C38.5088 12.7523 38.7107 10.9582 38.7107 7.94527V3.03815H45.3447V12.7523H49.0497V0.248047H35.1211V7.94527Z" fill="white"/>
<path d="M67.7455 4.20922C67.7455 6.65823 69.421 7.59053 71.5213 7.93844L67.457 12.7501H71.5921L75.4833 8.1431H79.2015V12.7501H82.9065V0.248047H74.8645C71.5344 0.248047 67.7428 0.498178 67.7428 4.20922M79.2015 5.82825H74.8645C72.5964 5.82825 71.4479 5.60313 71.4479 4.20922C71.4479 2.74026 72.5964 2.6152 74.8645 2.6152H79.2015V5.82825Z" fill="white"/>
<path d="M0 3.03815H5.45662V12.7501H9.16167V3.03815H14.6471V0.248047H0V3.03815Z" fill="white"/>
<path d="M100.828 3.03815H106.285V12.7501H110.019V3.03815H115.446V0.248047H100.828V3.03815Z" fill="white"/>
<path d="M121.189 8.89122V0.248047H117.484V12.7501H121.562L129.231 4.23423V12.7501H132.934V0.248047H128.799L121.189 8.89122Z" fill="white"/>
<path d="M84.917 3.03815H90.3448V12.7501H94.0498V3.03815H99.5353V0.248047H84.917V3.03815Z" fill="white"/>
</g>
<defs>
<clipPath id="clip0_3375_1764">
<rect width="202" height="13" fill="white"/>
</clipPath>
</defs>
</svg>
