<svg width="147" height="30" viewBox="0 0 147 30" fill="none" xmlns="http://www.w3.org/2000/svg">
<g clip-path="url(#clip0_3375_1741)">
<path d="M44.6719 7.20358V22.7122H48.2789V10.3166H56.8887V22.7122H60.5247V7.20358H44.6719ZM66.8362 14.9719C66.8362 11.7747 69.1922 9.83927 72.2171 9.83927C75.2428 9.83927 77.5982 11.7747 77.5982 14.9719C77.5982 18.1689 75.2428 20.104 72.2171 20.104C69.1922 20.104 66.8362 18.1689 66.8362 14.9719ZM81.2337 14.9719C81.2337 10.0919 77.1034 6.83873 72.2171 6.83873C67.3309 6.83873 63.2007 10.0919 63.2007 14.9719C63.2007 19.8518 67.3309 23.105 72.2171 23.105C77.1034 23.105 81.2337 19.8518 81.2337 14.9719ZM87.8368 7.20358L85.6843 18.3092C85.51 19.1504 84.9568 19.515 84.1136 19.515H82.3687V22.7122H84.2878C86.9351 22.7122 88.7092 21.5062 89.2326 18.758L90.862 10.3441H97.0279V22.7122H100.664V7.20358H87.8368ZM104.154 7.20358V22.7122H107.733V16.1498H110.176C110.728 20.6089 114.421 23.105 118.902 23.105C123.759 23.105 127.686 20.1601 127.686 14.9719C127.686 9.78371 123.759 6.83873 118.902 6.83873C114.685 6.83873 111.165 9.05453 110.321 13.0084H107.733V7.20358H104.154ZM113.724 14.9719C113.724 11.7747 115.499 9.83927 118.902 9.83927C122.305 9.83927 124.079 11.7747 124.079 14.9719C124.079 18.1689 122.305 20.104 118.902 20.104C115.499 20.104 113.724 18.1689 113.724 14.9719ZM146.999 10.9896C145.342 8.26892 142.608 6.83873 138.856 6.83873C133.794 6.83873 129.867 9.95213 129.867 14.9719C129.867 19.992 133.707 23.105 138.856 23.105C142.608 23.105 145.342 21.6748 146.999 18.9545L144.178 17.3838C142.956 19.0666 141.357 19.992 138.797 19.992C135.656 19.992 133.474 17.9728 133.474 14.9719C133.474 11.9149 135.569 9.95214 138.797 9.95214C141.357 9.95214 142.956 10.8775 144.178 12.5599L146.999 10.9896Z" fill="white"/>
<path fill-rule="evenodd" clip-rule="evenodd" d="M18.7146 0.455038L16.8134 11.4687C16.7685 11.7308 16.4758 11.8487 16.2203 11.7529L10.5061 9.62436C9.79874 9.36084 9.5622 8.84855 9.65947 8.28251L10.8764 1.23432C10.9744 0.669479 11.3697 0.258419 12.1284 0.229979L18.249 0.000358582C18.5232 -0.00936127 18.7602 0.193378 18.7146 0.455038ZM2.31059 8.38452L12.5987 13.5097C12.8429 13.6315 12.87 13.9363 12.6972 14.1415L8.84152 18.7314C8.36428 19.2994 7.78654 19.3594 7.25803 19.0962L0.673831 15.8165C0.145732 15.553 -0.137681 15.0641 0.0666073 14.3595L1.71912 8.67222C1.79299 8.41686 2.06634 8.26272 2.31059 8.38452ZM5.06291 25.833L13.3089 17.9941C13.5051 17.8077 13.8135 17.8778 13.963 18.1001L17.2914 23.0575C17.7036 23.6717 17.5833 24.2203 17.1601 24.6231L11.8829 29.6393C11.4593 30.0418 10.8892 30.1501 10.2578 29.7437L5.16343 26.4644C4.93493 26.3176 4.86748 26.0194 5.06291 25.833ZM23.2215 28.6766L17.9769 18.7217C17.8522 18.485 18.0153 18.2235 18.2798 18.1537L24.1893 16.6002C24.9213 16.4079 25.4267 16.6846 25.696 17.1962L29.052 23.5662C29.3212 24.0778 29.2554 24.6344 28.6627 25.0914L23.8756 28.7762C23.6608 28.9413 23.3454 28.9129 23.2215 28.6766ZM31.5725 13.0449L20.1204 14.7029C19.8483 14.7418 19.642 14.5102 19.6569 14.2462L19.9924 8.3487C20.034 7.6188 20.4659 7.24362 21.0543 7.15836L28.3821 6.09792C28.9704 6.0123 29.4976 6.24858 29.7601 6.93486L31.8769 12.4774C31.9714 12.7258 31.8446 13.0056 31.5725 13.0449Z" fill="white"/>
</g>
<defs>
<clipPath id="clip0_3375_1741">
<rect width="147" height="30" fill="white"/>
</clipPath>
</defs>
</svg>
