<svg width="129" height="68" viewBox="0 0 129 68" fill="none" xmlns="http://www.w3.org/2000/svg">
<path d="M26.4035 18.5296C23.8455 17.1103 20.8994 16.3013 17.7617 16.3013C7.95189 16.3013 0 24.21 0 33.9628C0 43.7156 7.95189 51.6226 17.7617 51.6226C27.5714 51.6226 35.5216 43.7156 35.5216 33.9628C35.5216 30.8226 34.6978 27.8745 33.2552 25.3208L31.3245 26.4384C32.6416 28.7611 33.3959 31.4412 33.3959 34.2999C33.3959 43.1425 26.1882 50.3096 17.2938 50.3096C8.39941 50.3096 1.19168 43.1408 1.19168 34.2999C1.19168 25.459 8.39941 18.2869 17.2955 18.2869C20.2366 18.2869 22.9878 19.0724 25.361 20.4377L24.154 22.6492L30.4498 22.4857L27.1595 17.1474L26.4035 18.5313" fill="white"/>
<path d="M87.9793 37.1994V26.4521H85.2959V41.4808H87.7776L95.0175 30.7318V41.4808H97.7009V26.4521H95.2192L87.9793 37.1994Z" fill="white"/>
<path d="M53.0141 32.559H46.8777V26.4521H44.4893V41.4808H46.8777V34.8683H53.0141V41.4808H55.4042V26.4521H53.0141V32.559Z" fill="white"/>
<path d="M72.3701 26.4521V41.4808H75.0925V28.758H80.4983V41.4808H83.2207V26.4521H72.3701Z" fill="white"/>
<path d="M107.845 28.758L108.228 26.4521H99.8945V41.4808H102.607V28.758H107.845Z" fill="white"/>
<path d="M128.77 36.1777C128.705 35.8389 128.595 35.5034 128.443 35.1781C128.288 34.8528 128.085 34.541 127.837 34.251C127.605 33.9813 127.317 33.7437 127.005 33.5583C127.549 33.1369 127.932 32.6582 128.146 32.139C128.368 31.5946 128.482 31.0198 128.482 30.4281C128.482 29.9343 128.397 29.4303 128.234 28.9297C128.068 28.424 127.797 27.9605 127.432 27.5525C127.066 27.1446 126.595 26.8075 126.027 26.5513C125.459 26.2968 124.767 26.167 123.972 26.167C123.177 26.167 122.467 26.2884 121.889 26.5294C121.311 26.7704 120.825 27.0924 120.447 27.4868C120.069 27.8812 119.785 28.3363 119.606 28.8353C119.428 29.3308 119.338 29.8449 119.338 30.3691V31.099H121.803V30.654C121.815 30.3118 121.852 29.9933 121.918 29.7084C121.979 29.4421 122.084 29.2128 122.238 29.0241C122.386 28.8403 122.599 28.6987 122.869 28.5993C123.152 28.4948 123.523 28.4425 123.976 28.4425C124.311 28.4425 124.601 28.4998 124.835 28.6111C125.074 28.7257 125.276 28.874 125.435 29.051C125.593 29.2263 125.708 29.4353 125.779 29.673C125.852 29.9174 125.891 30.1719 125.891 30.4298C125.891 30.7248 125.852 31.0114 125.771 31.2777C125.693 31.5356 125.571 31.7614 125.407 31.9519C125.244 32.1407 125.023 32.2924 124.754 32.4053C124.481 32.5199 124.139 32.5789 123.739 32.5789H122.13V34.8528H123.739C124.188 34.8528 124.578 34.9152 124.898 35.0382C125.212 35.1596 125.474 35.3298 125.679 35.5456C125.885 35.7613 126.037 36.0142 126.13 36.2957C126.227 36.5873 126.276 36.9025 126.276 37.2362C126.276 37.8801 126.078 38.4026 125.668 38.8392C125.269 39.2656 124.637 39.4814 123.791 39.4814C123.611 39.4814 123.42 39.4561 123.223 39.4072C123.023 39.3584 122.827 39.2892 122.635 39.2016C122.443 39.1123 122.264 39.0145 122.101 38.9083C121.945 38.8055 121.808 38.6925 121.701 38.5746C121.433 38.2728 121.269 37.9711 121.214 37.6761C121.155 37.3593 121.125 36.9918 121.125 36.5805V36.1861L118.658 35.9265V36.4406C118.658 37.0491 118.728 37.6509 118.865 38.2307C119.006 38.8274 119.323 39.4123 119.808 39.9601C120.024 40.2079 120.286 40.4422 120.586 40.6546C120.881 40.8669 121.208 41.0557 121.552 41.2175C121.898 41.381 122.276 41.5108 122.672 41.6086C123.071 41.703 123.477 41.7519 123.884 41.7519C124.74 41.7519 125.488 41.612 126.112 41.3389C126.732 41.0658 127.253 40.7068 127.661 40.2719C128.07 39.8371 128.376 39.3381 128.573 38.7853C128.77 38.2391 128.868 37.6879 128.868 37.1519C128.868 36.8384 128.836 36.5097 128.773 36.1726V36.176L128.77 36.1777Z" fill="white"/>
<path d="M111.118 26.4521L105.371 41.4808H107.895L109.658 36.8674H114.667L116.43 41.4808H118.954L113.208 26.4521H111.118ZM110.545 34.5531L112.165 30.3189L113.786 34.5531H110.546H110.545Z" fill="white"/>
<path d="M60.2693 37.1994V26.4521H57.5859V41.4808H60.0693L67.3109 30.7318V41.4808H69.9943V26.4521H67.5127L60.2693 37.1994Z" fill="white"/>
<path d="M17.2357 34.9219C17.2951 34.7618 17.3544 34.6033 17.4188 34.4449C17.4578 34.3404 17.5019 34.2359 17.5426 34.1331C17.5426 34.1331 17.5358 34.1162 17.5307 34.1078C17.5002 34.0353 17.468 33.9628 17.4375 33.887C17.4341 33.8769 17.429 33.8701 17.4256 33.86C17.3917 33.7841 17.3595 33.7049 17.3239 33.624C17.3137 33.6021 17.3052 33.5802 17.2951 33.5583C17.2612 33.4807 17.2273 33.4015 17.19 33.3206C17.1781 33.2953 17.1679 33.27 17.1561 33.2464C17.1171 33.1588 17.0764 33.0694 17.034 32.9767C17.034 32.9767 17.034 32.9734 17.034 32.9717C17.0154 33.0256 16.995 33.0796 16.9764 33.1335C16.9594 33.1858 16.9391 33.238 16.9222 33.292C16.89 33.3847 16.8594 33.4807 16.8306 33.5734C16.8154 33.6223 16.7984 33.6712 16.7832 33.7218C16.7493 33.828 16.7187 33.9342 16.6865 34.0404C16.6747 34.0774 16.6645 34.1128 16.6526 34.1499C16.6136 34.2864 16.5764 34.4213 16.5391 34.5561C16.5865 34.6472 16.6323 34.7365 16.6798 34.8225C16.6916 34.8427 16.7001 34.8629 16.712 34.8848C16.7493 34.9556 16.7849 35.0247 16.8205 35.0955C16.8357 35.1259 16.851 35.1545 16.8645 35.1849C16.8967 35.2472 16.9272 35.3079 16.9577 35.3703C16.9713 35.3972 16.9849 35.4242 16.9967 35.4512C17.0086 35.4731 17.0188 35.495 17.0289 35.5152C17.034 35.5018 17.0391 35.4883 17.0425 35.4748C17.0967 35.3147 17.151 35.1579 17.2069 35.0045C17.2171 34.9775 17.2256 34.9523 17.2357 34.9253V34.9219Z" fill="white"/>
<path d="M15.8951 31.3115C15.8663 31.4193 15.8375 31.5255 15.8103 31.63C15.7951 31.6924 15.7764 31.7531 15.7629 31.8154C15.7307 31.9419 15.7019 32.0666 15.673 32.1913C15.6629 32.2301 15.6544 32.2689 15.6459 32.3059C15.6103 32.4627 15.5781 32.6195 15.5459 32.7745C15.7086 33.051 15.8663 33.3291 16.0188 33.6055C16.0646 33.6898 16.1087 33.7707 16.1561 33.855C16.246 34.0202 16.3392 34.1854 16.4257 34.3489C16.4392 34.3 16.4545 34.2511 16.4664 34.2039C16.4816 34.1449 16.5003 34.0876 16.5172 34.0303C16.5443 33.941 16.5715 33.8516 16.5986 33.764C16.6138 33.71 16.6325 33.6561 16.6477 33.6022C16.6816 33.4977 16.7155 33.3915 16.7511 33.287C16.7647 33.2482 16.7749 33.2111 16.7901 33.1723C16.8359 33.0358 16.8834 32.901 16.9325 32.7661C16.8596 32.611 16.7867 32.4543 16.7105 32.2958C16.6969 32.2672 16.6816 32.2385 16.6698 32.2099C16.6054 32.075 16.5376 31.9402 16.4714 31.8036L16.385 31.6334C16.3307 31.5238 16.2765 31.4176 16.2206 31.3081C16.185 31.239 16.1494 31.1682 16.1121 31.0991C16.0782 31.0333 16.0443 30.9676 16.0104 30.9019C15.99 30.9693 15.9714 31.0401 15.951 31.1058C15.9324 31.1749 15.912 31.2457 15.8917 31.3148V31.3115H15.8951Z" fill="white"/>
<path d="M16.2312 38.9641C16.238 38.9102 16.2448 38.8562 16.2533 38.8006C16.2685 38.6877 16.2872 38.5747 16.3041 38.4601C16.3109 38.4197 16.3177 38.3792 16.3228 38.3388C16.3482 38.1837 16.377 38.0269 16.4075 37.8685C16.4143 37.8348 16.4211 37.8044 16.4279 37.7707C16.4533 37.6443 16.4787 37.5179 16.5075 37.3898C16.5211 37.3358 16.533 37.2802 16.5465 37.2263C16.572 37.1167 16.5974 37.0071 16.6262 36.8976C16.6398 36.8386 16.6567 36.7813 16.6703 36.7223C16.7008 36.6093 16.7313 36.4964 16.7618 36.3818C16.7771 36.3279 16.7923 36.2739 16.8076 36.22C16.8483 36.0767 16.894 35.9317 16.9398 35.7868C16.9466 35.7666 16.9534 35.7463 16.9585 35.7227C16.95 35.7059 16.9415 35.6873 16.933 35.6705C16.8771 35.5559 16.8178 35.4412 16.7601 35.3233C16.7449 35.2912 16.7279 35.2609 16.7127 35.2305C16.6465 35.0974 16.5753 34.9625 16.5025 34.8209C16.494 34.8075 16.4889 34.7923 16.4804 34.7788C16.4703 34.8159 16.4618 34.8513 16.4533 34.8884C16.4194 35.0198 16.3889 35.1496 16.3601 35.2794C16.3465 35.3401 16.3312 35.4008 16.3194 35.4615C16.2838 35.6182 16.2533 35.7733 16.2245 35.9284C16.2177 35.957 16.2109 35.9874 16.2075 36.016C16.1719 36.1981 16.1431 36.3801 16.1143 36.5588C16.1058 36.6093 16.1007 36.6599 16.0922 36.7088C16.0736 36.8403 16.0532 36.9701 16.0363 37.0982C16.0278 37.1588 16.021 37.2162 16.0143 37.2768C15.999 37.4016 15.9854 37.5246 15.9736 37.6477C15.9685 37.6999 15.9617 37.7522 15.9583 37.8044C15.9431 37.9764 15.9278 38.1483 15.9176 38.3152C15.9058 38.4837 15.899 38.6523 15.8905 38.8191C15.8905 38.8697 15.8871 38.9186 15.8854 38.9675C15.882 39.0838 15.8786 39.2018 15.877 39.3181C15.877 39.372 15.877 39.426 15.877 39.4799C15.877 39.5979 15.877 39.7159 15.877 39.8305V39.9603C15.8803 40.117 15.8854 40.2738 15.8905 40.4272C15.8905 40.4474 15.8905 40.466 15.8939 40.4879C15.9007 40.621 15.9075 40.7542 15.9176 40.8823C15.921 40.9295 15.9244 40.975 15.9295 41.0222C15.938 41.1267 15.9465 41.2312 15.9566 41.334C15.9617 41.3812 15.9668 41.4284 15.9702 41.4739C15.9821 41.5869 15.9939 41.6947 16.0075 41.8043C16.0109 41.8363 16.016 41.8684 16.0193 41.9004C16.0363 42.0403 16.0566 42.1785 16.0753 42.315C16.0804 42.342 16.0838 42.369 16.0888 42.3976C16.1041 42.5055 16.1227 42.6134 16.1397 42.7162C16.1465 42.7584 16.1533 42.8005 16.1617 42.8409C16.177 42.932 16.1956 43.0247 16.2126 43.114C16.2177 43.1342 16.2211 43.1561 16.2262 43.1781C16.2228 43.1595 16.2211 43.1393 16.2194 43.1174C16.2109 43.05 16.2041 42.9792 16.1956 42.9101C16.1906 42.8629 16.1838 42.8173 16.1804 42.7701C16.1702 42.6791 16.1634 42.5864 16.155 42.4937C16.155 42.4667 16.1499 42.4398 16.1465 42.4111C16.1363 42.2931 16.1295 42.1701 16.1227 42.047C16.1227 42.0049 16.1194 41.9594 16.116 41.9172C16.1126 41.833 16.1075 41.7487 16.1058 41.6627C16.1058 41.6122 16.1024 41.5616 16.1024 41.511C16.1024 41.4284 16.099 41.3458 16.099 41.2616V41.1082C16.099 41.0171 16.099 40.9244 16.1024 40.8334C16.1024 40.7896 16.1024 40.7441 16.1058 40.7003C16.1092 40.562 16.1143 40.4255 16.1211 40.2839C16.1211 40.2671 16.1211 40.2502 16.1244 40.2333C16.1312 40.1086 16.138 39.9839 16.1499 39.8558C16.1533 39.8086 16.1583 39.7597 16.1634 39.7108C16.1719 39.6131 16.1804 39.5153 16.1906 39.4158C16.1973 39.3602 16.2024 39.3046 16.2075 39.2507C16.2194 39.1529 16.2295 39.0551 16.2431 38.9574L16.2363 38.9658L16.2312 38.9641Z" fill="white"/>
<path d="M17.1094 32.7561C17.2111 32.977 17.3026 33.1809 17.3891 33.3747C17.3891 33.3781 17.3925 33.3815 17.3942 33.3849C17.4348 33.4759 17.4755 33.5686 17.5128 33.6546C17.5162 33.663 17.5196 33.668 17.523 33.6765C17.5569 33.754 17.5874 33.8299 17.6196 33.904C17.623 33.9124 17.6264 33.9192 17.6298 33.9276C17.6383 33.9091 17.645 33.8905 17.6535 33.872C17.7281 33.695 17.801 33.5197 17.8773 33.3478C17.8891 33.3208 17.901 33.2938 17.9129 33.2669C17.9841 33.1034 18.0553 32.9432 18.1282 32.7848C18.1366 32.7696 18.1417 32.7511 18.1502 32.7359C18.1468 32.7275 18.1434 32.7207 18.14 32.7106C18.0722 32.5286 17.9993 32.3415 17.9213 32.1544C17.9129 32.1342 17.9061 32.1139 17.8959 32.092C17.8196 31.9049 17.7366 31.7178 17.6535 31.5274C17.645 31.5105 17.6383 31.492 17.6298 31.4751C17.6213 31.4936 17.6145 31.5122 17.6061 31.5307C17.523 31.7212 17.4416 31.9083 17.3653 32.0971C17.3552 32.1224 17.3467 32.146 17.3365 32.1712C17.2619 32.3583 17.1907 32.5421 17.1229 32.7241C17.1195 32.7359 17.1145 32.746 17.1094 32.7561Z" fill="white"/>
<path d="M18.5801 34.0051C18.5462 33.8939 18.5123 33.786 18.475 33.6747C18.4614 33.6309 18.4445 33.5854 18.4309 33.5399C18.3987 33.4455 18.3665 33.3511 18.336 33.2567C18.319 33.2078 18.3004 33.1573 18.2834 33.1084C18.2648 33.0544 18.2444 33.0022 18.2258 32.9482C18.219 32.9617 18.2122 32.9786 18.2055 32.9921C18.1309 33.1573 18.0563 33.3275 17.9817 33.4994C17.9681 33.5281 17.9563 33.5584 17.9444 33.5871C17.8698 33.759 17.7969 33.9343 17.724 34.1113C17.7206 34.1197 17.7173 34.1248 17.7139 34.1332C17.7783 34.2832 17.8359 34.4332 17.8969 34.5833C17.9275 34.6608 17.9597 34.74 17.9885 34.8209C17.997 34.8411 18.0037 34.8614 18.0105 34.8833C18.0326 34.944 18.0546 35.003 18.0766 35.0653C18.0885 35.094 18.097 35.1243 18.1088 35.153C18.1292 35.2086 18.1478 35.2659 18.1699 35.3215C18.1817 35.3536 18.1919 35.3856 18.2038 35.4176C18.2105 35.4378 18.2173 35.4564 18.2241 35.4783C18.2326 35.4614 18.2411 35.4429 18.2495 35.4277C18.2665 35.389 18.2868 35.3519 18.3055 35.3131C18.3326 35.2592 18.3597 35.2035 18.3868 35.1479L18.4394 35.0434C18.4767 34.9726 18.5123 34.8985 18.5496 34.8243C18.5597 34.8058 18.5682 34.7855 18.5784 34.767C18.6242 34.676 18.6716 34.5816 18.7208 34.4872C18.6835 34.3557 18.6462 34.2225 18.6055 34.0911C18.597 34.0624 18.5886 34.0338 18.5784 34.0051H18.5818H18.5801Z" fill="white"/>
<path d="M19.4428 39.114C19.4361 38.9269 19.4293 38.7381 19.4157 38.5459C19.4157 38.5224 19.4123 38.4988 19.4106 38.4768C19.3988 38.31 19.3869 38.1414 19.3716 37.9712C19.3649 37.9071 19.3581 37.8447 19.3513 37.7807C19.3377 37.6475 19.3242 37.5144 19.3072 37.3812C19.2971 37.3054 19.2869 37.2295 19.2767 37.1537C19.2598 37.0289 19.2411 36.9059 19.2225 36.7795C19.2089 36.6969 19.1954 36.6143 19.1818 36.5317C19.1615 36.4103 19.1394 36.2873 19.1174 36.1625C19.1021 36.0766 19.0835 35.9906 19.0665 35.903C19.0411 35.7799 19.0157 35.6569 18.9869 35.5338C18.9682 35.4445 18.9479 35.3568 18.9258 35.2675C18.8953 35.1428 18.8631 35.0163 18.8326 34.8882C18.819 34.8309 18.8021 34.7736 18.7885 34.7163C18.7767 34.7365 18.7682 34.7568 18.7563 34.7787C18.7343 34.8225 18.7122 34.868 18.6902 34.9102C18.6631 34.9624 18.6377 35.0147 18.6105 35.0669C18.5902 35.1057 18.5715 35.1478 18.5495 35.1849C18.5156 35.254 18.4834 35.3214 18.4495 35.3889C18.4393 35.4074 18.4308 35.4276 18.4207 35.4479C18.3817 35.5304 18.341 35.613 18.3037 35.6923C18.3308 35.7732 18.3529 35.8524 18.3783 35.9316C18.4156 36.0462 18.4512 36.1609 18.4851 36.2738C18.5088 36.3564 18.5309 36.439 18.5529 36.5199C18.5851 36.6328 18.6173 36.7457 18.6461 36.857C18.6665 36.9379 18.6851 37.0188 18.7055 37.098C18.7326 37.2093 18.7614 37.3188 18.7868 37.4284C18.8038 37.5076 18.8207 37.5869 18.8377 37.6661C18.8597 37.774 18.8851 37.8818 18.9055 37.988C18.9207 38.0672 18.9343 38.1448 18.9462 38.2223C18.9648 38.3268 18.9852 38.433 19.0021 38.5375C19.0157 38.6151 19.0241 38.6892 19.036 38.7651C19.0513 38.8679 19.0682 38.9707 19.0801 39.0718C19.0903 39.1477 19.097 39.2202 19.1055 39.2943C19.1174 39.3938 19.1292 39.4949 19.1394 39.5927C19.1479 39.6669 19.153 39.7377 19.1581 39.8118C19.1665 39.9079 19.175 40.0057 19.1818 40.1034C19.1869 40.1759 19.1903 40.2467 19.1937 40.3192C19.1987 40.4119 19.2055 40.508 19.2072 40.599C19.2106 40.6715 19.2106 40.7406 19.2123 40.8147C19.2123 40.9041 19.2174 40.9934 19.2191 41.0811V41.2934C19.2191 41.3794 19.2191 41.4637 19.2191 41.548C19.2191 41.6171 19.214 41.6862 19.2123 41.7553C19.2089 41.8379 19.2072 41.9205 19.2021 42.0014C19.1987 42.0688 19.1937 42.1362 19.1886 42.2037C19.1835 42.2829 19.1784 42.3621 19.1733 42.4413C19.1682 42.5088 19.1598 42.5745 19.1564 42.6402C19.1496 42.7144 19.1428 42.7902 19.136 42.8644C19.1292 42.9301 19.1208 42.9942 19.114 43.0583C19.1055 43.129 19.0987 43.2015 19.0886 43.2723C19.0801 43.3364 19.0716 43.3971 19.0614 43.4611C19.0513 43.5285 19.0428 43.5993 19.0309 43.6651C19.0309 43.6735 19.0309 43.6785 19.0275 43.687V43.6836C19.058 43.5471 19.0886 43.4072 19.1157 43.2639C19.1225 43.2302 19.1292 43.1982 19.1343 43.1644C19.1547 43.0549 19.175 42.9453 19.1954 42.8307C19.2055 42.7801 19.2123 42.7262 19.2208 42.6739C19.236 42.5779 19.253 42.4801 19.2665 42.3806C19.275 42.3217 19.2818 42.261 19.292 42.202C19.3055 42.1076 19.3174 42.0115 19.3293 41.9137C19.3377 41.8497 19.3428 41.7856 19.3513 41.7216C19.3632 41.6255 19.3716 41.5294 19.3818 41.43C19.3886 41.3642 19.3954 41.2951 19.3988 41.2277C19.4072 41.1283 19.414 41.0288 19.4208 40.9277C19.4259 40.8603 19.431 40.7895 19.4344 40.7203C19.4411 40.6158 19.4445 40.5097 19.4479 40.4018C19.4513 40.3344 19.453 40.2652 19.4547 40.1978C19.4581 40.0832 19.4598 39.9686 19.4598 39.854C19.4598 39.7899 19.4598 39.7275 19.4598 39.6635C19.4598 39.5253 19.4564 39.3871 19.453 39.2472C19.453 39.2033 19.453 39.1578 19.4496 39.114H19.4462H19.4428Z" fill="white"/>
<path d="M19.672 33.0647C19.6432 33.1153 19.6143 33.1659 19.5855 33.2181C19.5313 33.3142 19.477 33.412 19.4228 33.5097C19.3991 33.5536 19.3736 33.5991 19.3499 33.6429C19.2855 33.7609 19.2211 33.8822 19.1567 34.0019C19.1431 34.0272 19.1295 34.0525 19.116 34.0795C19.0414 34.2211 18.9651 34.3643 18.8905 34.5076C18.9397 34.6846 18.9837 34.8616 19.0295 35.0352C19.0397 35.0756 19.0482 35.1161 19.06 35.1565C19.1007 35.3285 19.1414 35.5004 19.177 35.6707C19.177 35.6808 19.1821 35.6892 19.1838 35.701C19.2228 35.8797 19.255 36.055 19.2889 36.2303C19.2973 36.2707 19.3041 36.3145 19.3109 36.355C19.3414 36.5202 19.3685 36.6854 19.394 36.8489C19.394 36.859 19.3974 36.8674 19.3991 36.8775C19.4245 37.0478 19.4465 37.2163 19.4669 37.3832C19.4719 37.4253 19.477 37.4692 19.4821 37.5113C19.5008 37.6714 19.5194 37.8299 19.533 37.9866C19.533 37.9951 19.533 38.0018 19.533 38.0086C19.5465 38.1721 19.5601 38.3305 19.5703 38.4906C19.5737 38.5328 19.5753 38.5749 19.5787 38.617C19.5889 38.7721 19.5957 38.9255 19.6008 39.0789V39.1042C19.6059 39.2559 19.6093 39.4042 19.6109 39.5525V39.6756C19.6109 39.8256 19.6109 39.9739 19.6076 40.1206V40.1526C19.6042 40.2925 19.5991 40.4274 19.594 40.5639C19.594 40.6027 19.5906 40.6431 19.5872 40.6802C19.5787 40.8201 19.572 40.9617 19.5618 41.0999C19.5618 41.1134 19.5618 41.1269 19.5584 41.1404C19.5482 41.2685 19.5381 41.3949 19.5245 41.5213C19.5211 41.5584 19.5177 41.5938 19.5126 41.6309C19.4991 41.7657 19.4838 41.8972 19.4686 42.027C19.4686 42.0405 19.4652 42.0556 19.4618 42.0691C19.4465 42.1888 19.4296 42.3068 19.4126 42.4231C19.4075 42.4568 19.4024 42.4888 19.3991 42.5225C19.3804 42.649 19.3601 42.772 19.338 42.8934C19.3346 42.9068 19.3329 42.922 19.3296 42.9338C19.3109 43.0468 19.2906 43.1546 19.2668 43.2642C19.2601 43.2928 19.255 43.3232 19.2499 43.3518C19.2262 43.4698 19.2024 43.5878 19.177 43.7008C19.1736 43.7142 19.1719 43.7244 19.1685 43.7362C19.1448 43.8423 19.1211 43.9452 19.0956 44.0463C19.0888 44.0716 19.0821 44.0952 19.0787 44.1205C19.0516 44.2317 19.0244 44.3379 18.9956 44.4441C18.9922 44.4559 18.9888 44.4643 18.9871 44.4744C18.96 44.5722 18.9346 44.6683 18.9075 44.7627C18.9007 44.7829 18.8956 44.8031 18.8905 44.825C18.8854 44.8402 18.8803 44.8588 18.877 44.8739C18.8854 44.8503 18.8939 44.8284 18.9024 44.8048C18.9126 44.7778 18.9227 44.7492 18.9329 44.7222C18.9702 44.6228 19.0041 44.5233 19.0414 44.4188C19.0448 44.407 19.0499 44.3969 19.0532 44.3851C19.0922 44.2722 19.1295 44.1576 19.1685 44.0412C19.1787 44.0092 19.1889 43.9789 19.199 43.9485C19.2312 43.8491 19.2634 43.748 19.2923 43.6451C19.3007 43.6215 19.3058 43.5979 19.3143 43.5743C19.3516 43.453 19.3872 43.3266 19.4228 43.2001C19.433 43.1681 19.4397 43.1361 19.4499 43.1024C19.4787 42.9979 19.5075 42.8917 19.5347 42.7838C19.5431 42.7501 19.5516 42.7181 19.5601 42.6844C19.594 42.5512 19.6262 42.418 19.6584 42.2798C19.6652 42.2478 19.672 42.2158 19.6788 42.1871C19.7042 42.0725 19.7296 41.9596 19.7533 41.8432C19.7618 41.8045 19.7703 41.764 19.7788 41.7236C19.8076 41.5803 19.8364 41.4353 19.8635 41.2887C19.8686 41.2651 19.872 41.2398 19.8771 41.2162C19.8991 41.0881 19.9212 40.9583 19.9432 40.8285C19.95 40.7847 19.9568 40.7392 19.9635 40.6954C19.9873 40.5454 20.0093 40.392 20.0296 40.2386C20.0296 40.2285 20.033 40.22 20.033 40.2099C20.0534 40.0565 20.072 39.8998 20.089 39.7413C20.0941 39.6958 20.0991 39.6486 20.1025 39.6014C20.1161 39.4615 20.1314 39.3166 20.1415 39.1733C20.1415 39.1463 20.1466 39.121 20.1483 39.0941C20.1619 38.9289 20.172 38.7586 20.1822 38.5901C20.1856 38.5446 20.1873 38.4974 20.189 38.4502C20.1958 38.3103 20.2026 38.1653 20.2059 38.022C20.2059 37.9833 20.2093 37.9462 20.2093 37.9074C20.2144 37.7321 20.2161 37.5551 20.2161 37.3765V37.245C20.2161 37.0983 20.2127 36.95 20.2076 36.8C20.2076 36.7545 20.2076 36.709 20.2042 36.6601C20.1975 36.4747 20.1907 36.2909 20.1788 36.1022C20.1788 36.0651 20.1737 36.0314 20.172 35.9943C20.1619 35.8342 20.15 35.674 20.1347 35.5122C20.1297 35.4616 20.1263 35.4111 20.1212 35.3622C20.1042 35.1683 20.0822 34.9728 20.0602 34.7756C20.0602 34.7554 20.0551 34.7368 20.0517 34.7149C20.0296 34.5346 20.0059 34.3525 19.9788 34.1688C19.9703 34.1165 19.9635 34.0626 19.9551 34.0104C19.9245 33.8148 19.8923 33.6176 19.8567 33.4187C19.8567 33.4103 19.8534 33.4035 19.8534 33.3951C19.8245 33.2333 19.7906 33.0732 19.7584 32.9097C19.7296 32.9602 19.6991 33.0125 19.6703 33.0631L19.672 33.0647Z" fill="white"/>
<path d="M18.8182 43.9295C18.8334 43.8368 18.8521 43.7424 18.8656 43.6463C18.869 43.6295 18.8724 43.6109 18.8741 43.5941C18.8911 43.4828 18.908 43.3699 18.9233 43.2536C18.9284 43.2199 18.9318 43.1879 18.9368 43.1542C18.9487 43.0648 18.9589 42.9721 18.969 42.8794C18.9724 42.8457 18.9775 42.8154 18.9809 42.7816C18.9945 42.662 19.0046 42.5406 19.0148 42.4142C19.0148 42.3889 19.0182 42.3619 19.0199 42.335C19.0284 42.2321 19.0335 42.1293 19.0385 42.0231C19.0385 41.9844 19.0419 41.9439 19.0453 41.9051C19.0504 41.7888 19.0555 41.6708 19.0589 41.5512V41.5023C19.0623 41.3691 19.0623 41.236 19.0589 41.0977V40.9764C19.0589 40.8685 19.0538 40.7589 19.0504 40.6477C19.0504 40.6106 19.0504 40.5752 19.047 40.5381C19.0402 40.3982 19.0335 40.2533 19.0233 40.11C19.0233 40.0746 19.0182 40.0426 19.0148 40.0072C19.0063 39.8909 18.9962 39.7712 18.9843 39.6532C18.9792 39.6094 18.9758 39.5639 18.9707 39.52C18.9555 39.3717 18.9385 39.2234 18.9182 39.0717C18.9182 39.0649 18.9182 39.0599 18.9182 39.0548C18.8978 38.9031 18.8758 38.748 18.8504 38.593C18.8419 38.5475 18.8368 38.5036 18.8283 38.4564C18.8063 38.3283 18.7843 38.1985 18.7588 38.0688C18.7521 38.0317 18.7453 37.998 18.7385 37.9609C18.7063 37.7991 18.6724 37.6372 18.6351 37.4721C18.6266 37.4333 18.6181 37.3945 18.608 37.3574C18.5758 37.2243 18.5436 37.0894 18.5097 36.9546C18.4978 36.9091 18.4859 36.8636 18.4741 36.8164C18.4283 36.6461 18.3825 36.4742 18.33 36.3006C18.3266 36.2888 18.3232 36.2787 18.3181 36.2652C18.2808 36.1455 18.2418 36.0225 18.2028 35.8994C18.152 36.0056 18.1028 36.1118 18.0554 36.218C18.0282 36.2787 17.9994 36.3377 17.9723 36.3983C17.8842 36.5888 17.8011 36.781 17.7197 36.9698C17.7485 37.0355 17.7791 37.1029 17.8062 37.1687C17.8655 37.3052 17.9198 37.4383 17.9723 37.5749C17.9859 37.612 18.0011 37.649 18.0147 37.6861C18.0571 37.7991 18.0977 37.9086 18.135 38.0216C18.1452 38.0468 18.152 38.0721 18.1622 38.0974C18.2062 38.2306 18.2503 38.3637 18.2893 38.4952C18.2995 38.5272 18.3079 38.5593 18.3181 38.5913C18.3503 38.6975 18.3791 38.8054 18.408 38.9099C18.4181 38.9436 18.4249 38.9756 18.4351 39.011C18.469 39.1425 18.4995 39.2739 18.5266 39.4037C18.5317 39.4223 18.5351 39.4425 18.5402 39.461C18.5639 39.5757 18.5859 39.6869 18.6063 39.7998C18.6131 39.8352 18.6198 39.8706 18.6249 39.906C18.6453 40.024 18.6639 40.142 18.6826 40.2583C18.6826 40.2701 18.686 40.2819 18.6877 40.2937C18.7063 40.4218 18.7232 40.5482 18.7368 40.6747C18.7402 40.7084 18.7436 40.7404 18.7487 40.7741C18.7605 40.8769 18.769 40.9781 18.7775 41.0792C18.7775 41.1062 18.7826 41.1331 18.7843 41.1601C18.7944 41.2832 18.8012 41.4045 18.8063 41.5276C18.8063 41.5545 18.8063 41.5798 18.8097 41.6068C18.8148 41.7062 18.8165 41.804 18.8199 41.9018C18.8199 41.9338 18.8199 41.9641 18.8199 41.9945C18.8199 42.1125 18.8199 42.2321 18.8199 42.3484V42.372C18.8199 42.4833 18.8148 42.5895 18.8097 42.6974C18.8097 42.7277 18.8063 42.758 18.8063 42.7867C18.8012 42.8861 18.7961 42.9856 18.7911 43.0834C18.7911 43.0968 18.7911 43.1137 18.7877 43.1272C18.7792 43.2401 18.7707 43.348 18.7605 43.4576C18.7572 43.4828 18.7555 43.5081 18.7521 43.5351C18.7436 43.6244 18.7351 43.7121 18.7232 43.798C18.7199 43.82 18.7182 43.8436 18.7148 43.8655C18.7012 43.97 18.6877 44.0745 18.6741 44.1756C18.6741 44.1908 18.669 44.2076 18.6673 44.2228C18.6537 44.3105 18.6402 44.3964 18.6283 44.4824C18.6249 44.506 18.6198 44.5296 18.6148 44.5549C18.5809 44.7504 18.5453 44.9409 18.508 45.1229C18.5029 45.1431 18.4978 45.1634 18.4944 45.1853C18.4775 45.2645 18.4605 45.3404 18.4436 45.4162C18.4402 45.428 18.4385 45.4398 18.4351 45.4533C18.4147 45.5409 18.3961 45.6235 18.374 45.7061C18.369 45.7213 18.3656 45.7382 18.3605 45.7533C18.3503 45.7887 18.3435 45.8241 18.3334 45.8595V45.8545C18.3334 45.8545 18.3385 45.8393 18.3418 45.8325C18.3639 45.7634 18.3876 45.691 18.4096 45.6168C18.4181 45.5932 18.4232 45.5696 18.4317 45.546C18.452 45.4769 18.4724 45.4061 18.4961 45.3319C18.5012 45.3168 18.5063 45.3016 18.5097 45.2864C18.5334 45.1988 18.5588 45.1094 18.5826 45.0184C18.5893 44.9948 18.5961 44.9712 18.5995 44.9476C18.6182 44.8734 18.6368 44.7993 18.6554 44.7217C18.6622 44.6965 18.669 44.6695 18.6741 44.6442C18.6961 44.5464 18.7182 44.447 18.7402 44.3442C18.7436 44.329 18.747 44.3122 18.7504 44.2953C18.7673 44.206 18.786 44.1166 18.8029 44.0273C18.8097 43.9953 18.8148 43.9632 18.8199 43.9329L18.8182 43.9295Z" fill="white"/>
<path d="M16.2103 44.3226C16.2323 44.3883 16.2527 44.4524 16.2747 44.5164C16.2883 44.5569 16.3018 44.599 16.3154 44.6378C16.3391 44.7069 16.3628 44.776 16.3866 44.8417C16.3984 44.8738 16.4086 44.9058 16.4222 44.9378C16.4578 45.0322 16.4917 45.1266 16.5256 45.2159C16.5391 45.248 16.5493 45.2783 16.5629 45.3069C16.5849 45.3676 16.6086 45.4249 16.6307 45.4822C16.6459 45.521 16.6612 45.5581 16.6764 45.5969C16.6951 45.6441 16.7154 45.6896 16.7324 45.7368C16.7476 45.7755 16.7646 45.8143 16.7798 45.8514C16.79 45.875 16.7985 45.8969 16.8087 45.9188C16.8019 45.9003 16.7951 45.88 16.7883 45.8581C16.7765 45.8261 16.7646 45.7941 16.7527 45.7621C16.7392 45.7233 16.7239 45.6811 16.7103 45.639C16.6985 45.6053 16.6866 45.5733 16.6747 45.5379C16.6612 45.4957 16.6459 45.4502 16.6307 45.4064C16.6188 45.371 16.6086 45.3373 16.5951 45.3019C16.5815 45.2564 16.5663 45.2109 16.551 45.1637C16.5391 45.1266 16.529 45.0912 16.5154 45.0541C16.5018 45.0069 16.4866 44.958 16.4713 44.9092C16.4595 44.8704 16.4493 44.835 16.4374 44.7945C16.4239 44.744 16.4086 44.6917 16.395 44.6411C16.3832 44.6024 16.373 44.5636 16.3628 44.5265C16.3493 44.4726 16.3323 44.4153 16.3188 44.3613C16.3086 44.3226 16.2984 44.2855 16.2882 44.2467C16.273 44.186 16.2577 44.1237 16.2425 44.0613C16.2323 44.0242 16.2255 43.9905 16.2154 43.9534C16.1984 43.8776 16.1781 43.7984 16.1611 43.7191C16.156 43.6955 16.1492 43.6736 16.1459 43.6517C16.1238 43.5506 16.1018 43.4461 16.0814 43.3399C16.0747 43.3045 16.0679 43.2708 16.0611 43.2354C16.0475 43.1646 16.0323 43.0921 16.0204 43.0196C16.0119 42.9758 16.0052 42.9286 15.9967 42.8831C15.9848 42.819 15.973 42.7533 15.9628 42.6892C15.9543 42.6404 15.9475 42.5898 15.9391 42.5409C15.9289 42.4769 15.9187 42.4128 15.9085 42.3488C15.9001 42.2965 15.895 42.2426 15.8865 42.1886C15.8763 42.1246 15.8696 42.0622 15.8611 41.9981C15.8543 41.9425 15.8475 41.8852 15.8407 41.8296C15.8323 41.7655 15.8255 41.7032 15.8187 41.6391C15.8119 41.5818 15.8051 41.5245 15.8017 41.4655C15.795 41.4015 15.7882 41.3357 15.7831 41.2717C15.778 41.211 15.7729 41.152 15.7695 41.0913C15.7645 41.0273 15.7577 40.9598 15.756 40.8941C15.7509 40.8317 15.7475 40.771 15.7441 40.7087C15.7407 40.6429 15.7356 40.5738 15.7322 40.5064C15.7289 40.444 15.7255 40.3817 15.7238 40.3176C15.7204 40.2502 15.7187 40.1794 15.717 40.1103C15.717 40.0462 15.7136 39.9822 15.7119 39.9181C15.7119 39.849 15.7119 39.7782 15.7085 39.7074V39.5119C15.7085 39.4411 15.7085 39.3686 15.7085 39.2962C15.7085 39.2304 15.7085 39.163 15.7119 39.0973C15.7119 39.0248 15.717 38.9523 15.7187 38.8781C15.7221 38.8107 15.7238 38.7433 15.7272 38.6742C15.7305 38.6 15.7356 38.5242 15.7407 38.45C15.7458 38.3826 15.7492 38.3135 15.7543 38.2444C15.7594 38.1668 15.7661 38.091 15.7712 38.0134C15.778 37.946 15.7831 37.8752 15.7882 37.8078C15.7967 37.7286 15.8034 37.6494 15.8119 37.5701C15.8204 37.501 15.8255 37.4319 15.834 37.3628C15.8441 37.2819 15.8543 37.1993 15.8645 37.1184C15.8746 37.0493 15.8814 36.9802 15.8916 36.9111C15.9051 36.8251 15.917 36.7408 15.9306 36.6549C15.9407 36.5891 15.9492 36.52 15.9611 36.4543C15.9763 36.3633 15.9933 36.2689 16.0102 36.1762C16.0221 36.1138 16.0306 36.0514 16.0442 35.9891C16.0645 35.8829 16.0865 35.775 16.1086 35.6688C16.1187 35.6182 16.1272 35.5693 16.1391 35.5188C16.173 35.3603 16.2086 35.2019 16.2476 35.0434C16.256 35.0114 16.2628 34.9794 16.2713 34.949C16.3018 34.826 16.3323 34.703 16.3645 34.5782C16.2204 34.3085 16.0713 34.0321 15.9187 33.759C15.8746 33.6781 15.8272 33.5955 15.7797 33.5163C15.6865 33.3511 15.5915 33.1842 15.4966 33.019C15.4814 33.1016 15.4644 33.1842 15.4509 33.2652C15.4373 33.3393 15.422 33.4152 15.4102 33.4893C15.3864 33.6242 15.3661 33.7557 15.3458 33.8888C15.3356 33.9495 15.3271 34.0068 15.3169 34.0675C15.2881 34.258 15.2627 34.4484 15.2407 34.6372C15.2373 34.6608 15.2356 34.6827 15.2322 34.7063C15.2135 34.8715 15.1949 35.035 15.1796 35.1985C15.1729 35.2626 15.1678 35.3249 15.1644 35.389C15.1525 35.5103 15.144 35.6317 15.1356 35.7531C15.1305 35.8239 15.1254 35.8947 15.122 35.9688C15.1152 36.0801 15.1084 36.1913 15.105 36.3009C15.1017 36.3734 15.0983 36.4458 15.0966 36.5183C15.0932 36.6262 15.0898 36.7341 15.0864 36.8386C15.0864 36.9094 15.083 36.9819 15.083 37.0543V37.5769C15.083 37.6898 15.0881 37.7994 15.0898 37.9106C15.0898 37.9713 15.0932 38.0303 15.0949 38.0893C15.1 38.2241 15.1067 38.3573 15.1118 38.4888C15.1118 38.5225 15.1152 38.5545 15.1169 38.5882C15.1271 38.7534 15.1373 38.9186 15.1508 39.0821C15.1542 39.1209 15.1593 39.1613 15.1627 39.2018C15.1728 39.3231 15.183 39.4428 15.1966 39.5625C15.2034 39.6198 15.2101 39.6754 15.2152 39.731C15.2271 39.8322 15.2373 39.9316 15.2508 40.0311C15.2593 40.0934 15.2661 40.1524 15.2746 40.2131C15.2881 40.3058 15.3 40.4002 15.3135 40.4912C15.3237 40.5519 15.3305 40.6126 15.3407 40.6733C15.3542 40.7626 15.3695 40.8536 15.383 40.943C15.3932 41.002 15.4017 41.0593 15.4119 41.1166C15.4271 41.2076 15.4441 41.2986 15.461 41.3863C15.4712 41.4402 15.4797 41.4942 15.4915 41.5464C15.5102 41.6442 15.5305 41.7386 15.5492 41.8346C15.5593 41.8768 15.5661 41.9206 15.5746 41.9628C15.6322 42.2358 15.6933 42.5005 15.7577 42.7567C15.7695 42.7988 15.7797 42.8409 15.7899 42.8831C15.8119 42.969 15.8323 43.0516 15.8543 43.1342C15.8679 43.1831 15.8814 43.2303 15.8933 43.2775C15.9136 43.3517 15.934 43.4258 15.956 43.4966C15.9696 43.5455 15.9848 43.5944 15.9984 43.6433C16.0187 43.7124 16.0391 43.7815 16.0594 43.8472C16.073 43.8944 16.0882 43.9433 16.1035 43.9888C16.1238 44.0546 16.1442 44.1203 16.1662 44.1843C16.1798 44.2299 16.195 44.2737 16.2103 44.3209L16.2137 44.3243L16.2103 44.3226Z" fill="white"/>
<path d="M16.3615 29.8064C16.3479 29.8485 16.331 29.894 16.3174 29.9378C16.2784 30.0491 16.2445 30.157 16.2089 30.2648C16.2021 30.2817 16.197 30.3002 16.192 30.3171C16.153 30.4385 16.1157 30.5581 16.0801 30.6761C16.1648 30.8396 16.2479 30.9998 16.331 31.1616C16.3598 31.2172 16.3869 31.2728 16.4157 31.3284C16.4717 31.4397 16.5276 31.5493 16.5818 31.6588C16.6174 31.7296 16.6513 31.7987 16.6852 31.8695C16.731 31.9639 16.7785 32.06 16.8259 32.1544C16.8598 32.2235 16.892 32.2943 16.926 32.3634C16.9565 32.4274 16.9887 32.4898 17.0158 32.5539C17.0226 32.537 17.0294 32.5168 17.0361 32.4999C17.1039 32.3179 17.1768 32.1342 17.2531 31.9504C17.265 31.9251 17.2752 31.8982 17.287 31.8729C17.3633 31.6892 17.443 31.5054 17.526 31.3217C17.5311 31.3082 17.5362 31.2981 17.5413 31.2846C17.5362 31.2728 17.5311 31.2644 17.5277 31.2526L17.5125 31.2155C17.4379 31.0537 17.3616 30.8902 17.2819 30.7233C17.2548 30.666 17.226 30.607 17.1989 30.548C17.1463 30.4368 17.0938 30.3289 17.0412 30.216C17.0039 30.1418 16.9683 30.0643 16.931 29.9884C16.8853 29.8923 16.8395 29.7963 16.7903 29.6985C16.7429 29.6007 16.6954 29.503 16.6479 29.4052C16.6208 29.3513 16.5954 29.2956 16.5683 29.2417C16.5496 29.294 16.5293 29.3462 16.5106 29.3968C16.4937 29.4473 16.4734 29.4962 16.4564 29.5468C16.4242 29.6361 16.3937 29.7221 16.3649 29.8097L16.3615 29.8064Z" fill="white"/>
<path d="M17.4849 36.4693C17.5323 36.5721 17.5798 36.675 17.6256 36.7761C17.673 36.6648 17.7256 36.5553 17.7748 36.4423C17.8002 36.385 17.8256 36.3277 17.8527 36.2704C17.9426 36.0766 18.0341 35.8777 18.1273 35.6821C18.1087 35.6248 18.0884 35.5675 18.0697 35.5136L18.0358 35.4141C18.0189 35.3653 18.0019 35.3197 17.985 35.2726C17.9697 35.2287 17.9527 35.1832 17.9392 35.1411C17.9307 35.1192 17.9239 35.0973 17.9138 35.0753C17.8578 34.927 17.8036 34.7837 17.7476 34.6438C17.7409 34.6287 17.7341 34.6135 17.7307 34.5983C17.6968 34.514 17.6629 34.4314 17.629 34.3472C17.6086 34.3994 17.5883 34.4517 17.5663 34.5039C17.5273 34.6034 17.4883 34.7011 17.451 34.8006C17.4306 34.8579 17.4103 34.9152 17.3866 34.9708C17.3713 35.0147 17.3527 35.0602 17.3374 35.104C17.3205 35.1529 17.3018 35.2018 17.2866 35.2506C17.2679 35.3063 17.2476 35.3602 17.2289 35.4158C17.2154 35.4563 17.2001 35.5001 17.1865 35.5422C17.1679 35.6012 17.1476 35.6569 17.1289 35.7159C17.2221 35.908 17.3137 36.0985 17.4018 36.2873C17.4306 36.3496 17.4578 36.4069 17.4849 36.4676L17.4815 36.4727L17.4849 36.4693Z" fill="white"/>
<path d="M17.2061 27.684C17.1756 27.7497 17.1451 27.8155 17.1162 27.8812C17.0433 28.0481 16.9722 28.2166 16.901 28.3835C16.8891 28.4105 16.8772 28.4374 16.8654 28.4644C16.7874 28.6549 16.7128 28.8437 16.6416 29.0324C16.7043 29.1572 16.762 29.2802 16.823 29.4033C16.8484 29.4572 16.8755 29.5128 16.9027 29.5651C16.9908 29.7438 17.0739 29.9207 17.1586 30.0944C17.1891 30.1584 17.2196 30.2208 17.2485 30.2848C17.301 30.3944 17.3536 30.5023 17.4027 30.6101C17.4553 30.7231 17.5061 30.831 17.5587 30.9405C17.5807 30.9877 17.6044 31.0366 17.6265 31.0838C17.64 31.0568 17.6502 31.0315 17.6638 31.0046C17.7858 30.7383 17.9146 30.4702 18.0452 30.1972C18.0706 30.1416 18.096 30.0876 18.1232 30.0337C18.1655 29.9443 18.2113 29.8533 18.2554 29.764C18.2944 29.6864 18.33 29.6089 18.3706 29.5297C18.4113 29.4437 18.4571 29.3578 18.4978 29.2701C18.5368 29.1875 18.5774 29.1083 18.6181 29.0257C18.5435 28.8352 18.4673 28.6448 18.3876 28.4543C18.3723 28.4155 18.3537 28.3751 18.3367 28.338C18.2723 28.1829 18.2045 28.0262 18.135 27.8728C18.1011 27.7986 18.0689 27.7261 18.0333 27.652C17.9791 27.5323 17.9231 27.4126 17.8672 27.2946C17.8282 27.212 17.7875 27.1311 17.7485 27.0519C17.7078 26.9659 17.6655 26.8833 17.6231 26.7974C17.5807 26.885 17.5366 26.971 17.496 27.0586C17.457 27.1395 17.418 27.2204 17.3807 27.2997C17.3197 27.4278 17.2637 27.5559 17.2061 27.684Z" fill="white"/>
<path d="M18.0537 46.2591C18.0672 46.2186 18.0774 46.1765 18.0909 46.1343C18.1028 46.0972 18.1113 46.0585 18.1232 46.0197C18.135 45.9776 18.1469 45.9337 18.1588 45.8899C18.1706 45.8512 18.1791 45.809 18.191 45.7686C18.2028 45.7247 18.2147 45.6792 18.2266 45.632C18.2384 45.5899 18.2469 45.5427 18.2588 45.4989C18.2706 45.4517 18.2808 45.4062 18.2927 45.3573C18.3045 45.3118 18.313 45.2646 18.3249 45.2174C18.3367 45.1685 18.3452 45.1196 18.3571 45.0707C18.3673 45.0218 18.3774 44.9713 18.3876 44.9224C18.3978 44.8718 18.4079 44.8213 18.4181 44.769C18.4283 44.7168 18.4368 44.6645 18.4469 44.6106C18.4571 44.5583 18.4656 44.5061 18.474 44.4521C18.4842 44.3982 18.491 44.3426 18.4995 44.2869C18.5079 44.233 18.5147 44.1774 18.5232 44.1234C18.5317 44.0661 18.5385 44.0088 18.5452 43.9532C18.5537 43.8976 18.5588 43.8403 18.5656 43.7846C18.5724 43.7256 18.5791 43.6666 18.5842 43.606C18.591 43.5487 18.5978 43.4913 18.6012 43.434C18.608 43.3717 18.6114 43.311 18.6147 43.2486C18.6198 43.1896 18.6249 43.1323 18.6283 43.0716C18.6334 43.0076 18.6351 42.9452 18.6402 42.8812C18.6436 42.8205 18.6469 42.7598 18.6503 42.6974C18.6537 42.6334 18.6537 42.5676 18.6554 42.5036C18.6554 42.4412 18.6588 42.3789 18.6605 42.3148V41.9254C18.6605 41.858 18.6554 41.7889 18.6537 41.7198C18.6537 41.6557 18.6503 41.5917 18.647 41.5276C18.6436 41.4585 18.6385 41.3877 18.6334 41.3169C18.6283 41.2529 18.6249 41.1872 18.6198 41.1214C18.613 41.0506 18.6063 40.9798 18.5995 40.9057C18.5927 40.8399 18.5859 40.7742 18.5808 40.7068C18.5724 40.6343 18.5622 40.5618 18.5537 40.4893C18.5435 40.4236 18.5385 40.3545 18.5266 40.2887C18.5147 40.2146 18.5029 40.1404 18.4893 40.0662C18.4774 39.9988 18.469 39.9314 18.4554 39.864C18.4418 39.7881 18.4249 39.7106 18.4096 39.6347C18.3961 39.569 18.3842 39.5016 18.3706 39.4341C18.3537 39.3566 18.3333 39.2774 18.3147 39.1982C18.2994 39.1324 18.2842 39.065 18.2672 38.9993C18.2469 38.9184 18.2232 38.8358 18.2011 38.7565C18.1842 38.6925 18.1655 38.6268 18.1469 38.5627C18.1215 38.4767 18.0926 38.3941 18.0655 38.3082C18.0452 38.2458 18.0265 38.1834 18.0045 38.1211C17.9723 38.0284 17.9384 37.9323 17.9028 37.8396C17.8841 37.7856 17.8638 37.7317 17.8435 37.6778C17.7858 37.5294 17.7265 37.3811 17.6604 37.2328C17.6519 37.2109 17.6434 37.1923 17.635 37.1704C17.6112 37.2277 17.5875 37.285 17.5655 37.3407C17.5349 37.4131 17.5044 37.4856 17.4773 37.5581C17.4519 37.6238 17.4281 37.6896 17.4044 37.7553C17.3773 37.8312 17.3485 37.907 17.3214 37.9829C17.301 38.0452 17.2824 38.1059 17.2603 38.17C17.2349 38.2492 17.2078 38.3284 17.184 38.4076C17.1671 38.4666 17.1501 38.5222 17.1349 38.5812C17.1112 38.6638 17.0874 38.7464 17.0654 38.8273C17.0518 38.8813 17.0383 38.9352 17.0264 38.9892C17.0061 39.0751 16.984 39.1594 16.9637 39.2454C16.9518 39.2959 16.9433 39.3465 16.9315 39.3971C16.9128 39.4847 16.8925 39.5707 16.8772 39.6583C16.8671 39.7055 16.8603 39.7527 16.8518 39.8016C16.8365 39.8909 16.8196 39.9786 16.806 40.0679C16.7992 40.1117 16.7925 40.1573 16.7874 40.2028C16.7738 40.2921 16.7603 40.3831 16.7484 40.4725C16.7433 40.5129 16.7382 40.5551 16.7348 40.5955C16.723 40.6865 16.7145 40.7792 16.7043 40.8703C16.7009 40.909 16.6975 40.9478 16.6942 40.9849C16.6857 41.0776 16.6789 41.1703 16.6721 41.2613C16.6721 41.2984 16.6687 41.3321 16.6653 41.3692C16.6602 41.4619 16.6535 41.5563 16.6518 41.6473C16.6518 41.681 16.6518 41.7131 16.6484 41.7468C16.645 41.8395 16.6433 41.9339 16.6416 42.0249V42.394C16.6416 42.4244 16.6416 42.4547 16.645 42.4834C16.645 42.5744 16.6501 42.6671 16.6535 42.7564C16.6535 42.7851 16.6569 42.8137 16.6586 42.8424C16.6636 42.9317 16.6687 43.0227 16.6721 43.1104C16.6721 43.1374 16.6772 43.1627 16.6789 43.1896C16.6857 43.279 16.6925 43.3683 16.6992 43.4559C16.6992 43.4812 16.7043 43.5065 16.7077 43.5335C16.7162 43.6211 16.7247 43.7071 16.7348 43.7914C16.7382 43.8167 16.7416 43.8403 16.745 43.8655C16.7552 43.9498 16.7653 44.0324 16.7772 44.115C16.7806 44.1386 16.784 44.1622 16.7891 44.1858C16.8009 44.2684 16.8128 44.3493 16.8247 44.4268C16.8281 44.4504 16.8332 44.4723 16.8365 44.4959C16.8501 44.5752 16.862 44.6527 16.8755 44.7286C16.8806 44.7538 16.8857 44.7758 16.8891 44.801C16.9027 44.8735 16.9162 44.9477 16.9298 45.0185C16.9349 45.0438 16.9416 45.069 16.945 45.0926C16.9586 45.1601 16.9738 45.2309 16.9874 45.2966C16.9925 45.3219 16.9993 45.3438 17.0027 45.3674C17.0162 45.4314 17.0315 45.4972 17.0467 45.5595C17.0535 45.5865 17.0603 45.6118 17.0654 45.6388C17.0789 45.6978 17.0942 45.7551 17.1078 45.8107C17.1145 45.8377 17.1213 45.8613 17.1281 45.8866C17.1417 45.9405 17.1569 45.9961 17.1705 46.0484C17.179 46.077 17.1857 46.104 17.1942 46.1326C17.2078 46.1798 17.2213 46.227 17.2332 46.2725C17.2417 46.3012 17.2485 46.3282 17.2586 46.3568C17.2722 46.399 17.2841 46.4428 17.2976 46.4816C17.3078 46.5153 17.318 46.5456 17.3281 46.5776C17.3383 46.6097 17.3485 46.6417 17.3586 46.6737C17.3705 46.7108 17.3807 46.7428 17.3925 46.7765C17.401 46.8018 17.4078 46.8271 17.4163 46.8507C17.4298 46.8861 17.44 46.9164 17.4519 46.9502C17.4587 46.9687 17.4654 46.9906 17.4722 47.0108C17.4841 47.0429 17.4926 47.0698 17.5044 47.0985C17.5112 47.117 17.518 47.1373 17.5248 47.1541C17.54 47.1979 17.557 47.2418 17.5722 47.2788C17.5994 47.3311 17.6231 47.3766 17.6451 47.4187C17.6451 47.4187 17.6451 47.4154 17.6451 47.4137C17.657 47.3884 17.6672 47.3597 17.679 47.3311C17.6824 47.3227 17.6858 47.3142 17.6909 47.3041C17.7028 47.2772 17.7129 47.2468 17.7265 47.2148C17.7316 47.2013 17.7384 47.1878 17.7417 47.1743C17.7536 47.144 17.7655 47.112 17.779 47.0799C17.7858 47.0631 17.7926 47.0445 17.7977 47.026C17.8112 46.9923 17.8214 46.9603 17.835 46.9249C17.8435 46.903 17.8502 46.881 17.8587 46.8591C17.8723 46.8237 17.8824 46.79 17.896 46.7529C17.9062 46.7277 17.913 46.7007 17.9231 46.6737C17.9367 46.6366 17.9486 46.5996 17.9604 46.5591C17.9706 46.5304 17.9791 46.4984 17.9892 46.4698C18.0028 46.431 18.0147 46.3905 18.0265 46.3501C18.0367 46.3164 18.0469 46.2827 18.057 46.249V46.254L18.0537 46.2591Z" fill="white"/>
<path d="M14.8795 28.5031C14.8795 28.5031 14.888 28.5166 14.8914 28.5233C14.9236 28.5773 14.9558 28.6329 14.9863 28.6885C14.9982 28.7087 15.01 28.7307 15.0236 28.7526C15.049 28.7964 15.0744 28.8419 15.0999 28.8874C15.1151 28.9178 15.1338 28.9481 15.1507 28.9767C15.1728 29.0155 15.1948 29.0543 15.2168 29.0931C15.2372 29.1301 15.2592 29.1672 15.2813 29.206C15.2999 29.2414 15.3202 29.2751 15.3406 29.3105C15.3626 29.3509 15.3864 29.3931 15.4101 29.4352C15.4287 29.4706 15.4491 29.5027 15.4677 29.538C15.4931 29.5836 15.5186 29.6291 15.544 29.678C15.5609 29.71 15.5796 29.742 15.5982 29.7757C15.6254 29.8246 15.6525 29.8752 15.6813 29.9257C15.6966 29.9561 15.7152 29.9864 15.7305 30.0168C15.761 30.0724 15.7898 30.128 15.8203 30.1819C15.8339 30.2106 15.8508 30.2376 15.8644 30.2662C15.8966 30.3252 15.9271 30.3825 15.9576 30.4432C15.9627 30.4533 15.9695 30.4634 15.9729 30.4735C15.9864 30.4331 16 30.391 16.0119 30.3488C16.0271 30.2999 16.0424 30.251 16.0576 30.2022C16.0847 30.1179 16.1136 30.0353 16.1424 29.951C16.1559 29.9089 16.1712 29.8651 16.1848 29.8212C16.2237 29.71 16.2627 29.5987 16.3017 29.4858C16.3085 29.4673 16.3153 29.4487 16.3204 29.4319C16.3661 29.3021 16.4136 29.1723 16.4645 29.0391C16.3814 28.8706 16.2983 28.7037 16.2204 28.5436C16.2153 28.5351 16.2119 28.5267 16.2068 28.5183C16.178 28.4593 16.1492 28.4037 16.1203 28.3463C16.1034 28.3093 16.0831 28.2739 16.0661 28.2385C16.0441 28.1946 16.0237 28.1508 16.0017 28.1087C15.978 28.0632 15.9559 28.0177 15.9339 27.9705C15.9152 27.9334 15.8966 27.898 15.8796 27.8609C15.8525 27.8053 15.8237 27.7496 15.7966 27.6957C15.7847 27.6721 15.7728 27.6502 15.761 27.6266C15.722 27.5507 15.6847 27.4766 15.6474 27.4041C15.6474 27.4041 15.6474 27.4007 15.6474 27.399C15.3253 26.7602 15.0728 26.2697 14.9422 26.0186C14.7151 26.5411 14.5066 27.0653 14.3252 27.5743C14.4422 27.7682 14.6354 28.0868 14.8744 28.4997H14.8795V28.5031Z" fill="white"/>
<path d="M15.0295 25.8366C15.1414 26.049 15.477 26.6945 15.9178 27.5761C15.9228 27.5862 15.9279 27.5946 15.9313 27.6031C15.9703 27.6772 16.0076 27.7548 16.0466 27.8323C16.0534 27.8458 16.0601 27.8593 16.0669 27.8711C16.1059 27.9452 16.1415 28.0211 16.1822 28.0986C16.1907 28.1138 16.1974 28.129 16.2042 28.1441C16.2432 28.2234 16.2839 28.3043 16.3229 28.3852C16.3297 28.397 16.3348 28.4071 16.3398 28.4206C16.3822 28.5082 16.4263 28.5959 16.4704 28.6852C16.4738 28.6936 16.4788 28.6987 16.4822 28.7071C16.5026 28.7509 16.5246 28.7948 16.5466 28.8386C16.5789 28.756 16.6128 28.6734 16.6467 28.5891C16.6806 28.5065 16.7111 28.4239 16.7467 28.3413C16.7941 28.2267 16.845 28.1104 16.8942 27.9958C16.9281 27.9166 16.9603 27.8374 16.9959 27.7581C17.0603 27.6165 17.1247 27.4733 17.1908 27.3317C17.2145 27.2811 17.2366 27.2306 17.2603 27.18C17.3484 26.9929 17.4383 26.8092 17.5298 26.6221C17.523 26.6103 17.518 26.5985 17.5129 26.5867C17.479 26.5277 17.4468 26.4687 17.4112 26.4046C17.3976 26.381 17.384 26.354 17.3705 26.3305C17.3501 26.2917 17.3281 26.2529 17.3061 26.2141C17.2908 26.1855 17.2739 26.1552 17.2586 26.1265C17.2383 26.0877 17.2196 26.0523 17.1976 26.0136C17.1823 25.9815 17.1637 25.9495 17.1484 25.9192C17.1298 25.8821 17.1094 25.845 17.0891 25.8062C17.0721 25.7742 17.0552 25.7422 17.0382 25.7118C17.0179 25.6731 16.9993 25.6343 16.9772 25.5972C16.962 25.5652 16.945 25.5332 16.9281 25.5045C16.9077 25.4641 16.8874 25.4236 16.8653 25.3832C16.8518 25.3545 16.8365 25.3275 16.823 25.2989C16.7992 25.2534 16.7755 25.2079 16.7535 25.159L16.7196 25.0932C16.6924 25.0393 16.6653 24.9854 16.6382 24.9314C16.6314 24.9179 16.6246 24.9044 16.6178 24.891C16.3856 24.4274 16.1822 24.0111 16.0584 23.7549C15.6872 24.4342 15.3397 25.1337 15.0244 25.8383L15.0295 25.8366Z" fill="white"/>
<path d="M14.3238 27.8746C14.3017 27.8375 14.2831 27.8055 14.2611 27.7734C14.0322 28.4274 13.839 29.0781 13.6864 29.7068L13.6729 29.7725V29.7843C13.6983 29.8248 13.7322 29.8754 13.7678 29.9293C13.7729 29.936 13.7763 29.9428 13.7813 29.9478C13.7983 29.9748 13.8186 30.0035 13.8373 30.0321C13.8458 30.0439 13.8508 30.054 13.8593 30.0658C13.8763 30.0928 13.8966 30.1215 13.9153 30.1501C13.9271 30.1653 13.9356 30.1804 13.9458 30.1956C13.9678 30.2293 13.9915 30.2647 14.0153 30.3018C14.0237 30.3153 14.0305 30.3254 14.039 30.3389C14.0712 30.3878 14.1034 30.44 14.139 30.4923C14.1526 30.5108 14.1644 30.531 14.1763 30.5496C14.2 30.5867 14.2221 30.6204 14.2475 30.6592C14.2611 30.6828 14.278 30.7063 14.2933 30.7316C14.3153 30.7687 14.339 30.8024 14.3628 30.8395C14.378 30.8648 14.3967 30.8918 14.4119 30.917C14.4357 30.9558 14.4594 30.9929 14.4848 31.0317C14.5018 31.0603 14.5204 31.089 14.5391 31.1176C14.5628 31.1564 14.5865 31.1935 14.612 31.2323C14.6306 31.2643 14.6509 31.2963 14.673 31.3283C14.6967 31.3671 14.7221 31.4059 14.7459 31.4446C14.7662 31.4783 14.7883 31.5121 14.8103 31.5475C14.834 31.5862 14.8578 31.625 14.8815 31.6638C14.9052 31.7025 14.9289 31.743 14.9544 31.7818C14.9764 31.8188 14.9984 31.8559 15.0222 31.893C15.0476 31.9351 15.073 31.979 15.1002 32.0211C15.1222 32.0599 15.1442 32.0953 15.168 32.134C15.1951 32.1795 15.2239 32.2251 15.251 32.2739C15.2714 32.3093 15.2917 32.343 15.3137 32.3784C15.3443 32.429 15.3748 32.4813 15.4053 32.5335C15.4121 32.5453 15.4188 32.5554 15.4239 32.5655C15.4375 32.5049 15.4511 32.4442 15.4646 32.3818C15.4782 32.3178 15.4917 32.2554 15.507 32.1913C15.5307 32.0868 15.5561 31.9806 15.5833 31.8745C15.5968 31.8138 15.6121 31.7565 15.6273 31.6958C15.6596 31.5711 15.6918 31.4446 15.7274 31.3165C15.7392 31.2744 15.7494 31.2323 15.7613 31.1901C15.807 31.0249 15.8545 30.8581 15.9053 30.6895C15.8138 30.5159 15.7223 30.3456 15.6341 30.1804C15.6273 30.167 15.6206 30.1552 15.6138 30.1417C15.5748 30.0709 15.5375 30.0001 15.4985 29.931C15.485 29.9091 15.4748 29.8872 15.4612 29.8669C15.429 29.8079 15.3968 29.7506 15.3663 29.6933C15.3527 29.668 15.3392 29.6427 15.3256 29.6191C15.2951 29.5652 15.2663 29.513 15.2375 29.4607C15.2239 29.4371 15.2103 29.4118 15.1985 29.3882C15.1697 29.3377 15.1408 29.2871 15.1137 29.2382C15.1002 29.2146 15.0866 29.191 15.0747 29.1691C15.0476 29.1202 15.0205 29.073 14.9934 29.0258C14.9798 29.0039 14.9679 28.982 14.9544 28.9601C14.9289 28.9146 14.9035 28.8708 14.8781 28.8269C14.8645 28.805 14.8527 28.7831 14.8391 28.7612C14.8137 28.7174 14.7899 28.6752 14.7662 28.6331C14.7543 28.6145 14.7442 28.5943 14.7323 28.5758C14.7069 28.5319 14.6832 28.4898 14.6577 28.4477C14.6272 28.3971 14.5984 28.3482 14.5713 28.301C14.5611 28.2859 14.5526 28.2673 14.5425 28.2521C14.5187 28.2134 14.4967 28.1746 14.4747 28.1375C14.4696 28.1291 14.4628 28.1207 14.4594 28.1122C14.4374 28.0735 14.417 28.0398 14.395 28.0044C14.3899 27.9959 14.3848 27.9892 14.3814 27.9825C14.3594 27.9437 14.3373 27.9083 14.317 27.8746V27.8779L14.3238 27.8746Z" fill="white"/>
<path d="M21.9251 35.2204C21.8437 33.6663 21.62 32.0684 21.2589 30.4688C21.2437 30.4907 21.2284 30.5143 21.2131 30.5362C21.1894 30.5733 21.1657 30.6087 21.1419 30.6457C21.1063 30.6997 21.0724 30.7536 21.0351 30.8092C21.0114 30.848 20.986 30.8834 20.9623 30.9222C20.9267 30.9778 20.8911 31.0351 20.8538 31.089C20.83 31.1278 20.8046 31.1666 20.7809 31.2037C20.7436 31.261 20.708 31.3183 20.6724 31.3773C20.6487 31.416 20.6232 31.4548 20.5995 31.4936C20.5605 31.5543 20.5249 31.6149 20.4859 31.6756C20.4622 31.7144 20.4402 31.7515 20.4164 31.7902C20.3757 31.856 20.3351 31.9251 20.2944 31.9925C20.274 32.0262 20.2554 32.0583 20.2333 32.092C20.1791 32.183 20.1232 32.2757 20.0689 32.3684C20.0554 32.3903 20.0435 32.4122 20.0299 32.4341C19.9791 32.5218 19.9282 32.6078 19.8774 32.6971C19.9231 32.9145 19.9672 33.132 20.0062 33.3477C20.0181 33.4118 20.0265 33.4725 20.0384 33.5365C20.0655 33.695 20.0927 33.8517 20.1164 34.0068C20.1299 34.0894 20.1401 34.1703 20.152 34.2495C20.1706 34.386 20.191 34.5192 20.2062 34.654C20.2181 34.7417 20.2249 34.8243 20.235 34.9119C20.2486 35.04 20.2639 35.1681 20.274 35.2946C20.2825 35.3805 20.2893 35.4648 20.2961 35.5508C20.3062 35.6755 20.3147 35.8002 20.3232 35.925C20.3283 36.0093 20.3351 36.0902 20.3384 36.1728C20.3452 36.2975 20.352 36.4222 20.3554 36.547C20.3588 36.6262 20.3622 36.7037 20.3639 36.7813C20.3673 36.9127 20.369 37.0425 20.3707 37.1723C20.3707 37.2397 20.3707 37.3105 20.3707 37.3763C20.3707 37.528 20.3707 37.6763 20.3656 37.8246C20.3656 37.8685 20.3656 37.914 20.3656 37.9561C20.3605 38.1499 20.352 38.3438 20.3435 38.5326C20.3435 38.5477 20.3435 38.5646 20.3401 38.5798C20.33 38.75 20.3198 38.9219 20.3062 39.0888C20.3012 39.1444 20.2961 39.1984 20.2927 39.2523C20.2808 39.3804 20.2706 39.5068 20.2571 39.6333C20.2503 39.6973 20.2435 39.758 20.2367 39.822C20.2232 39.9367 20.2096 40.0513 20.1961 40.1659C20.1876 40.2299 20.1791 40.294 20.1706 40.3581C20.1571 40.4676 20.1401 40.5755 20.1232 40.6834C20.113 40.7474 20.1045 40.8098 20.0927 40.8722C20.0757 40.98 20.0571 41.0862 20.0384 41.1907C20.0265 41.2497 20.0181 41.3087 20.0062 41.3677C19.9859 41.4773 19.9655 41.5835 19.9418 41.6913C19.9316 41.7419 19.9214 41.7942 19.9113 41.8447C19.8858 41.9644 19.8604 42.0841 19.8333 42.2004C19.8248 42.2358 19.818 42.2712 19.8096 42.3066C19.7384 42.6134 19.6638 42.9067 19.5858 43.1915C19.5756 43.2269 19.5672 43.2589 19.5553 43.2943C19.5248 43.3988 19.496 43.5033 19.4655 43.6045C19.4519 43.65 19.4383 43.6938 19.4248 43.7393C19.3976 43.8287 19.3705 43.9146 19.3434 44.0023C19.3281 44.0495 19.3129 44.0967 19.2976 44.1422C19.2705 44.2231 19.2451 44.3023 19.218 44.3815C19.2027 44.4287 19.1858 44.4742 19.1705 44.5214C19.1434 44.5973 19.1179 44.6715 19.0908 44.7456C19.0756 44.7894 19.0586 44.835 19.0417 44.8788C19.0145 44.9513 18.9874 45.0221 18.9603 45.0945C18.945 45.1333 18.9298 45.1754 18.9145 45.2142C18.8857 45.2884 18.8569 45.3592 18.8281 45.43C18.8145 45.4637 18.801 45.4974 18.7891 45.5294C18.7535 45.6154 18.7196 45.698 18.684 45.7789C18.6772 45.7941 18.6704 45.8109 18.6636 45.8261C18.623 45.9205 18.5823 46.0149 18.5416 46.1025C18.528 46.1329 18.5145 46.1615 18.5026 46.1902C18.4755 46.2492 18.4501 46.3048 18.4246 46.3604C18.4077 46.3975 18.3907 46.4295 18.3755 46.4649C18.3551 46.5087 18.3331 46.5543 18.3111 46.5981C18.2941 46.6352 18.2755 46.6672 18.2602 46.7026L18.2246 46.7717C19.3773 45.3794 20.2825 43.8556 20.9233 42.2341C21.681 40.1406 22.0166 37.7808 21.9217 35.2221L21.9251 35.2204Z" fill="white"/>
<path d="M16.1565 23.583C16.1615 23.5931 16.1649 23.5999 16.17 23.61C16.1785 23.6268 16.187 23.6454 16.1971 23.6656C16.2056 23.6808 16.2124 23.6993 16.2209 23.7162C16.2327 23.7381 16.2429 23.7617 16.2548 23.7853C16.2649 23.8038 16.2734 23.824 16.2836 23.846C16.2971 23.8712 16.309 23.8982 16.3226 23.9252C16.3344 23.9488 16.3463 23.9741 16.3599 23.9993C16.3734 24.0263 16.387 24.0533 16.3989 24.0819C16.4124 24.1072 16.4243 24.1342 16.4378 24.1612C16.4531 24.1932 16.4684 24.2235 16.4836 24.2556C16.4955 24.2775 16.5057 24.3011 16.5175 24.323C16.5362 24.3617 16.5565 24.4022 16.5768 24.4427C16.587 24.4595 16.5955 24.4797 16.604 24.4983C16.626 24.5421 16.648 24.5876 16.6701 24.6331C16.6836 24.6635 16.7006 24.6938 16.7142 24.7225C16.7328 24.7612 16.7514 24.7966 16.7701 24.8354C16.7853 24.8657 16.8006 24.8978 16.8159 24.9264C16.8481 24.9905 16.8803 25.0545 16.9125 25.1186C16.9345 25.1624 16.9566 25.2079 16.9803 25.2517C16.9939 25.2804 17.0108 25.309 17.0244 25.3394C17.0464 25.3815 17.0667 25.4237 17.0888 25.4658C17.104 25.4961 17.121 25.5282 17.1362 25.5568C17.1566 25.5973 17.1786 25.6394 17.2007 25.6799C17.2142 25.7085 17.2312 25.7355 17.2447 25.7641C17.2668 25.8063 17.2888 25.8501 17.3108 25.8906C17.3261 25.9192 17.3414 25.9479 17.3566 25.9748C17.377 26.0136 17.399 26.0541 17.421 26.0928C17.4363 26.1215 17.4532 26.1501 17.4668 26.1788C17.4871 26.2176 17.5075 26.2547 17.5295 26.2917C17.5448 26.3187 17.56 26.3457 17.5736 26.3726C17.5871 26.3962 17.6007 26.4215 17.6143 26.4451C17.6278 26.4198 17.638 26.3962 17.6516 26.3726C17.9719 25.8164 18.3669 25.0798 18.7873 24.2623C18.7975 24.2438 18.806 24.2252 18.8161 24.2067C18.8551 24.1291 18.8958 24.0516 18.9348 23.9724C18.9551 23.9319 18.9772 23.8898 18.9992 23.8476C18.3517 22.452 17.8007 21.5215 17.6194 21.2266C17.4244 21.5013 16.8345 22.3559 16.1514 23.5813H16.1581L16.1565 23.583Z" fill="white"/>
<path d="M13.2236 34.6272C13.2321 34.8429 13.2423 35.0553 13.2592 35.266C13.5288 38.6001 14.5933 42.0016 16.4257 45.3964C16.263 44.9767 16.0952 44.4996 15.9325 43.9754C15.9325 43.9754 15.9325 43.9704 15.9325 43.9687C15.8969 43.8541 15.863 43.7394 15.8291 43.6231C15.8257 43.6113 15.8223 43.6012 15.8189 43.5877C15.785 43.4714 15.7528 43.3501 15.7189 43.2287C15.7189 43.2237 15.7155 43.2186 15.7155 43.2152C15.646 42.9556 15.5765 42.6876 15.5138 42.4095C15.5138 42.4028 15.5104 42.396 15.5087 42.3893C15.4799 42.2646 15.451 42.1381 15.4239 42.0083C15.4171 41.9814 15.4121 41.9544 15.4087 41.9274C15.3849 41.8145 15.3629 41.6999 15.3409 41.5836C15.3341 41.5532 15.329 41.5229 15.3239 41.4926C15.3002 41.3678 15.2781 41.2414 15.2561 41.1133C15.2527 41.0964 15.2493 41.0779 15.2459 41.0594C15.1968 40.7644 15.151 40.461 15.112 40.1492C15.1069 40.1121 15.1018 40.0767 15.0985 40.0396C15.0849 39.9233 15.0696 39.8036 15.0595 39.6856C15.0544 39.6401 15.0493 39.5929 15.0459 39.5457C15.034 39.4311 15.0239 39.3148 15.0137 39.2002C15.0103 39.1547 15.0052 39.1091 15.0018 39.062C14.99 38.9237 14.9815 38.7855 14.973 38.6456C14.973 38.622 14.9696 38.5984 14.9679 38.5748C14.9578 38.4096 14.951 38.2411 14.9459 38.0725C14.9459 38.0371 14.9459 38.0017 14.9425 37.9663C14.9391 37.8348 14.9357 37.7017 14.934 37.5685V37.0494C14.934 36.987 14.934 36.928 14.9374 36.8656C14.9374 36.746 14.9442 36.6246 14.9476 36.5016C14.9476 36.4459 14.951 36.3886 14.9544 36.3347C14.9611 36.1695 14.9696 36.0043 14.9815 35.8391C14.9815 35.8256 14.9815 35.8138 14.9815 35.8004C14.9934 35.6217 15.0086 35.4413 15.0239 35.261C15.029 35.202 15.0357 35.1463 15.0408 35.0874C15.0544 34.9626 15.0662 34.8362 15.0798 34.7081C15.0883 34.639 15.0951 34.5699 15.1052 34.5008C15.1188 34.3811 15.1374 34.2597 15.1527 34.1401C15.1629 34.0693 15.1713 34.0002 15.1832 33.9277C15.2019 33.7979 15.2239 33.6664 15.2476 33.5366C15.2578 33.4759 15.2663 33.4169 15.2781 33.3563C15.312 33.1708 15.3442 32.9871 15.3832 32.8C15.2832 32.6281 15.1849 32.4612 15.0883 32.3011C15.0798 32.2876 15.073 32.2758 15.0662 32.2623C15.0256 32.1949 14.9849 32.1275 14.9459 32.0617C14.9323 32.0381 14.9171 32.0145 14.9035 31.9909C14.8713 31.937 14.8391 31.8847 14.8086 31.8342C14.7916 31.8038 14.773 31.7752 14.7543 31.7465C14.7272 31.7027 14.7001 31.6589 14.673 31.6151C14.6543 31.583 14.634 31.551 14.6136 31.5207C14.5899 31.4819 14.5662 31.4431 14.5424 31.406C14.5238 31.374 14.5035 31.342 14.4831 31.3117C14.4611 31.2763 14.4407 31.2442 14.4187 31.2088C14.3984 31.1751 14.378 31.1431 14.356 31.1111C14.3407 31.0858 14.3255 31.0639 14.3102 31.0386C14.2136 30.8852 14.1204 30.7436 14.0373 30.6138C14.0373 30.6138 14.0339 30.6088 14.0339 30.6071C14.0051 30.5633 13.978 30.5211 13.9508 30.4807C13.9458 30.4739 13.9407 30.4672 13.9373 30.4604C13.9102 30.42 13.8847 30.3795 13.8593 30.3408C13.8559 30.3357 13.8525 30.3306 13.8508 30.3273C13.8254 30.2885 13.8017 30.2531 13.7796 30.2177C13.7762 30.211 13.7712 30.2059 13.7678 30.2009C13.744 30.1655 13.722 30.1317 13.7017 30.0997C13.6796 30.0643 13.6576 30.034 13.6372 30.002C13.3423 31.5274 13.2067 33.0815 13.2338 34.6255H13.2236V34.6272Z" fill="white"/>
<path d="M20.0584 32.0801C20.0856 32.0346 20.1144 31.9874 20.1415 31.9402C20.1754 31.8845 20.2076 31.8272 20.2415 31.7733C20.2686 31.7278 20.2958 31.684 20.3246 31.6385C20.3602 31.5811 20.3924 31.5255 20.428 31.4716C20.4551 31.4294 20.4805 31.3856 20.5076 31.3435C20.5449 31.2845 20.5805 31.2289 20.6161 31.1699C20.6399 31.1311 20.6636 31.0923 20.6873 31.0552C20.7297 30.9878 20.7738 30.9204 20.8162 30.8547C20.8331 30.8294 20.8501 30.8024 20.867 30.7754C20.928 30.6827 20.9874 30.59 21.0467 30.5007C21.0518 30.4939 21.0552 30.4872 21.0603 30.4821C21.1111 30.4046 21.162 30.3288 21.2111 30.2563C21.0687 29.6377 20.9009 29.0039 20.7128 28.3735C20.7026 28.3465 20.6958 28.3212 20.6873 28.2993C20.65 28.36 20.6009 28.4392 20.5432 28.5353C20.5093 28.5892 20.4754 28.6499 20.4348 28.714C20.4263 28.7275 20.4212 28.7376 20.4127 28.7511C20.3975 28.778 20.3788 28.8067 20.3619 28.8353C20.3534 28.8488 20.3466 28.8606 20.3381 28.8741C20.3127 28.9146 20.2873 28.9601 20.2619 29.0039C20.2619 29.0039 20.2619 29.0039 20.2619 29.0073C20.2381 29.046 20.2144 29.0882 20.1907 29.1303C20.1856 29.1387 20.1805 29.1455 20.1771 29.1539C20.1534 29.196 20.1279 29.2399 20.1025 29.2837C20.0974 29.2921 20.0923 29.2989 20.0889 29.309C20.0652 29.3494 20.0415 29.3949 20.0161 29.4371C20.0076 29.4506 20.0025 29.4624 19.994 29.4759C19.9703 29.5163 19.9466 29.5601 19.9228 29.604C19.9127 29.6191 19.9059 29.636 19.8957 29.6512L19.8296 29.7691C19.816 29.7911 19.8042 29.813 19.7906 29.8366C19.772 29.8703 19.7516 29.904 19.733 29.9394C19.716 29.9714 19.6991 30.0018 19.6821 30.0321C19.6669 30.0607 19.6499 30.0911 19.6347 30.1214C19.6143 30.1602 19.594 30.199 19.5702 30.2377C19.5567 30.2613 19.5431 30.2866 19.5312 30.3119C19.5058 30.3574 19.4821 30.4029 19.4567 30.4518C19.4448 30.472 19.4363 30.4923 19.4245 30.5125C19.4007 30.558 19.3753 30.6035 19.3516 30.6524C19.399 30.8091 19.4448 30.9659 19.4923 31.1227C19.5058 31.1648 19.516 31.2086 19.5279 31.2508C19.5618 31.3704 19.594 31.4918 19.6262 31.6132C19.6414 31.6722 19.6567 31.7295 19.6702 31.7885C19.6974 31.893 19.7228 31.9975 19.7482 32.1003C19.7635 32.1644 19.7787 32.2267 19.7923 32.2908C19.8059 32.3515 19.8211 32.4121 19.8347 32.4728C19.8499 32.4458 19.8652 32.4206 19.8804 32.3936C19.9076 32.3481 19.933 32.3043 19.9601 32.2587C19.994 32.2014 20.0262 32.1441 20.0618 32.0885V32.0851L20.0584 32.0801Z" fill="white"/>
<path d="M18.8547 29.6799C18.8005 29.5298 18.7462 29.3815 18.6903 29.2349C18.6581 29.2989 18.6259 29.3647 18.5953 29.427C18.5597 29.4995 18.5241 29.572 18.4885 29.6428C18.436 29.7507 18.3851 29.8568 18.3326 29.9613C18.3055 30.017 18.2783 30.0726 18.2529 30.1265C18.1936 30.2479 18.1377 30.3693 18.08 30.4906C18.0631 30.5294 18.0427 30.5682 18.0258 30.6052C17.9512 30.7637 17.8766 30.9221 17.8054 31.0772C17.7783 31.1328 17.7546 31.1885 17.7308 31.2424L17.7139 31.2812C17.719 31.293 17.7223 31.3014 17.7274 31.3115C17.8122 31.4969 17.8919 31.6806 17.9698 31.861C17.9817 31.888 17.9936 31.9149 18.0054 31.9419C18.0817 32.1256 18.1546 32.306 18.2224 32.4847C18.2292 32.4998 18.236 32.5184 18.2428 32.5352C18.2563 32.5083 18.2699 32.4813 18.2817 32.4526C18.414 32.1695 18.5496 31.8863 18.6869 31.6031C18.7004 31.5761 18.714 31.5509 18.7259 31.5239C18.87 31.2323 19.0191 30.9424 19.1683 30.6524C19.1717 30.6457 19.1751 30.639 19.1785 30.6322C19.1022 30.3844 19.0191 30.1366 18.9344 29.8889C18.9106 29.8181 18.8835 29.749 18.8581 29.6782L18.8547 29.6799Z" fill="white"/>
<path d="M19.0179 24.1678C18.9942 24.215 18.9687 24.2622 18.945 24.3094C18.9077 24.3819 18.8704 24.4526 18.8331 24.5251C18.8094 24.5706 18.7857 24.6161 18.7636 24.6617C18.7263 24.7308 18.6924 24.7999 18.6551 24.8673C18.6314 24.9111 18.6094 24.9566 18.5856 25.0005C18.55 25.0679 18.5161 25.1353 18.4805 25.1994C18.4585 25.2398 18.4382 25.282 18.4161 25.3207C18.3788 25.3881 18.3449 25.4556 18.3076 25.5213C18.289 25.5567 18.2686 25.5938 18.25 25.6292C18.2127 25.6966 18.1788 25.7623 18.1415 25.8264C18.1246 25.8584 18.1059 25.8904 18.0906 25.9191C18.0517 25.9865 18.0161 26.0539 17.9788 26.118C17.9652 26.1416 17.9516 26.1686 17.9381 26.1922C17.8889 26.2815 17.8415 26.3641 17.794 26.4467C17.772 26.4905 17.7482 26.536 17.7262 26.5849L17.7109 26.6186V26.622C17.8025 26.8057 17.894 26.9911 17.9822 27.1749C17.9974 27.2103 18.0144 27.244 18.0296 27.2777C18.1042 27.4361 18.1788 27.5963 18.25 27.7547C18.2805 27.8221 18.3093 27.8912 18.3398 27.9603C18.3958 28.0868 18.4517 28.2132 18.5043 28.3396C18.5382 28.4205 18.5704 28.5014 18.6026 28.5806C18.6382 28.6666 18.6738 28.7526 18.7094 28.8385C18.7246 28.8065 18.7416 28.7762 18.7568 28.7458C18.7704 28.7172 18.7857 28.6885 18.7992 28.6582C18.8314 28.5941 18.8636 28.5334 18.8924 28.4728C18.9077 28.4407 18.9247 28.4104 18.9399 28.38C18.9687 28.3244 18.9959 28.2722 19.023 28.2182C19.0399 28.1845 19.0586 28.1525 19.0738 28.1188C19.1009 28.0665 19.1264 28.0176 19.1518 27.9688C19.1671 27.9384 19.184 27.9081 19.1976 27.8794C19.223 27.8322 19.2467 27.7867 19.2705 27.7395C19.2857 27.7092 19.3027 27.6788 19.3162 27.6502C19.34 27.6047 19.3637 27.5609 19.3857 27.5153C19.3993 27.4901 19.4129 27.4631 19.4247 27.4395C19.4603 27.3738 19.4925 27.3097 19.5247 27.249C19.5383 27.2237 19.5502 27.2018 19.5637 27.1782C19.5824 27.1411 19.6027 27.1057 19.6214 27.0704C19.6349 27.0468 19.6451 27.0265 19.657 27.0046C19.6739 26.9709 19.6926 26.9389 19.7095 26.9085C19.7214 26.89 19.7298 26.8715 19.74 26.8529C19.7553 26.8226 19.7722 26.7922 19.7875 26.7653C19.7977 26.7484 19.8061 26.7299 19.8163 26.713C19.8299 26.6877 19.8434 26.6641 19.8553 26.6405C19.8638 26.6254 19.8705 26.6102 19.8807 26.595C19.8926 26.5748 19.9028 26.5546 19.9146 26.5343C19.9214 26.5209 19.9282 26.5091 19.935 26.4973C19.9451 26.4787 19.9536 26.4619 19.9638 26.4467C19.9689 26.4383 19.9739 26.4315 19.9773 26.4231C19.9858 26.4096 19.9909 26.3961 19.9977 26.3843C20.0028 26.3759 20.0062 26.3708 20.0095 26.3641C20.0146 26.3557 20.018 26.3506 20.0214 26.3456C20.0248 26.3388 20.0282 26.3338 20.0299 26.3304C19.7417 25.5516 19.4264 24.7813 19.084 24.0312C19.0603 24.0768 19.0382 24.1206 19.0162 24.1661H19.0213L19.0179 24.1678Z" fill="white"/>
<path d="M16.8649 45.5275C16.8734 45.5561 16.8801 45.5848 16.8903 45.6118V45.6168C16.8055 45.2612 16.7259 44.8667 16.6598 44.442C16.6276 44.2363 16.597 44.0223 16.5733 43.8048C16.5733 43.7947 16.5733 43.7863 16.5699 43.7762C16.5581 43.67 16.5479 43.5638 16.536 43.4559V43.4492C16.5258 43.3362 16.5174 43.2216 16.5089 43.1053V43.0851C16.5021 42.9823 16.4953 42.8777 16.4936 42.7716C16.4936 42.753 16.4936 42.7328 16.4902 42.7126C16.4801 42.4867 16.4767 42.2558 16.4784 42.0198V41.949C16.4784 41.8512 16.4818 41.7535 16.4869 41.654C16.4869 41.6321 16.4869 41.6102 16.4869 41.5866C16.4919 41.4686 16.4987 41.3472 16.5055 41.2276C16.5055 41.2124 16.5089 41.1955 16.5089 41.1821C16.5174 41.0775 16.5242 40.973 16.5343 40.8668C16.5377 40.8348 16.5411 40.8028 16.5445 40.7725C16.5564 40.6646 16.5682 40.5567 16.5818 40.4471C16.5818 40.4337 16.5852 40.4185 16.5869 40.405C16.6021 40.2836 16.6208 40.1606 16.6411 40.0359C16.6462 40.0055 16.6513 39.9752 16.6564 39.9448C16.6716 39.8471 16.6903 39.7493 16.7089 39.6515C16.7157 39.6195 16.7225 39.5875 16.7276 39.5555C16.753 39.4307 16.7784 39.306 16.8072 39.1796C16.8106 39.1661 16.814 39.1543 16.8174 39.1408C16.8445 39.0262 16.8734 38.9133 16.9039 38.7986C16.914 38.7632 16.9225 38.7295 16.9327 38.6941C16.9615 38.5879 16.992 38.4818 17.0225 38.3756C17.0293 38.352 17.0361 38.3284 17.0429 38.3048C17.0819 38.1767 17.1242 38.0486 17.1683 37.9205C17.1785 37.8918 17.187 37.8648 17.1988 37.8362C17.2361 37.7317 17.2734 37.6272 17.3141 37.521C17.3276 37.4873 17.3395 37.4552 17.3531 37.4215C17.4039 37.2917 17.4565 37.1603 17.5141 37.0305C17.5226 37.0102 17.5311 36.99 17.5412 36.9681C17.4599 36.7861 17.3751 36.599 17.287 36.4119C17.2649 36.3647 17.2429 36.3175 17.2209 36.2703C17.1683 36.159 17.1141 36.0495 17.0615 35.9365C17.0463 35.9888 17.0293 36.0393 17.014 36.0916C16.9988 36.1439 16.9818 36.1978 16.9666 36.25C16.9395 36.3411 16.914 36.4338 16.8886 36.5248C16.875 36.5737 16.8615 36.6226 16.8496 36.6698C16.8225 36.7692 16.7971 36.8687 16.7733 36.9681C16.7632 37.0069 16.7547 37.0456 16.7445 37.0827C16.6784 37.3575 16.6191 37.6288 16.5665 37.8969C16.5581 37.9356 16.553 37.971 16.5462 38.0081C16.5292 38.1025 16.5106 38.1986 16.4953 38.293C16.4869 38.3402 16.4801 38.3874 16.4716 38.4346C16.458 38.5188 16.4445 38.5997 16.4326 38.6823C16.4241 38.7329 16.4191 38.7835 16.4123 38.834C16.4004 38.9116 16.3919 38.9891 16.3818 39.0666C16.375 39.1189 16.3682 39.1695 16.3631 39.22C16.3546 39.2959 16.3462 39.3701 16.3394 39.4442C16.3343 39.4948 16.3292 39.5454 16.3258 39.5959C16.319 39.6718 16.3123 39.7459 16.3072 39.8201C16.3038 39.8673 16.2987 39.9162 16.2953 39.9634C16.2902 40.0409 16.2851 40.1168 16.2817 40.1926C16.2784 40.2348 16.2767 40.2803 16.2733 40.3224C16.2682 40.4101 16.2648 40.4943 16.2631 40.5803C16.2631 40.6123 16.2597 40.6444 16.2597 40.6747C16.2563 40.7893 16.2546 40.9056 16.2529 41.0186V41.3557C16.2529 41.3978 16.2529 41.4399 16.2563 41.4804C16.2563 41.5478 16.2597 41.6186 16.2614 41.686C16.2614 41.7316 16.2648 41.7754 16.2665 41.8209C16.2699 41.8849 16.2716 41.9456 16.275 42.0097C16.2784 42.0552 16.2801 42.1007 16.2834 42.1479C16.2868 42.2086 16.2919 42.2659 16.2953 42.3249C16.2987 42.3704 16.3021 42.4159 16.3072 42.4614C16.3123 42.5204 16.3173 42.576 16.3207 42.6333C16.3258 42.6772 16.3292 42.7227 16.3343 42.7648L16.3529 42.9351C16.358 42.9755 16.3631 43.0193 16.3665 43.0598C16.3733 43.1188 16.3801 43.1744 16.3885 43.2317C16.3936 43.2705 16.3987 43.3076 16.4021 43.3463C16.4123 43.4138 16.4207 43.4795 16.4309 43.5452C16.4343 43.5705 16.4394 43.5975 16.4428 43.6228C16.4563 43.7121 16.4716 43.7998 16.4869 43.8874C16.4936 43.9211 16.5004 43.9531 16.5038 43.9869C16.514 44.0408 16.5225 44.0947 16.5343 44.147C16.5428 44.1858 16.5479 44.2212 16.5564 44.2582C16.5665 44.3054 16.575 44.3526 16.5852 44.3981C16.5937 44.4369 16.6004 44.474 16.6089 44.5111C16.6191 44.5532 16.6276 44.5987 16.6377 44.6392C16.6462 44.6779 16.6547 44.7133 16.6632 44.7504C16.6733 44.7909 16.6818 44.833 16.6937 44.8718C16.7038 44.9089 16.7106 44.9426 16.7208 44.9797C16.731 45.0184 16.7411 45.0589 16.7513 45.096C16.7615 45.1314 16.7683 45.1634 16.7784 45.1971C16.7903 45.2359 16.7988 45.2746 16.8106 45.3117C16.8208 45.3438 16.8276 45.3758 16.8378 45.4061C16.8496 45.4449 16.8598 45.4837 16.8717 45.5207V45.5241L16.8649 45.5275Z" fill="white"/>
<path d="M19.5759 32.0753C19.5471 31.959 19.5183 31.841 19.4877 31.7247C19.4725 31.6606 19.4538 31.5983 19.4369 31.5342C19.4098 31.4365 19.3843 31.337 19.3555 31.2392C19.3369 31.1701 19.3165 31.0993 19.2945 31.0302C19.2775 30.9696 19.2589 30.9122 19.242 30.8516C19.2284 30.8785 19.2131 30.9055 19.2013 30.9325C19.0589 31.2072 18.9182 31.4853 18.7809 31.7635C18.7673 31.7921 18.7521 31.8225 18.7385 31.8528C18.5978 32.1427 18.4605 32.431 18.3266 32.7209C18.3232 32.7276 18.3198 32.7344 18.3164 32.7411C18.3198 32.7512 18.3232 32.7613 18.3283 32.7714C18.413 32.9973 18.4927 33.2248 18.569 33.4507C18.5792 33.4811 18.5893 33.5097 18.5995 33.54C18.6741 33.7642 18.7419 33.9867 18.808 34.2109C18.8148 34.2345 18.8216 34.2581 18.83 34.28C18.8589 34.2244 18.8894 34.1688 18.9199 34.1131C18.9521 34.0541 18.9826 33.9952 19.0131 33.9362C19.064 33.8401 19.1165 33.7457 19.1674 33.6496C19.1945 33.6007 19.2199 33.5518 19.247 33.503C19.3131 33.3833 19.3793 33.2619 19.4454 33.1456C19.4589 33.1237 19.4708 33.1001 19.4844 33.0782C19.5606 32.9417 19.6386 32.8068 19.7149 32.6737C19.681 32.5203 19.6471 32.3652 19.6098 32.2101C19.5979 32.1663 19.5878 32.1208 19.5759 32.077V32.0753Z" fill="white"/>
<path d="M20.4912 27.6552C20.3166 27.1276 20.1709 26.7433 20.0946 26.5444C20.0759 26.5815 20.0522 26.6237 20.0251 26.6709C20.02 26.681 20.0149 26.6877 20.0115 26.6978C20.0064 26.7062 20.0013 26.7147 19.998 26.7231C19.9844 26.7467 19.9725 26.7686 19.959 26.7939C19.959 26.7939 19.9556 26.799 19.9556 26.8023C19.8064 27.0754 19.5877 27.4799 19.3267 27.9873C19.3216 27.9974 19.3148 28.0075 19.3114 28.0176C19.2843 28.0716 19.2555 28.1255 19.2267 28.1811C19.2114 28.2115 19.1945 28.2435 19.1792 28.2738C19.1623 28.3092 19.1419 28.3429 19.125 28.38C19.0978 28.4323 19.0707 28.4879 19.0419 28.5418C19.0334 28.557 19.0266 28.5739 19.0182 28.589C18.9843 28.6548 18.9504 28.7239 18.9148 28.793C18.9114 28.7981 18.9097 28.8031 18.9063 28.8065C18.8673 28.8806 18.83 28.9565 18.791 29.034C18.8842 29.2751 18.9741 29.5212 19.0605 29.7673C19.086 29.8414 19.1097 29.9156 19.1351 29.9898C19.1843 30.1364 19.2351 30.2831 19.2826 30.4314C19.2945 30.4112 19.3046 30.3926 19.3148 30.3707C19.3352 30.3319 19.3538 30.2965 19.3758 30.2595C19.403 30.2106 19.4284 30.1634 19.4538 30.1145C19.4742 30.0774 19.4928 30.0403 19.5148 30.0032C19.5403 29.9577 19.564 29.9139 19.5877 29.8684C19.6064 29.833 19.6267 29.7976 19.6471 29.7622C19.6708 29.7184 19.6945 29.6746 19.7183 29.6324C19.7352 29.6004 19.7539 29.5684 19.7708 29.538C19.7962 29.4942 19.82 29.4504 19.8437 29.4082C19.859 29.3813 19.8759 29.3509 19.8912 29.324C19.9217 29.27 19.9522 29.2178 19.981 29.1672C20.0064 29.1234 20.0302 29.0812 20.0539 29.0408C20.0708 29.0121 20.0878 28.9818 20.1031 28.9548C20.1217 28.9211 20.1403 28.8908 20.159 28.8604C20.1726 28.8368 20.1861 28.8149 20.198 28.793C20.2166 28.7593 20.237 28.7289 20.2539 28.6986C20.2641 28.6818 20.2743 28.6632 20.2844 28.6464C20.3031 28.6143 20.3217 28.584 20.3404 28.5553C20.3488 28.5418 20.3556 28.53 20.3641 28.5166C20.3827 28.4845 20.4014 28.4559 20.4183 28.4272C20.4234 28.4205 20.4268 28.4137 20.4319 28.407C20.4506 28.375 20.4692 28.3463 20.4862 28.3194C20.5607 28.1997 20.6116 28.1188 20.6302 28.0867C20.5862 27.9418 20.5404 27.7951 20.4946 27.6535V27.6502L20.4912 27.6552Z" fill="white"/>
</svg>
