<svg width="152" height="23" viewBox="0 0 152 23" fill="none" xmlns="http://www.w3.org/2000/svg">
<g clip-path="url(#clip0_3375_1727)">
<path d="M3.01918 21.9286H0V3.22607H8.01644V5.89786H3.01918V21.9286Z" fill="white"/>
<path d="M21.1337 21.9286H18.0626L17.542 18.551H13.794L13.2735 21.9286H10.5146L13.5858 3.22607H18.0105L21.1337 21.9286ZM14.2105 15.98H17.1256L15.668 6.50279L14.2105 15.98Z" fill="white"/>
<path d="M30.1914 7.81407C30.1914 6.95708 30.0352 6.40256 29.7749 6.10009C29.5146 5.79763 29.0982 5.64639 28.6297 5.64639C28.1613 5.64639 27.7448 5.79763 27.4845 6.04968C27.2243 6.30173 27.0681 6.80585 27.0681 7.46119V9.47761H24.2051V7.66283C24.2051 6.1505 24.5695 4.99105 25.3503 4.18447C26.1311 3.3779 27.2243 2.97461 28.7338 2.97461C30.2435 2.97461 31.3365 3.3779 32.1174 4.18447C32.8982 4.99105 33.2626 6.1505 33.2626 7.66283V8.16694C33.2626 10.1833 32.5338 11.4437 31.1284 11.9981C31.9092 12.3006 32.4297 12.8048 32.7941 13.4601C33.1065 14.1154 33.2626 14.922 33.2626 15.8798V17.4426C33.2626 18.9549 32.8982 20.1144 32.1174 20.9209C31.3365 21.7275 30.2435 22.1307 28.7338 22.1307C27.2243 22.1307 26.1311 21.7275 25.3503 20.9209C24.5695 20.1144 24.2051 18.9549 24.2051 17.4426V15.0732H27.0681V17.5938C27.0681 18.2492 27.2243 18.7532 27.4845 19.0053C27.7448 19.2574 28.1613 19.4086 28.6297 19.4086C29.0982 19.4086 29.5146 19.2574 29.7749 19.0053C30.0352 18.7028 30.1914 18.1483 30.1914 17.3418V15.8798C30.1914 15.0228 30.0352 14.4179 29.7229 14.0146C29.4105 13.6618 28.89 13.4601 28.2133 13.4601H27.6927V10.7883H28.3174C28.89 10.7883 29.3585 10.6371 29.6708 10.385C29.9832 10.0826 30.1393 9.57844 30.1393 8.82229V7.81407H30.1914Z" fill="white"/>
<path d="M45.8602 14.9733V17.4435C45.8602 18.9558 45.4958 20.1152 44.715 20.9218C43.9342 21.7284 42.841 22.1316 41.3315 22.1316C39.8218 22.1316 38.7288 21.7284 37.9479 20.9218C37.1671 20.1152 36.8027 18.9558 36.8027 17.4435V7.7141C36.8027 6.20177 37.1671 5.04232 37.9479 4.23574C38.7288 3.42916 39.8218 3.02588 41.3315 3.02588C42.841 3.02588 43.9342 3.42916 44.715 4.23574C45.4958 5.04232 45.8602 6.20177 45.8602 7.7141V9.52888H42.9972V7.51245C42.9972 6.85711 42.841 6.353 42.5808 6.10094C42.3205 5.84889 41.904 5.69766 41.4356 5.69766C40.9671 5.69766 40.5507 5.84889 40.2904 6.10094C40.0301 6.353 39.8739 6.85711 39.8739 7.51245V17.5946C39.8739 18.25 40.0301 18.7541 40.2904 19.0062C40.5507 19.2582 40.9671 19.4094 41.4356 19.4094C41.904 19.4094 42.3205 19.2582 42.5808 19.0062C42.841 18.7541 42.9972 18.25 42.9972 17.5946V14.9228H45.8602V14.9733Z" fill="white"/>
<path d="M48.8799 3.22607H58.2498V5.89786H55.0745V21.9286H52.0553V5.89786H48.8799V3.22607Z" fill="white"/>
<path d="M66.006 3.22607C67.5156 3.22607 68.6608 3.62937 69.3896 4.38553C70.1183 5.19211 70.4827 6.30115 70.4827 7.81348V10.2332C70.4827 11.7456 70.1183 12.9049 69.3896 13.6612C68.6608 14.4677 67.5156 14.8206 66.006 14.8206H64.5485V21.8277H61.5293V3.22607H66.006ZM64.6006 5.89786V12.2496H66.058C66.5266 12.2496 66.8909 12.1488 67.1512 11.8968C67.4115 11.6447 67.5156 11.191 67.5156 10.4853V7.66224C67.5156 7.0069 67.4115 6.50279 67.1512 6.25073C66.8909 5.99868 66.5266 5.89786 66.058 5.89786H64.6006Z" fill="white"/>
<path d="M73.6055 7.7141C73.6055 6.20177 74.0219 5.04232 74.8028 4.23574C75.5836 3.42916 76.7288 3.02588 78.2383 3.02588C79.748 3.02588 80.8931 3.42916 81.6739 4.23574C82.4548 5.04232 82.8712 6.20177 82.8712 7.7141V17.4435C82.8712 18.9558 82.4548 20.1152 81.6739 20.9218C80.8931 21.7284 79.748 22.1316 78.2383 22.1316C76.7288 22.1316 75.5836 21.7284 74.8028 20.9218C74.0219 20.1152 73.6055 18.9558 73.6055 17.4435V7.7141ZM76.6247 17.645C76.6247 18.3004 76.7808 18.8045 77.0411 19.0566C77.3014 19.3087 77.7178 19.4598 78.1863 19.4598C78.6548 19.4598 79.0712 19.3087 79.3315 19.0566C79.5918 18.8045 79.7479 18.3004 79.7479 17.645V7.56287C79.7479 6.90752 79.5918 6.40341 79.3315 6.15136C79.0712 5.89931 78.6548 5.74807 78.1863 5.74807C77.7178 5.74807 77.3014 5.89931 77.0411 6.15136C76.7808 6.40341 76.6247 6.90752 76.6247 7.56287V17.645Z" fill="white"/>
<path d="M89.7942 21.9288H86.6709V3.2263H89.3777V14.4175L92.501 3.2263H96.3007V21.9288H93.5942V8.36822L89.7942 21.9288ZM94.8436 0V2.16767H88.1805V0H94.8436Z" fill="white"/>
<path d="M103.432 21.9286H100.413V3.22607H109.991V21.9286H106.921V5.89786H103.484V21.9286H103.432Z" fill="white"/>
<path d="M118.581 3.22607C120.09 3.22607 121.235 3.62937 121.964 4.38553C122.692 5.19211 123.057 6.30115 123.057 7.81348V10.2332C123.057 11.7456 122.692 12.9049 121.964 13.6612C121.235 14.4677 120.09 14.8206 118.581 14.8206H117.123V21.8277H114.104V3.22607H118.581ZM117.175 5.89786V12.2496H118.633C119.101 12.2496 119.465 12.1488 119.726 11.8968C119.986 11.6447 120.09 11.191 120.09 10.4853V7.66224C120.09 7.0069 119.986 6.50279 119.726 6.25073C119.465 5.99868 119.101 5.89786 118.633 5.89786H117.175Z" fill="white"/>
<path d="M126.181 7.7141C126.181 6.20177 126.598 5.04232 127.379 4.23574C128.159 3.42916 129.304 3.02588 130.814 3.02588C132.323 3.02588 133.469 3.42916 134.249 4.23574C135.03 5.04232 135.447 6.20177 135.447 7.7141V17.4435C135.447 18.9558 135.03 20.1152 134.249 20.9218C133.469 21.7284 132.323 22.1316 130.814 22.1316C129.304 22.1316 128.159 21.7284 127.379 20.9218C126.598 20.1152 126.181 18.9558 126.181 17.4435V7.7141ZM129.2 17.645C129.2 18.3004 129.357 18.8045 129.617 19.0566C129.877 19.3087 130.293 19.4598 130.762 19.4598C131.23 19.4598 131.647 19.3087 131.907 19.0566C132.168 18.8045 132.323 18.3004 132.323 17.645V7.56287C132.323 6.90752 132.168 6.40341 131.907 6.15136C131.647 5.89931 131.23 5.74807 130.762 5.74807C130.293 5.74807 129.877 5.89931 129.617 6.15136C129.357 6.40341 129.2 6.90752 129.2 7.56287V17.645Z" fill="white"/>
<path d="M145.702 16.4842L147.783 3.22607H152V21.9286H149.137V8.51923L147.055 21.9286H144.192L141.953 8.72088V21.9286H139.299V3.22607H143.515L145.702 16.4842Z" fill="white"/>
</g>
<defs>
<clipPath id="clip0_3375_1727">
<rect width="152" height="23" fill="white"/>
</clipPath>
</defs>
</svg>
