<svg width="162" height="28" viewBox="0 0 162 28" fill="none" xmlns="http://www.w3.org/2000/svg">
<path d="M132.51 23.959C131.286 26.2612 128.867 27.8328 126.084 27.833C124.731 27.833 123.464 27.4595 122.378 26.8135C122.985 26.9021 123.605 26.9502 124.236 26.9502C127.379 26.9501 130.262 25.8255 132.51 23.959ZM123.961 1.06934V3.54199H124.929L125.029 3.6416V4.61133H127.053V3.6416L127.152 3.54199H128.12V1.67676H128.229L128.251 1.61035C130.847 2.45241 133.09 3.74733 134.683 5.73242C136.276 7.71866 137.213 10.3868 137.213 13.96C137.213 17.9788 135.381 21.5746 132.51 23.959C133.051 22.9412 133.359 21.7813 133.359 20.5498V20.4336L133.33 20.4629V20.1445C133.243 19.1621 132.955 18.2663 132.608 17.3994C131.309 14.3648 126.777 9.01765 126.055 5.37598C125.333 9.01764 120.829 14.3359 119.529 17.3994C119.154 18.2375 118.865 19.1626 118.808 20.1162V20.5498C118.808 23.2126 120.243 25.5433 122.378 26.8135C116.098 25.8966 111.26 20.4137 111.26 13.96C111.26 6.88274 116.875 1.14451 123.858 0.969727L123.961 1.06934Z" fill="white"/>
<path fill-rule="evenodd" clip-rule="evenodd" d="M122.936 25.9832C121.319 24.5381 120.309 22.5438 120.309 20.3184C120.309 18.0929 120.309 20.2317 120.309 20.2028C120.309 20.1739 120.309 20.2028 120.309 20.1738C120.309 20.1449 120.309 20.116 120.309 20.0871C120.309 20.0871 120.309 20.0871 120.309 20.0582C120.309 20.0293 120.309 20.0004 120.309 19.9715C120.309 19.9426 120.309 19.9715 120.309 19.9426C120.309 19.9137 120.309 19.8848 120.309 19.827C120.395 18.7576 120.742 17.775 121.175 16.8501C121.637 15.8674 122.416 14.6824 123.34 13.3818C122.734 14.2778 122.214 15.116 121.897 15.8385C121.521 16.6767 121.233 17.5438 121.146 18.4975C121.146 18.5264 121.146 18.5553 121.146 18.5842C121.146 18.5842 121.146 18.5842 121.146 18.6131C121.146 18.6131 121.146 18.6709 121.146 18.6998C121.146 18.6998 121.146 18.6998 121.146 18.7287V18.8154C121.146 18.8154 121.146 18.8154 121.146 18.8443V18.96C121.146 21.1276 122.185 23.093 123.831 24.3936C123.369 24.8849 123.051 25.463 122.936 26.0121V25.9832Z" fill="white"/>
<path fill-rule="evenodd" clip-rule="evenodd" d="M2.88719 14.8844V18.7573H6.03422C7.21796 18.7573 8.02638 18.6128 8.45945 18.2948C8.86366 17.9769 9.09464 17.5434 9.09464 16.9653C9.09464 16.3873 8.86366 15.7804 8.37284 15.4046C7.88202 15.0289 7.07361 14.8266 5.9476 14.8266H2.91606L2.88719 14.8844ZM2.88719 9.10396V12.2832H5.9476C6.64053 12.2832 7.16022 12.1387 7.50668 11.8497C7.85314 11.5606 8.02638 11.156 8.02638 10.6358C8.02638 10.1155 7.85315 9.79761 7.53555 9.50859C7.21796 9.21957 6.72714 9.10396 6.06309 9.10396H2.88719ZM0 21.503V6.35825H4.8216C6.20745 6.35825 7.21796 6.44496 7.85315 6.61837C8.74817 6.84959 9.46997 7.31202 10.0185 7.94787C10.5671 8.61262 10.8269 9.36408 10.8269 10.26C10.8269 11.156 10.7115 11.3583 10.4516 11.8208C10.2206 12.2832 9.81643 12.7456 9.26787 13.1503C10.1918 13.5838 10.8558 14.1329 11.2889 14.7688C11.722 15.4046 11.9241 16.185 11.9241 17.081C11.9241 17.9769 11.6931 18.6995 11.26 19.422C10.8269 20.1157 10.2495 20.6359 9.55658 20.9827C8.86366 21.3296 7.91089 21.503 6.6694 21.503H0ZM36.8405 21.503L32.6541 10.3467L28.381 21.503H25.3206L31.1527 6.35825H34.0688L39.9009 21.503H36.8116H36.8405ZM60.3133 19.1041C57.455 19.1041 55.1452 16.7919 55.1452 13.9306C55.1452 11.0693 57.455 8.75713 60.3133 8.75713C63.1716 8.75713 63.7202 9.682 64.6441 11.0982H67.7334C66.6074 8.09238 63.6913 5.95361 60.2844 5.95361C56.8776 5.95361 52.3447 9.50858 52.3447 13.9017C52.3447 18.2948 55.8959 21.8498 60.2844 21.8498C64.673 21.8498 66.5785 19.7111 67.7334 16.7052H64.6441C63.7202 18.1214 62.1322 19.0752 60.3133 19.0752V19.1041ZM76.828 19.1041C73.9697 19.1041 71.66 16.7919 71.66 13.9306C71.66 11.0693 73.9697 8.75713 76.828 8.75713C79.6863 8.75713 80.2349 9.682 81.1588 11.0982H84.2481C83.1221 8.09238 80.206 5.95361 76.828 5.95361C73.45 5.95361 68.8883 9.50858 68.8883 13.9017C68.8883 18.2948 72.4395 21.8498 76.828 21.8498C81.2165 21.8498 83.1221 19.7111 84.277 16.7052H81.1877C80.2638 18.1214 78.6758 19.0752 76.8569 19.0752L76.828 19.1041ZM84.6234 6.35825H96.2299V9.19066H91.8414V21.503H88.9253V9.19066H84.6234V6.35825ZM100.705 12.2832H104.054C104.776 12.2832 105.267 12.2254 105.556 12.1387C105.844 12.0231 106.046 11.8786 106.22 11.6184C106.393 11.3872 106.451 11.0982 106.451 10.7514C106.451 10.1733 106.22 9.7398 105.758 9.47968C105.44 9.27737 104.805 9.19066 103.939 9.19066H100.676V12.3121L100.705 12.2832ZM97.8178 6.35825H103.304C104.949 6.35825 106.162 6.50275 106.884 6.82068C107.605 7.1386 108.183 7.62994 108.616 8.29469C109.049 8.98834 109.251 9.79761 109.251 10.7514C109.251 11.7051 108.962 12.6878 108.414 13.3815C107.865 14.0751 107.115 14.5665 106.162 14.8555C105.613 15 102.149 15.0867 100.676 15.0867V21.503H97.789V6.35825H97.8178ZM24.1946 9.19066V6.35825H13.4832V21.503H24.1946V18.6706H16.3415V14.6821H18.1027L20.0948 11.9075H16.3415V9.16176H24.1946V9.19066ZM51.9116 9.19066V6.35825H41.2001V21.503H51.9116V18.6706H44.0585V14.6821H45.8196L47.8118 11.9075H44.0585V9.16176H51.9116V9.19066Z" fill="white"/>
<path fill-rule="evenodd" clip-rule="evenodd" d="M151.404 6.35848V21.5032H148.517V12.0233L141.616 21.5032H139.104V6.35848H141.992V16.1563L148.979 6.35848H151.404ZM150.451 0L144.128 3.52606V8.81517L150.451 0.0288951V0ZM159.344 1.06938C160.787 1.06938 162 2.25437 162 3.72838C162 5.20239 160.816 6.38738 159.344 6.38738C157.871 6.38738 156.687 5.20239 156.687 3.72838C156.687 2.25437 157.871 1.06938 159.344 1.06938ZM159.344 1.44511C158.102 1.44511 157.092 2.45668 157.092 3.69948C157.092 4.94227 158.102 5.95384 159.344 5.95384C160.585 5.95384 161.596 4.94227 161.596 3.69948C161.596 2.45668 160.585 1.44511 159.344 1.44511ZM159.863 3.00583C159.863 2.91912 159.863 2.83241 159.806 2.7746C159.777 2.7168 159.719 2.659 159.661 2.6012C159.604 2.57229 159.546 2.54339 159.459 2.51448C159.373 2.51448 159.286 2.51448 159.17 2.51448H158.708V3.64167H159.113C159.228 3.64167 159.344 3.64168 159.43 3.61277C159.517 3.61277 159.604 3.55496 159.661 3.49716C159.719 3.43935 159.777 3.38155 159.806 3.29485C159.806 3.20814 159.834 3.12143 159.834 3.00583H159.863ZM160.787 5.17349L159.661 3.84399C159.863 3.75728 160.008 3.67057 160.123 3.52606C160.239 3.38155 160.296 3.20814 160.296 2.97692C160.296 2.7457 160.268 2.6879 160.21 2.57229C160.152 2.45668 160.065 2.36998 159.95 2.31217C159.863 2.25437 159.748 2.19656 159.632 2.19656C159.517 2.19656 159.373 2.16766 159.17 2.16766H158.333V5.17349H158.737V3.9885H159.315L160.325 5.17349H160.845H160.787Z" fill="white"/>
</svg>
