<svg width="156" height="53" viewBox="0 0 156 53" fill="none" xmlns="http://www.w3.org/2000/svg">
<path fill-rule="evenodd" clip-rule="evenodd" d="M67.6386 51.9427L67.4769 51.8614V40.3125L67.6386 40.2312C68.7704 39.6619 70.1987 39.3095 71.5999 39.3095C75.4804 39.3095 77.744 41.9391 77.744 46.087C77.744 50.2348 75.4804 52.8645 71.5999 52.8645C67.7195 52.8645 68.7704 52.5391 67.6386 51.9427ZM70.01 41.6951V50.5059C70.4142 50.6685 70.9801 50.777 71.6269 50.777C73.8366 50.777 75.2109 49.2317 75.2109 46.087C75.2109 42.9422 73.8366 41.3969 71.6269 41.3969C71.0071 41.3969 70.4412 41.5054 70.01 41.668V41.6951ZM39.6131 39.5806H42.1461V50.4246H46.7811V52.6205H39.6131V39.5806ZM48.8022 39.5806H51.3353V52.6205H48.8022V39.5806ZM80.4118 39.5806H88.1458V41.6138H82.918V44.8399H87.3913V46.846H82.918V50.5601H88.2536V52.5933H80.4118V39.5535V39.5806ZM121.992 46.0598C121.992 48.9606 123.124 50.777 125.118 50.777C127.112 50.777 128.244 48.9606 128.244 46.0598C128.244 43.1591 127.112 41.3969 125.118 41.3969C123.097 41.3969 121.992 43.1862 121.992 46.0598ZM119.459 46.087C119.459 42.2373 121.399 39.1739 125.118 39.1739C128.837 39.1739 130.777 42.2102 130.777 46.087C130.777 49.9637 128.837 53 125.118 53C121.399 53 119.459 49.9366 119.459 46.087ZM111.294 46.1954C113.018 46.1954 114.716 45.4092 114.716 43.6471C114.716 41.8849 113.962 41.2885 112.183 41.2885C110.405 41.2885 110.836 41.3969 110.297 41.5867V52.6205H107.818V40.3125L107.979 40.2312C109.03 39.6619 110.755 39.3095 112.183 39.3095C115.444 39.3095 117.195 40.9632 117.195 43.5657C117.195 46.1683 115.579 46.8731 114.528 47.1985L117.707 52.6205H114.716L111.294 46.1683V46.1954ZM94.3438 46.1141C94.3438 42.1289 96.6613 39.3366 100.73 39.3366C104.799 39.3366 103.479 39.6619 104.395 40.2583L104.638 40.3939L103.802 42.2645L103.506 42.0747C102.886 41.6951 101.943 41.3969 100.892 41.3969C98.332 41.3969 96.9038 43.2133 96.9038 46.087C96.9038 48.9606 98.332 50.8312 100.65 50.8312C102.967 50.8312 101.997 50.7228 102.401 50.5601V47.1442H100.003V45.1923H104.826V51.8614L104.665 51.9427C103.695 52.5391 102.293 52.8645 100.73 52.8645C96.7152 52.8645 94.3977 50.1263 94.3977 46.087L94.3438 46.1141ZM133.445 48.31V39.5806H135.978V48.3371C135.978 49.801 136.921 50.6957 138.376 50.6957C139.831 50.6957 140.775 49.801 140.775 48.3371V39.5806H143.308V48.31C143.308 51.1023 141.314 52.8916 138.376 52.8916C135.439 52.8916 133.445 51.1023 133.445 48.31ZM149.021 41.6409V45.7074C149.398 45.7616 149.883 45.7887 150.341 45.7887C152.551 45.7887 153.467 44.867 153.467 43.5657C153.467 42.2644 152.605 41.3427 150.745 41.3427C150.152 41.3427 149.452 41.4783 149.021 41.6409ZM149.021 47.6864V52.6205H146.514V40.3125L146.676 40.2312C147.754 39.689 149.317 39.3095 150.745 39.3095C154.033 39.3095 156 40.9089 156 43.5386C156 46.1683 153.898 47.7407 150.422 47.7407C146.946 47.7407 149.425 47.7136 149.021 47.6593V47.6864ZM64.3241 52.6205V43.3217C64.3241 41.4511 63.6504 39.2824 59.743 39.3095C57.668 39.3095 55.8895 39.7703 54.7307 40.3125V52.5933H57.2638V41.8307C57.8297 41.5867 58.692 41.3969 59.5543 41.424C61.5754 41.4511 61.791 42.5355 61.791 43.7555V52.5933H64.3241V52.6205ZM24.2259 39.5806H31.9599V41.6138H26.7321V44.8399H31.2054V46.846H26.7321V50.5601H32.0677V52.5933H24.2259V39.5535V39.5806ZM5.79375 52.6205H3.26067V41.7765H0V39.5806H9.05441V41.7765H5.79375V52.6205ZM18.2705 46.9816H13.5008V52.6205H10.9677V39.5806H13.5008V44.9754H18.2705V39.5806H20.8036V52.6205H18.2705V46.9816ZM53.6258 26.4322C48.3441 26.4322 45.0026 24.8598 45.0026 22.5555C45.0026 19.2481 50.2304 17.5401 56.4015 17.5401C62.5725 17.5401 61.7371 17.8655 64.6474 18.3534C65.8062 17.1877 66.938 15.9407 68.0159 14.7207C70.1987 12.3079 73.3785 8.81074 76.0733 6.72327C81.1394 2.81943 87.6338 0 94.4516 0C101.269 0 109.758 2.90076 109.758 7.21125C109.758 11.5217 107.333 11.8199 103.021 11.9826L102.886 11.1964C103.802 10.7627 104.907 10.0307 104.907 7.67212C104.907 5.31355 101.485 1.54526 95.2061 1.54526C88.9273 1.54526 85.6666 4.41892 81.7862 8.48542C79.7381 10.6 77.5554 13.2568 75.5612 15.3171C74.0791 16.8624 72.4623 18.2721 70.8185 19.5192C77.6362 20.9018 84.8582 22.5284 91.5412 22.5284C98.2242 22.5284 101.539 20.7391 103.156 19.2481L103.587 19.8987C101.862 23.4501 96.6613 26.4864 90.0052 26.4864C83.3491 26.4864 73.8635 24.0737 67.1805 22.0404C62.5186 24.8598 57.6949 26.4864 53.6258 26.4864V26.4322ZM62.303 20.5765C59.3388 19.7903 56.5901 19.2481 54.057 19.2481C51.5239 19.2481 49.2334 20.4138 49.2334 22.2031C49.2334 23.9923 50.8233 24.887 53.6258 24.887C56.4284 24.887 59.4735 23.0706 62.2761 20.5765H62.303Z" fill="white"/>
</svg>
