<svg width="124" height="39" viewBox="0 0 124 39" fill="none" xmlns="http://www.w3.org/2000/svg">
<path d="M8.47852 13.9326V20.2713L29.9229 24.449V18.1104L8.47852 13.9326Z" fill="white"/>
<path d="M0.0205797 18.6249L6.40037 19.8597V6.37979H18.2544V0H0V18.6249M6.40037 28.7502H0.0205797V38.3817H18.275V31.9401H6.42096V28.7502H6.40037ZM20.1478 0V6.37979H31.9607V9.56969H38.4022V0H20.1478ZM31.9607 31.899L20.1478 31.9401V38.3817H38.4022V19.7568L31.9607 18.5014V31.899ZM58.797 15.4556H52.7671C52.0674 15.4556 51.9233 15.4967 51.9233 16.1141V16.3611C51.9233 16.7315 52.1291 16.8138 52.6436 16.9167C52.6436 16.9167 56.4715 17.6165 56.9036 17.6988C59.188 18.131 59.6408 19.0159 59.6408 20.8887V22.4939C59.6408 24.8606 58.5706 25.9925 55.2161 25.9719C52.6436 25.9719 48.4864 25.6632 48.4864 25.6632L48.5276 22.9261H54.7839C55.8541 22.9261 56.2039 22.7409 56.2039 21.9383V21.362C56.2039 21.0739 56.1422 20.8064 55.71 20.724C55.2573 20.6211 52.3761 20.1066 52.0674 20.0655C49.5772 19.6333 48.4041 19.4481 48.4041 17.0608V15.8466C48.4041 13.4593 49.536 12.4097 52.9111 12.4097C55.4836 12.4097 58.8382 12.7184 58.8382 12.7184L58.797 15.4556ZM69.8485 22.8438H65.0945L64.2301 25.869H60.464C60.464 25.869 64.2713 13.8503 64.5388 13.0477C64.6829 12.5332 64.7446 12.5126 65.4238 12.5126H69.5192C70.1983 12.5126 70.2601 12.5332 70.4041 13.0477C70.6511 13.8503 74.4584 25.869 74.4584 25.869H70.7128L69.8485 22.8438ZM65.8354 19.9626H69.087L67.7493 15.188H67.1936L65.8354 19.9626ZM76.0636 12.5332H79.5005V25.8896H76.0636V12.5332ZM85.5098 25.8896H82.073V12.5332H89.7699C92.3424 12.5332 93.6389 13.9944 93.6389 15.9906V18.522C93.6389 20.4977 92.3218 22 89.7699 22H85.5098V25.8896ZM90.2021 17.8223V16.6698C90.2021 15.8054 89.8316 15.3321 88.8438 15.3321H85.5098V19.1394H88.8438C89.8316 19.16 90.2021 18.666 90.2021 17.8223ZM95.7381 12.5332H105.822V15.3527H99.1749V17.6782H104.814V20.58H99.1749V22.8849H105.802V25.869H95.7381V12.5332ZM118.911 12.6978C118.911 12.6978 118.952 12.5332 119.138 12.5332H123.48V25.8896H120.043V18.6455H119.858L117.512 25.6427C117.512 25.6427 117.45 25.8896 117.224 25.8896H114.466C114.219 25.8896 114.157 25.6427 114.157 25.6427L111.811 18.6455H111.626V25.8896H108.23V12.5332H112.573C112.758 12.5332 112.799 12.6978 112.799 12.6978L115.783 20.6417H115.927L118.911 12.6978Z" fill="white"/>
</svg>
