<svg width="151" height="41" viewBox="0 0 151 41" fill="none" xmlns="http://www.w3.org/2000/svg">
<mask id="mask0_3375_1779" style="mask-type:luminance" maskUnits="userSpaceOnUse" x="0" y="0" width="151" height="41">
<path d="M0 0H151V40.3938H0V0Z" fill="white"/>
</mask>
<g mask="url(#mask0_3375_1779)">
<path d="M2.899 28.7523V37.0174H0.000976562V15.482C2.20478 15.3658 3.59649 15.3658 4.05984 15.3658C10.3225 15.3658 13.4539 17.4609 13.4539 21.6513C13.4539 26.5411 10.6704 28.9856 5.21987 28.9856C4.7557 28.8694 4.05984 28.8694 2.90064 28.7523M2.90064 18.0427V26.0753C4.17691 26.1916 4.75652 26.1916 4.87276 26.1916C8.46827 26.1916 10.3233 24.6779 10.3233 21.8847C10.3233 19.2077 8.35203 17.9265 4.52484 17.9265C4.17691 17.9265 3.59649 18.0427 2.90064 18.0427ZM28.2984 29.4514H16.9323C16.9323 31.3139 17.3965 32.7105 18.4403 33.7575C19.3678 34.6892 20.5278 35.0387 21.9195 35.0387C23.5429 35.0387 24.8192 34.5729 25.9784 33.6421L27.1384 35.6208C26.6742 36.0866 26.0946 36.4353 25.1671 36.7849C24.0071 37.2507 22.847 37.3662 21.4553 37.3662C19.484 37.3662 17.7444 36.6687 16.3527 35.3883C14.8447 33.8746 14.0335 31.8959 14.0335 29.3344C14.0335 26.7728 14.8447 24.6787 16.3527 23.0488C17.7444 21.6513 19.484 20.953 21.3399 20.953C23.5429 20.953 25.3988 21.5351 26.6742 22.8155C27.9505 23.9796 28.5301 25.6095 28.5301 27.7053C28.5301 28.2865 28.4139 28.8686 28.2984 29.4506M21.4553 23.2805C20.1799 23.2805 19.1361 23.63 18.324 24.4446C17.5127 25.2591 17.0485 26.1908 16.9323 27.3549H25.7475C25.7475 26.1908 25.3996 25.2594 24.7037 24.5608C23.8916 23.7463 22.847 23.2805 21.4553 23.2805ZM32.3573 23.5146H30.5014V21.3026H32.3573V18.0427L35.1407 16.9949V21.4188H39.4321V23.6308H35.1407V31.4301C35.1407 32.7105 35.3727 33.6418 35.8366 34.2242C36.3007 34.8054 36.9966 35.0387 38.0404 35.0387C38.7362 35.0387 39.5475 34.8054 40.2434 34.4567L40.7075 36.9012C39.5475 37.2507 38.272 37.367 36.8803 37.367C35.6049 37.367 34.5611 36.9012 33.749 35.9695C32.9369 35.0387 32.4735 33.8738 32.4735 32.478V23.5138L32.3573 23.5146ZM51.6087 23.9796C51.0291 23.5138 50.4495 23.2813 49.7536 23.2813C48.7098 23.2813 47.8977 23.7471 47.2019 24.6779C46.506 25.6087 46.0427 26.6574 46.0427 27.9378V37.0174H43.2593V21.3026H46.0427V23.7471C47.0862 21.8844 48.5939 20.953 50.5657 20.953C51.0291 20.953 51.7249 21.0693 52.7687 21.1864L51.6087 23.9796ZM53.5808 29.1019C53.5808 26.6574 54.2767 24.6779 55.5521 23.165C56.8284 21.6513 58.568 20.953 60.771 20.953C62.9748 20.953 64.8307 21.6513 65.9899 23.165C67.2662 24.5616 67.8458 26.6574 67.8458 29.1019C67.8458 31.6626 67.1499 33.6421 65.8745 35.155C64.5982 36.6687 62.8586 37.367 60.6556 37.367C58.4518 37.367 56.7121 36.6687 55.4367 35.155C54.2767 33.6421 53.5808 31.6626 53.5808 29.1019ZM56.5959 29.1019C56.5959 33.0598 57.9876 35.0387 60.771 35.0387C62.0473 35.0387 63.0911 34.4567 63.7869 33.4096C64.4828 32.3617 64.9461 30.9643 64.9461 29.1019C64.9461 25.1437 63.5544 23.2813 60.771 23.2813C59.4955 23.2813 58.4518 23.7471 57.7559 24.795C56.9438 25.8428 56.5959 27.3565 56.5959 29.1019ZM79.2111 17.3444C78.6315 17.1119 78.0519 16.9957 77.5877 16.9957C76.7756 16.9957 76.0798 17.3444 75.5002 17.9265C74.9206 18.6248 74.6881 19.3239 74.6881 20.371C74.6881 20.6043 74.6881 20.953 74.8043 21.1864H77.9356V23.5146H74.8043V36.9012H72.0209V23.6308H69.7008V21.3026H72.0201C72.0201 19.3239 72.4843 17.694 73.528 16.5299C74.5718 15.3658 75.8473 14.7837 77.4706 14.7837C78.2828 14.7837 79.2103 14.8999 80.1386 15.2495L79.2111 17.3444ZM90.5772 35.2712C89.4172 36.6687 87.6776 37.367 85.4738 37.367C84.1983 37.367 83.1545 36.9012 82.227 36.0866C81.2987 35.155 80.8353 34.1071 80.8353 32.7105C80.8353 31.0814 81.5312 29.8002 82.9229 28.6361C84.3146 27.5882 86.1696 27.007 88.2572 27.007C88.8376 27.007 89.5335 27.1232 90.2293 27.3557C90.2293 24.795 89.0696 23.5146 86.75 23.5146C85.0104 23.5146 83.6187 23.9796 82.6904 24.9112L81.5312 22.583C81.9945 22.1172 82.8066 21.7684 83.7341 21.4188C84.5885 21.1054 85.4921 20.9476 86.4021 20.953C88.7214 20.953 90.3447 21.4189 91.3885 22.4667C92.4323 23.5146 92.8965 25.1437 92.8965 27.4719V33.1763C92.8965 34.5729 93.2444 35.5045 94.1719 35.9695V37.367C93.0127 37.367 92.2006 37.2507 91.621 36.9012C91.2731 36.5524 90.8089 35.9687 90.5772 35.2712ZM90.3447 29.3352C89.4172 29.1027 88.8376 28.9865 88.4897 28.9865C87.098 28.9865 85.9382 29.3357 85.0104 30.0343C84.0821 30.7326 83.6187 31.5472 83.6187 32.5951C83.6187 34.2242 84.5462 35.0395 86.5176 35.0395C87.9093 35.0395 89.1855 34.3412 90.3447 33.0609V29.3352ZM109.365 22.583L107.974 24.4454C107.626 24.2129 107.161 23.8642 106.466 23.6308C105.793 23.4019 105.088 23.2838 104.378 23.2813C102.87 23.2813 101.595 23.8633 100.783 24.9112C99.855 25.9591 99.3908 27.4719 99.3908 29.3344C99.3908 31.1971 99.8547 32.5942 100.783 33.5259C101.711 34.4567 102.986 35.0387 104.61 35.0387C105.886 35.0387 107.161 34.5729 108.437 33.525L109.481 35.8533C107.973 36.7849 106.118 37.2507 103.914 37.2507C101.711 37.2507 99.9712 36.5524 98.5795 35.0387C97.1878 33.6421 96.492 31.6626 96.492 29.2181C96.492 26.6574 97.1878 24.6787 98.695 23.165C100.203 21.6513 102.174 20.8368 104.726 20.8368C105.538 20.8368 106.466 20.953 107.393 21.3026C108.205 21.8838 108.901 22.1172 109.365 22.583Z" fill="white"/>
<path d="M135.111 0.931624C135.111 4.77273 132.095 8.38134 128.849 12.2233C125.137 16.7627 121.194 21.5354 121.194 27.356C121.194 34.2245 126.877 39.6955 134.763 40.2776L136.039 40.3938L137.314 40.2776C145.317 39.8118 150.884 34.457 150.884 27.356C150.884 21.5354 146.941 16.8789 143.229 12.2233C139.982 8.38134 136.966 4.65648 136.966 0.931624C136.966 0.582333 136.85 0.349291 136.619 0.232497C136.387 0.116248 136.155 0 135.923 0C135.691 0 135.111 0.349564 135.111 0.931624ZM134.879 40.0443C127.225 39.463 121.542 34.2237 121.542 27.4723C121.542 21.7687 125.369 17.1122 129.08 12.5728C132.328 8.61465 135.343 4.88898 135.343 1.04787C135.343 0.58206 135.691 0.465812 136.039 0.465812C136.155 0.465812 136.387 0.465812 136.503 0.58206C136.619 0.698308 136.735 0.814557 136.735 1.04787C136.735 5.00523 139.75 8.7309 142.997 12.572C146.708 17.1122 150.536 21.7687 150.536 27.4723C150.536 34.457 145.085 39.6947 137.314 40.0443H134.879Z" fill="white"/>
<path d="M135.228 0.931915C135.344 0.000290945 136.967 -0.115957 136.967 0.931915C136.967 9.19601 150.768 16.6464 150.769 27.3557C150.769 34.3404 145.202 39.6955 137.315 40.1614H134.765C127.11 39.5785 121.311 34.3405 121.311 27.3557C121.311 16.6464 135.227 9.19601 135.228 0.931915ZM133.14 15.4827C132.56 15.4827 130.241 15.5989 128.965 15.4827C129.197 16.5303 129.776 17.4614 130.24 18.2766C130.936 19.4407 131.748 20.0227 133.14 20.0227H135.923C136.503 20.0227 139.054 19.9064 139.635 20.2552C140.446 20.721 140.446 21.885 140.446 22.6995C140.331 24.3294 139.17 25.6096 137.547 25.6096L138.358 20.9534H132.676L129.081 37.135H135.227C135.789 34.5393 136.331 31.9385 136.852 29.3343C138.243 29.3343 139.402 29.4513 140.794 29.218C142.766 28.8693 144.39 28.1704 145.897 25.9593C147.057 24.3293 147.404 21.303 146.477 19.3235C145.549 17.3448 143.577 15.8322 141.374 15.5989C140.33 15.4827 139.171 15.4827 138.127 15.4827H133.14Z" fill="white"/>
<path d="M133.139 15.3662H128.616L128.732 15.5987C128.964 16.6466 129.545 17.6945 130.008 18.3928C130.704 19.4406 131.516 20.1389 133.024 20.1389H136.155C136.966 20.1389 139.054 20.1389 139.402 20.3714C139.866 20.6048 140.098 21.3031 140.098 22.2339V22.7005C139.982 24.3296 139.054 25.3775 137.662 25.4937C137.662 25.1442 138.474 20.9535 138.474 20.9535H132.328L128.732 37.4837H135.227C135.227 37.4837 136.735 30.034 136.851 29.6844H137.547C138.706 29.6844 139.634 29.6844 140.678 29.5682C142.997 29.2186 144.505 28.287 145.897 26.192C147.173 24.3296 147.404 21.3031 146.477 19.3236C145.433 17.2278 143.345 15.715 141.142 15.4825C140.098 15.3662 138.939 15.3662 137.895 15.3662H133.139ZM129.892 15.715H138.01C139.054 15.715 140.214 15.715 141.258 15.832C143.345 16.0645 145.317 17.4611 146.245 19.4406C147.173 21.3031 146.941 24.2134 145.665 25.9595C144.273 27.9382 142.881 28.869 140.678 29.2186C139.634 29.3348 138.706 29.3348 137.547 29.3348H136.503V29.4511C136.503 29.4511 134.995 36.7854 134.879 37.1341H129.08C129.197 36.6691 132.56 21.6518 132.56 21.4193H138.01C137.895 21.7681 137.199 26.0758 137.199 26.0758H137.431C139.054 26.0758 140.33 24.7954 140.446 22.9322C140.562 21.5356 140.214 20.721 139.634 20.2552C139.17 20.0227 137.662 20.0227 136.155 20.0227H133.024C131.632 20.0227 130.936 19.3236 130.24 18.3928C129.776 17.6945 129.312 16.8791 129.08 15.9483H129.892V15.715Z" fill="white"/>
</g>
</svg>
