<svg width="72" height="75" viewBox="0 0 72 75" fill="none" xmlns="http://www.w3.org/2000/svg">
<path d="M36.6937 0C17.2676 0 1.52148 15.7789 1.52148 35.2425C1.52148 38.9275 2.08558 42.4781 3.13192 45.8168L4.75511 44.1524C3.96847 41.3159 3.54857 38.3285 3.54857 35.2425C3.54857 16.9004 18.388 2.03083 36.6936 2.03083C55.0005 2.03083 69.8413 16.9004 69.8413 35.2425C69.8413 44.1469 66.3422 52.232 60.6489 58.1955L62.2085 59.4985C68.1949 53.1801 71.8682 44.6415 71.8682 35.2425C71.8683 15.7789 56.1199 0 36.6937 0ZM7.38912 50.7031L6.33766 52.9936C8.67077 57.0172 11.7819 60.5319 15.464 63.3363V60.7378C12.1586 57.9647 9.40474 54.5591 7.3892 50.7031H7.38912Z" fill="white"/>
<path fill-rule="evenodd" clip-rule="evenodd" d="M53.1086 60.7054L56.7844 57.1495L60.2069 60.7054H55.6436V64.3883H60.4602V67.0549H55.6436V70.8646H60.2069L56.7844 74.1668L53.1086 70.3571V60.7054ZM43.2224 60.7054L47.0247 57.1495L50.5738 60.7054V70.3571L48.1654 73.0238L45.5039 70.2303H48.2921V60.9593H45.3762V74.1668H43.2223L43.2224 60.7054ZM33.0816 60.8323L36.7573 57.1495L40.433 60.7054V70.6109L36.6307 74.1668L33.0816 70.6109V60.8323ZM9.74688 61.3678C11.1678 62.3151 18.134 67.5044 11.1539 74.04H0L4.56331 70.1033C4.56331 70.1033 6.78156 70.8647 8.80889 68.77C8.80889 68.77 10.2663 65.9753 8.36566 64.5152C8.36566 64.5152 6.84383 62.7365 3.92899 61.2129C3.92899 61.2129 -0.253273 59.3086 1.5207 53.3386C1.5207 53.3386 2.7882 44.1955 14.1964 39.2418L14.8661 38.9999C15.2095 38.988 6.46392 44.83 4.56331 52.9581C4.56331 52.9581 3.99231 54.8 4.56331 57.3398C4.56331 57.3398 4.56331 59.0538 6.78156 60.1968C6.78156 60.1968 8.74557 61.0226 9.37981 61.1495L9.74688 61.3678ZM17.871 74.1668H20.407V5.08013L17.871 7.36514V74.1668ZM22.3077 4.94576V74.1668H24.9693L24.9747 45.7192V44.5763L28.0118 74.1668H30.4201V2.15869H28.0118C28.0118 2.15869 27.9485 34.416 28.0118 34.416L24.5893 3.55544L22.3077 4.94576ZM35.2366 61.086H38.1515V70.3571H35.2367L35.2366 61.086ZM63.1218 60.5774L66.5442 57.1495L70.3466 61.086V64.2613H68.1916V60.8323H65.1501V70.2303H68.0649V67.3087H70.3465V70.4839L66.6709 74.1668L63.1218 70.6109V60.5774ZM35.4898 33.146L35.3632 31.8762V30.9869L35.2999 30.3525L35.6165 29.9718L36.1241 29.8449V33.146C36.1241 33.146 37.0739 32.8923 37.8981 32.9557L38.7223 33.2095L38.9123 33.5912L38.7857 33.9718L38.4058 34.2256L37.8348 34.4794C37.8348 34.4794 36.504 34.9246 37.3272 36.3213L37.0739 36.6385L36.6307 36.702L36.0608 36.6385C36.0608 36.6385 35.6798 36.5751 35.6798 37.1472V41.973L35.6164 42.544V43.1161L35.3632 43.4333L35.1732 43.1161L35.0466 42.6708V38.0999C35.0466 38.0999 35.2999 37.0837 34.54 37.2105C34.54 37.2105 34.2224 36.8288 34.6656 36.6385C34.6656 36.6385 35.2365 36.3213 35.4265 35.8772C35.4265 35.8772 35.4899 35.7493 35.4265 35.1783C35.4265 35.1783 35.5532 34.2256 34.4757 34.9246C34.4757 34.9246 33.2082 35.6859 32.9549 37.0203C32.9549 37.0203 32.3851 37.3375 32.4484 35.8138C32.4484 35.8138 32.6384 34.7977 33.0182 34.1622C33.0182 34.1622 33.7158 33.4009 33.6525 34.3525C33.6525 34.3525 33.7158 34.9246 34.2857 34.416C34.2857 34.416 34.9833 33.7181 35.3632 33.5277L35.4898 33.146ZM35.7432 34.7342C35.7432 34.7342 35.7432 34.2256 36.4407 34.2256C36.4407 34.2256 36.8206 34.6074 36.2508 34.988L35.8709 35.1149L35.7432 34.7342ZM40.8773 32.9557C40.8773 32.9557 42.5247 32.1299 43.2223 31.8127C43.2223 31.8127 44.0454 31.6224 44.8697 31.8762C44.8697 31.8762 45.6939 31.9396 45.8205 33.2729C45.8205 33.2729 46.0738 35.8138 46.1371 36.6385C46.1371 36.6385 46.2638 37.1472 46.0105 37.7816C46.0105 37.7816 45.9472 38.6074 45.6939 39.0515L45.3129 39.8773C45.3129 39.8773 45.0597 40.6397 44.4898 40.3213C44.4898 40.3213 43.9821 39.9407 44.6164 39.2418C44.6164 39.2418 45.3129 38.7977 45.2496 37.9719C45.2496 37.9719 45.1862 35.5589 45.0597 35.3052L44.7431 33.5277C44.7431 33.5277 44.8064 32.1934 43.3489 32.5116L42.2081 32.9557L41.6371 33.2095L41.2572 33.4009L40.8773 33.3364V32.9557ZM39.6732 34.7342L39.4199 35.4955V36.8923C39.4199 36.8923 39.6099 37.7181 38.9757 37.9085L38.9123 38.4171V38.9246L39.1656 39.3063L39.5455 39.0515L39.8632 38.7343L39.9265 38.1622V35.4321L40.0531 35.0514L39.9898 34.7342H39.6732ZM41.194 34.6707L42.1438 34.6074C42.1438 34.6074 42.2714 33.9718 42.0171 33.5912C42.0171 33.5912 42.8413 33.8449 43.0313 34.5429V35.4321C43.0313 35.4321 42.778 36.0676 43.6022 35.7493C43.6022 35.7493 44.6164 34.6708 44.0454 35.8138C44.0454 35.8138 43.6022 36.1944 43.2856 36.5751C43.2856 36.5751 43.0946 37.0837 43.6022 37.4644L43.7288 38.2267L43.9821 38.5439L43.9188 38.8611L43.6022 38.988L43.6656 39.3063L44.1721 39.4966L43.6023 39.6235L43.4122 39.8773L42.5246 39.9408L41.8915 39.7504L41.3205 39.6869L40.814 39.6235L40.9406 39.3697C40.9406 39.3697 42.5247 38.5439 42.778 37.7182C42.778 37.7182 43.0313 36.5751 42.3981 36.0041C42.3981 36.0041 41.8915 36.702 41.4472 37.2106C41.4472 37.2106 42.0815 37.3375 42.3981 37.2741C42.3981 37.2741 41.8282 37.845 41.0039 38.2902C41.0039 38.2902 40.1798 38.5439 40.4963 37.845C40.4963 37.845 41.1939 37.3375 41.2572 36.702L41.0673 36.4482L41.0039 35.8773L41.3205 35.7493L41.2572 35.4321L40.7507 35.4955V35.2418L40.8773 34.8611L41.194 34.6707ZM43.2223 33.7181L43.5389 34.0987L43.9821 34.0353L43.9188 33.6546L43.6655 33.4009L43.3489 33.2095L43.0945 33.273L43.2223 33.7181ZM49.4962 33.0192C49.4962 33.0192 50.5738 32.4482 53.2353 32.1298L53.6785 32.0665L53.2353 32.5751L52.8554 33.0192L52.4111 33.3364L51.7145 33.5277L50.9537 33.6546L50.1927 33.4009L49.7495 33.0826L49.4962 33.0192ZM50.5105 34.1621L50.0028 34.4794L49.6229 34.7977L49.4329 35.1783L49.3696 36.0041L49.1163 36.7654L48.8631 37.5912L48.5454 38.3536L48.2921 38.9246L47.9756 39.6235L47.7211 40.0676L47.4045 40.6397L46.9613 41.3375L46.5814 41.8461L46.2638 42.4171L45.9472 42.8622L45.5673 43.3698L45.1863 43.8139L44.8064 44.3225L44.4898 44.7666L44.2365 45.2752L44.9963 44.7031L45.5039 44.1956L45.8839 43.687L46.1371 43.3064L46.4537 42.8622L46.7714 42.2902L47.088 41.9095L47.3412 41.401L47.6578 40.83L47.9111 40.3213L48.1655 39.9407L48.3555 39.56L48.5454 39.2418L48.6721 38.988L48.8631 38.7343L49.1797 39.0515L49.4962 39.3064C49.4962 39.3064 50.4471 39.4966 50.5105 38.7343V38.3536L50.2561 38.1622C50.2561 38.1622 50.3195 37.2106 51.017 37.3375L51.7146 37.4644C51.7146 37.4644 52.7921 37.2106 52.4111 38.1622L51.9679 38.6708C51.9679 38.6708 51.5236 39.4966 52.792 38.988L53.6152 38.7343L54.1229 38.4805L53.6152 38.3536C53.6152 38.3536 52.9187 38.2901 53.3619 37.3375L53.7418 36.8288L54.1229 36.4482C54.1229 36.4482 54.5661 35.5589 53.4886 36.0041L52.982 36.2579C52.982 36.2579 52.2211 37.0203 51.398 36.8288L50.7638 36.7654L50.3194 36.8289C50.3194 36.8289 49.5596 36.702 49.9395 35.8138L50.1927 35.4321L50.3194 34.988L50.3838 34.6708L50.6371 34.4794L50.5105 34.1621ZM58.5584 32.6385L58.2418 32.8923L57.9885 33.2095L57.6076 33.9718L57.3543 34.289L57.0377 34.6074L56.7844 34.988L56.4044 35.3052L56.1501 35.6224L55.8968 35.8773H55.5169L55.2637 36.0676L55.2003 36.3848L55.6436 36.4483L56.0868 36.3848C56.0868 36.3848 56.7844 36.2579 56.9744 35.6859C56.9744 35.6859 57.4176 35.2418 57.4809 35.8138V37.0203C57.4809 37.0203 57.672 37.5912 57.101 37.9719L56.6577 38.4171L56.3411 38.7343H57.101C57.101 38.7343 58.0519 38.6074 58.2418 37.401V36.3848L58.1784 35.9407C58.1784 35.9407 58.2418 35.3052 57.7986 35.1149C57.7986 35.1149 57.291 34.9246 57.7986 34.416L57.9885 33.9718L58.2418 33.5277L58.5584 33.2095L59.0027 32.9557L59.3193 32.7654L59.1926 32.5116L58.8761 32.5751L58.5584 32.6385ZM60.7134 34.1622C60.7134 34.1622 61.03 35.1149 59.7625 35.3687L59.4459 35.4321V35.7493H59.8891L60.1436 35.8138L60.2069 36.6385V37.4643C60.2069 37.4643 60.2069 38.988 61.7909 38.9246L63.0584 38.8611H63.6926C63.6926 38.8611 64.8324 38.7977 66.0376 37.7182L66.8618 37.0837L67.304 36.5116C67.304 36.5116 68.1282 35.9408 67.6216 35.1149L67.3684 34.5429L67.4317 33.4643L67.304 32.702L67.114 32.3847L66.9874 32.7654L66.8618 33.2729V34.416L66.7974 35.1149L66.8618 35.6224V36.131L66.7341 36.4482L66.4808 36.8288L66.1009 37.2106L65.5932 37.5278L65.0867 37.9085L64.7068 38.0999L64.1992 38.2902L63.6293 38.3536H62.9951L62.4885 38.2267C62.4885 38.2267 61.0933 37.845 60.9678 36.702V35.4955L61.3477 35.1149L62.0443 34.5429L62.805 33.9718L63.3117 33.5912L63.756 33.2729L64.0725 32.9557L63.8193 32.6385L63.375 32.702L63.0584 32.8288L62.805 33.146L62.3608 33.5277C62.3608 33.5277 61.6643 34.0353 61.411 33.5913L61.3477 33.146L61.03 33.4009L60.7767 33.6546L60.7133 34.1621" fill="white"/>
</svg>
