<svg width="156" height="20" viewBox="0 0 156 20" fill="none" xmlns="http://www.w3.org/2000/svg">
<path d="M4.22506 4.87781C4.22506 3.56455 5.0693 2.90793 6.28875 2.90793C7.88342 2.90793 8.35244 4.5026 8.25863 5.72205H11.917C12.1046 2.3451 10.3223 0.0938041 6.28875 0.0938041C2.06757 0.0938041 0.285289 2.3451 0.285289 5.44064C0.285289 11.0689 8.25863 11.2565 8.25863 14.6334C8.25863 15.9467 7.32059 16.6033 6.10114 16.6033C4.31886 16.6033 3.75604 15.1025 3.84984 13.414H0.00387692C-0.0899271 16.8847 1.50474 19.5112 6.28875 19.5112C9.10287 19.5112 12.1984 18.198 12.1984 14.0706C12.2922 8.16095 4.22506 8.44237 4.22506 4.87781ZM54.6916 4.87781C54.6916 3.56455 55.5359 2.90793 56.7553 2.90793C58.35 2.90793 58.819 4.5026 58.7252 5.72205H62.3836C62.5712 2.3451 60.7889 0.0938041 56.7553 0.0938041C52.5341 0.0938041 50.7519 2.3451 50.7519 5.44064C50.7519 11.0689 58.7252 11.2565 58.7252 14.6334C58.7252 15.9467 57.7872 16.6033 56.5677 16.6033C54.7854 16.6033 54.2226 15.1025 54.3164 13.414H50.4705C50.3767 16.8847 51.9713 19.5112 56.7553 19.5112C59.5695 19.5112 62.665 18.198 62.665 14.0706C62.665 8.16095 54.6916 8.44237 54.6916 4.87781ZM38.9326 13.6954L36.0246 0.375216H29.646V19.136H33.4919V4.6902L36.9627 19.136H40.9024L44.3732 4.6902V19.136H48.2192V0.375216H41.9343L38.9326 13.6954ZM73.3587 13.9768C73.3587 16.3219 71.8578 16.6971 70.9197 16.6971C69.9817 16.6971 68.4808 16.2281 68.4808 13.9768V0.375216H64.5411V13.6954C64.5411 17.1661 66.6986 19.4174 70.9197 19.4174C75.1409 19.4174 77.2984 17.1661 77.2984 13.6954V0.375216H73.3587V13.9768ZM102.532 2.81412C104.595 2.81412 104.877 4.31499 104.877 6.09726H108.817C109.004 2.15749 106.659 0 102.813 0C96.4345 0 96.153 4.87781 96.153 9.56801C96.153 16.6971 97.5601 19.5112 103.188 19.5112C106.284 19.5112 108.817 18.5732 108.817 18.5732V9.38041H102.719V12.2883H104.877V16.6033C104.877 16.6033 104.033 16.8847 102.907 16.7909C100.843 16.6971 100.093 15.2901 100.093 9.84943C100.093 6.19107 100.093 2.81412 102.532 2.81412ZM90.1496 13.883L85.4594 0.375216H80.3002V19.136H83.9585V5.62824L88.5549 19.136H93.8079V0.375216H90.1496V13.883ZM139.491 15.9467C140.335 14.4458 140.804 12.6635 140.898 10.5999H138.177C138.177 11.1627 137.99 12.4759 137.614 13.6016C136.77 12.5697 135.926 11.5379 135.363 10.6937C137.052 9.2866 137.896 8.06715 137.99 6.75389C138.083 5.81585 137.708 4.97162 137.145 4.40879C136.395 3.65836 135.269 3.18934 133.862 3.18934C131.799 3.18934 130.204 4.31499 129.829 6.09726C129.547 7.69193 130.298 8.81758 131.423 10.2246C129.266 11.8193 128.234 13.2264 128.234 15.0086C128.234 16.6971 129.36 19.5112 133.487 19.5112C134.988 19.5112 136.489 19.0422 137.614 18.1042L138.365 19.136H141.836L139.491 15.9467ZM133.862 5.53444C134.613 5.53444 134.988 6.00346 134.988 6.75389C134.988 7.41052 134.613 7.97335 133.675 8.72378C133.018 7.87954 132.643 7.31672 132.643 6.66009C132.643 5.90966 133.206 5.53444 133.862 5.53444ZM133.768 16.7909C132.643 16.7909 131.517 16.1343 131.517 14.821C131.517 13.6954 132.08 13.0388 133.112 12.2883C133.956 13.414 135.082 14.7272 136.02 15.9467C135.176 16.6971 134.331 16.7909 133.768 16.7909ZM18.1081 0.375216L12.9488 19.136H16.7948L17.8266 15.0086H22.9859L24.0177 19.136H28.0513L22.8921 0.375216H18.1081ZM18.4833 12.1007L20.3594 4.50259L22.2354 12.1007H18.4833ZM116.227 19.136H127.296V16.1343H120.167V11.3503H126.077V8.25476H120.167V3.47075H127.296V0.375216H116.227V19.136Z" fill="white"/>
<path d="M146.057 0.375L140.897 19.1358H144.743L145.775 15.0084H150.934L151.966 19.1358H156L150.841 0.375H146.057ZM146.526 12.1005L148.402 4.50238L150.278 12.1005H146.526Z" fill="white"/>
</svg>
