<svg width="140" height="21" viewBox="0 0 140 21" fill="none" xmlns="http://www.w3.org/2000/svg">
<mask id="mask0_3375_1685" style="mask-type:luminance" maskUnits="userSpaceOnUse" x="0" y="0" width="140" height="21">
<path d="M140 0H0V21H140V0Z" fill="white"/>
</mask>
<g mask="url(#mask0_3375_1685)">
<path d="M137.357 9.34375L137.143 9.55793V18.3177H2.85721V9.55793L2.64303 9.34375H0.341126L0.126953 9.55793V20.7028L0.340438 20.917H139.659L139.873 20.7021V9.55793L139.659 9.34375H137.357Z" fill="white"/>
<path d="M37.4362 9.6447H34.8675L34.6783 9.83392C34.4495 11.5037 33.1402 12.7347 31.1856 12.7347C28.4671 12.7347 26.8597 10.5257 26.8597 7.59857C26.8597 4.67078 28.4671 2.46245 31.1856 2.46245C33.1333 2.46245 34.2672 3.66712 34.6568 5.34381L34.6579 5.34159L34.8679 5.55161H37.436L37.6453 5.34159C37.1559 2.13238 34.7792 0.0703125 31.1853 0.0703125C26.7943 0.0703125 23.8665 3.20674 23.8665 7.59843C23.8665 11.9894 26.7943 15.1258 31.1853 15.1258C34.7757 15.1258 37.2038 12.9522 37.6481 9.85602L37.4362 9.6447ZM48.1368 11.0767C47.5511 11.8717 46.5704 12.2696 45.1952 12.2696H42.5793V2.84714H45.2763C45.8959 2.84714 46.4387 2.96567 46.9038 3.20133C47.3689 3.437 47.7598 3.77039 48.0765 4.20222C48.3933 4.63335 48.629 5.14904 48.7842 5.7486C48.9388 6.34885 49.0171 7.00594 49.0171 7.71987C49.0171 9.16228 48.7239 10.2817 48.1368 11.0767ZM51.5443 4.76781C51.2476 3.86535 50.8227 3.08696 50.2703 2.43265C49.7179 1.77902 49.0504 1.2668 48.2685 0.895975C47.4867 0.525147 46.6106 0.34008 45.6402 0.34008H39.8608L39.6473 0.553565V14.5833L39.8608 14.7967H45.3976C46.3139 14.7967 47.1228 14.6755 47.8242 14.4329C48.525 14.1903 49.1447 13.8465 49.6839 13.4022C50.4526 12.7548 51.0286 11.9424 51.4126 10.9651C51.7973 9.98852 51.9886 8.90652 51.9886 7.71987C51.9886 6.65522 51.8403 5.67097 51.5443 4.76781ZM137.356 0.339386H126.505L126.291 0.553565V2.59276L126.505 2.80694H130.462V14.5833L130.676 14.7967H133.18L133.394 14.5826V2.80694H137.352L137.566 2.59207V0.548713L137.356 0.339386ZM124.861 0.339386H114.01L113.796 0.553565V2.59276L114.01 2.80694H117.967V14.5833L118.181 14.7967H120.685L120.899 14.5826V2.80694H124.857L125.071 2.59207V0.548713L124.861 0.339386ZM64.7332 12.5642L64.5191 12.3507H56.9688V8.70204H62.9803L63.1945 8.48786V6.43134L62.9803 6.21785H56.9688V2.80694H64.4581L64.6722 2.59276V0.553565L64.4581 0.34008H54.251L54.0368 0.553565V14.5833L54.251 14.7967H64.5191L64.7332 14.5826V12.5642ZM70.1341 6.72938V2.70505H73.2629C74.7788 2.70505 75.6619 3.3656 75.6619 4.70682C75.6619 6.00714 74.8204 6.72938 73.2206 6.72938H70.1341ZM74.8759 9.17822V8.90097C76.9317 8.58282 78.8544 7.41073 78.8544 4.82812C78.8544 3.53473 78.3595 2.52345 77.5347 1.69446C76.6683 0.825274 75.3895 0.339386 73.6781 0.339386H73.2338H67.4157L67.2022 0.553565V8.99454V14.5833L67.4157 14.7967H69.92L70.1341 14.5833V9.00702C70.4592 9.00758 70.7885 9.00813 71.108 9.00924L76.059 14.6236L76.4292 14.7969H79.49V14.3886L74.8759 9.17822ZM96.9438 14.5826V0.553565L96.729 0.339386H93.0866L92.8426 0.51059L89.3859 9.33765H89.0414L85.5855 0.51059L85.3408 0.339386H81.6984L81.4842 0.554258V14.5826L81.6984 14.7967H83.9996L84.2138 14.5826V4.64444H84.4258L88.3719 14.6262L88.6165 14.7967H89.8115L90.0555 14.6262L94.0015 4.64444H94.2136V14.5826L94.4278 14.7967H96.729L96.9438 14.5826ZM21.96 14.5826V0.553565L21.7458 0.339386H18.1034L17.8594 0.51059L14.4027 9.33765H14.0582L10.6023 0.51059L10.3576 0.339386H6.71516L6.50098 0.554258V14.5826L6.71516 14.7967H9.01636L9.23054 14.5826V4.64444H9.44264L13.3887 14.6262L13.6333 14.7967H14.8276L15.0723 14.6262L19.0183 4.64444H19.2304V14.5826L19.4446 14.7967H21.7458L21.96 14.5826ZM106.318 2.46245C103.64 2.46245 101.815 4.60285 101.815 7.59857C101.815 10.5943 103.64 12.7347 106.318 12.7347C108.996 12.7347 110.822 10.5943 110.822 7.59857C110.822 4.60285 108.996 2.46245 106.318 2.46245ZM106.318 15.126C101.927 15.126 98.8222 11.9896 98.8222 7.59857C98.8222 3.20757 101.927 0.0711435 106.318 0.0711435C110.709 0.0711435 113.814 3.20757 113.814 7.59857C113.814 11.9896 110.709 15.126 106.318 15.126Z" fill="white"/>
</g>
</svg>
