<svg width="79" height="79" viewBox="0 0 79 79" fill="none" xmlns="http://www.w3.org/2000/svg">
<path d="M39.4069 0C55.5959 0 69.5051 9.72046 75.5709 23.6158H59.1848C54.562 17.8221 47.4177 14.1065 39.4069 14.1065C25.468 14.1065 14.1621 25.368 14.1621 39.256C14.1621 53.144 25.468 64.4055 39.4069 64.4055C49.5004 64.4055 58.2104 58.5117 62.2493 49.9915H35.7176L49.8872 35.8813H78.68C78.7729 36.9926 78.825 38.1187 78.825 39.256C78.825 60.9381 61.1819 78.512 39.4069 78.512C17.632 78.512 0 60.9344 0 39.256C0 17.5776 17.6431 0 39.4069 0Z" fill="#E80004"/>
</svg>
