<svg width="86" height="78" viewBox="0 0 86 78" fill="none" xmlns="http://www.w3.org/2000/svg">
<path d="M71.5031 13.6694H39.8355C37.7343 13.6694 35.7148 14.5029 34.2198 15.9847L15.5614 34.5106C13.1143 36.9444 13.1143 40.8971 15.5614 43.3272L34.2198 61.8531C35.7148 63.3349 37.7343 64.1684 39.8355 64.1684H71.5031L85.2227 77.8378H39.8355C34.1045 77.8378 28.5929 75.5707 24.5354 71.5365L5.86585 53.0106C-1.95528 45.235 -1.95528 32.6028 5.86585 24.8309L24.5354 6.30497C28.5929 2.26342 34.1045 0 39.8355 0H85.2227L71.5031 13.6694Z" fill="#E80004"/>
<path d="M70.3352 32.0171H30.7683V45.4087H70.3352V32.0171Z" fill="#E80004"/>
</svg>
