<svg width="75" height="78" viewBox="0 0 75 78" fill="none" xmlns="http://www.w3.org/2000/svg">
<path d="M59.1848 13.6694H22.8312C17.7993 13.6694 13.7232 17.7332 13.7232 22.7416V22.975L13.7344 23.2046C13.9761 27.9982 17.9592 31.8138 22.8312 31.8138H51.4864C64.2352 31.8138 74.5667 42.0899 74.589 54.7813C74.6113 67.3061 64.5811 77.5118 52.0814 77.8267H52.0703L51.505 77.8341H5.98022V64.1647H51.7244C56.7972 64.0313 60.8769 59.8898 60.8658 54.8073C60.8546 49.7359 56.786 45.6128 51.7244 45.4832H51.4752H22.8312C10.417 45.4832 0.316118 35.6182 0 23.3269V22.7416C0 10.1798 10.2162 0 22.8312 0H72.9043L59.1848 13.6694Z" fill="#E80004"/>
</svg>
