<svg width="200" height="54" viewBox="0 0 200 54" fill="none" xmlns="http://www.w3.org/2000/svg">
<g clip-path="url(#clip0_3408_446)">
<path d="M34.4593 6.94917H19.1979C18.1852 6.94917 17.212 7.35466 16.4915 8.07553L7.49946 17.0881C6.32012 18.2722 6.32012 20.1951 7.49946 21.3773L16.4915 30.3899C17.212 31.1108 18.1852 31.5163 19.1979 31.5163H34.4593L41.0712 38.1662H19.1979C16.4359 38.1662 13.7797 37.0633 11.8243 35.1008L2.82692 26.0881C-0.942306 22.3054 -0.942306 16.16 2.82692 12.3791L11.8243 3.36648C13.7797 1.40032 16.4359 0.299194 19.1979 0.299194H41.0712L34.4593 6.94917Z" fill="#E80004"/>
<path d="M33.8007 22.3216H14.8398V15.8789H33.8007V22.3216Z" fill="white"/>
<path d="M152.878 6.94917H135.358C132.933 6.94917 130.969 8.92615 130.969 11.3627V11.4762L130.974 11.5879C131.091 13.9199 133.011 15.7762 135.358 15.7762H149.168C155.312 15.7762 160.291 20.7754 160.302 26.9496C160.313 33.0427 155.479 38.0076 149.455 38.1608H149.45L149.177 38.1644H127.238V31.5144H149.283C151.728 31.4496 153.694 29.4348 153.688 26.9622C153.683 24.495 151.722 22.4892 149.283 22.4261H149.163H135.358C129.376 22.4261 124.508 17.627 124.355 11.6474V11.3627C124.355 5.25154 129.279 0.299194 135.358 0.299194H159.49L152.878 6.94917Z" fill="#E80004"/>
<path d="M79.0949 33.3273C79.0949 38.404 72.6175 40.4945 69.6746 36.3694L51.3446 10.9391V38.3049H44.5195V5.23162C44.5195 0.194577 50.8894 -1.90314 53.8646 2.09406L53.9345 2.18957L72.2645 27.919V0.106271H79.0931V33.3273H79.0949Z" fill="#E80004"/>
<path d="M102.534 0.149536C110.336 0.149536 117.039 4.87841 119.963 11.6383H112.066C109.838 8.81974 106.395 7.01217 102.534 7.01217C95.8167 7.01217 90.3681 12.4907 90.3681 19.2471C90.3681 26.0034 95.8167 31.4819 102.534 31.4819C107.399 31.4819 111.596 28.6147 113.543 24.4697H100.756L107.585 17.6053H121.461C121.506 18.1459 121.531 18.6938 121.531 19.2471C121.531 29.7951 113.028 38.3446 102.534 38.3446C92.0403 38.3446 83.543 29.7933 83.543 19.2471C83.543 8.7008 92.0457 0.149536 102.534 0.149536Z" fill="#E80004"/>
<path d="M181.273 28.139L192.457 0.299194H200.003L185.89 35.0863C185.129 36.9678 183.31 38.1987 181.284 38.1987C179.259 38.1987 177.438 36.966 176.678 35.0791L162.641 0.299194H170.089L181.273 28.139Z" fill="#E80004"/>
<path d="M33.8965 15.8752H14.8281V22.3901H33.8965V15.8752Z" fill="#E80004"/>
<path d="M188.262 48.051H189.391L192.617 52.3095V48.051H193.63V53.8432H192.581L189.269 49.4531V53.8432H188.262V48.051Z" fill="white"/>
<path d="M181.527 53.9999C179.727 53.9999 178.492 52.7943 178.492 50.9867C178.492 49.1792 179.808 47.9735 181.527 47.9735C183.245 47.9735 184.561 49.1701 184.561 50.9867C184.561 52.8033 183.326 53.9999 181.527 53.9999ZM181.527 52.9979C182.742 52.9979 183.512 52.1455 183.512 50.9867C183.512 49.8279 182.742 48.9755 181.527 48.9755C180.311 48.9755 179.541 49.8442 179.541 50.9867C179.541 52.1293 180.311 52.9979 181.527 52.9979Z" fill="white"/>
<path d="M173.465 48.051H174.494V53.8432H173.465V48.051Z" fill="white"/>
<path d="M164.636 49.6567C164.636 48.507 165.729 47.9735 166.945 47.9735C167.882 47.9735 168.819 48.2781 169.398 48.8962L168.617 49.6171C168.283 49.226 167.674 48.9917 166.943 48.9917C166.151 48.9917 165.728 49.2729 165.728 49.6567C165.728 50.1181 166.281 50.3614 167.038 50.4875C168.409 50.7146 169.543 51.1832 169.543 52.342C169.543 53.5007 168.375 54.0017 167.009 54.0017C165.643 54.0017 164.72 53.5404 164.172 52.6862L164.984 52.0446C165.398 52.6465 166.088 52.9763 167.009 52.9763C167.771 52.9763 168.395 52.7564 168.395 52.3113C168.395 51.8878 167.871 51.5904 166.898 51.4499C165.763 51.2859 164.634 50.8552 164.634 49.6567H164.636Z" fill="white"/>
<path d="M159.301 48.051H160.33V53.8432H159.301V48.051Z" fill="white"/>
<path d="M149.574 48.051H150.743L152.497 52.6934L154.247 48.051H155.415L153.087 53.8432H151.902L149.574 48.051Z" fill="white"/>
<path d="M140.937 48.0511H142.142L143.658 48.0583C145.255 48.0745 145.956 48.7305 145.956 49.7884C145.956 50.6336 145.502 51.2355 144.498 51.4392L146.187 53.8415H144.941L143.378 51.5167L142.219 51.5239H141.927V53.8415H140.934V48.0493L140.937 48.0511ZM142.242 50.5255C142.715 50.5255 143.402 50.5255 143.705 50.5183C144.461 50.4949 144.904 50.2912 144.904 49.7902C144.904 49.2892 144.461 49.0693 143.699 49.0621L142.398 49.0549H141.928V50.5273H142.24L142.242 50.5255Z" fill="white"/>
<path d="M132.449 48.051H137.122V49.0692H133.462V50.338H136.496V51.3238H133.462V52.8195H137.272V53.845H132.449V48.0528V48.051Z" fill="white"/>
<path d="M123.652 48.051H125.054L126.38 48.0582C127.974 48.0745 128.673 48.8566 128.673 49.9451C128.673 51.0336 127.972 51.7923 126.456 51.832L125.287 51.8392H124.652V53.8432H123.654V48.051H123.652ZM125.31 50.8372L126.423 50.83C127.18 50.8137 127.622 50.5957 127.622 49.9451C127.622 49.2945 127.18 49.0765 126.413 49.0602L125.308 49.053H124.649V50.8372H125.308H125.31Z" fill="white"/>
<path d="M119.759 51.1436C119.744 52.8268 118.877 54 117.077 54C115.278 54 114.416 52.825 114.401 51.1436L114.391 49.5V48.0529H115.434V49.5162L115.445 51.1454C115.459 52.3816 116.059 52.9998 117.077 52.9998C118.095 52.9998 118.699 52.3816 118.715 51.1454L118.721 49.5162V48.0529H119.764V49.5L119.759 51.1436Z" fill="white"/>
<path d="M105.787 49.6567C105.787 48.507 106.88 47.9735 108.095 47.9735C109.033 47.9735 109.976 48.2781 110.549 48.8962L109.768 49.6171C109.434 49.226 108.83 48.9917 108.094 48.9917C107.301 48.9917 106.878 49.2729 106.878 49.6567C106.878 50.1181 107.432 50.3614 108.189 50.4875C109.56 50.7146 110.694 51.1832 110.694 52.342C110.694 53.5007 109.529 54.0017 108.16 54.0017C106.791 54.0017 105.871 53.5404 105.328 52.6862L106.135 52.0446C106.549 52.6465 107.244 52.9763 108.16 52.9763C108.922 52.9763 109.545 52.7564 109.545 52.3113C109.545 51.8878 109.022 51.5904 108.049 51.4499C106.914 51.2859 105.785 50.8552 105.785 49.6567H105.787Z" fill="white"/>
<path d="M95.051 50.839V53.845H94.0581L94.0724 53.2034C93.6638 53.6576 93.0598 54.0018 92.1313 54.0018C90.3319 54.0018 89.1328 52.7961 89.1328 50.9886C89.1328 49.181 90.4125 47.9753 92.1313 47.9753C93.4576 47.9753 94.585 48.6728 94.9739 49.9163L93.9613 50.3073C93.705 49.5486 93.1153 48.9773 92.1313 48.9773C90.9162 48.9773 90.1759 49.846 90.1759 50.9886C90.1759 52.1311 90.9162 52.9998 92.1313 52.9998C92.9325 52.9998 93.6781 52.6393 93.9864 51.841H92.3124V50.839H95.0492H95.051Z" fill="white"/>
<path d="M80.0664 48.051H81.1956L84.4271 52.3095V48.051H85.4344V53.8432H84.3859L81.0737 49.4531V53.8432H80.0664V48.051Z" fill="white"/>
<path d="M74.9219 48.051H75.9507V53.8432H74.9219V48.051Z" fill="white"/>
<path d="M65.7419 48.0511H66.9463L68.4626 48.0583C70.0595 48.0745 70.7603 48.7305 70.7603 49.7884C70.7603 50.6336 70.3069 51.2355 69.3032 51.4392L70.9915 53.8415H69.7459L68.183 51.5167L67.0234 51.5239H66.7312V53.8415H65.7383V48.0493L65.7419 48.0511ZM67.0467 50.5255C67.5198 50.5255 68.2063 50.5255 68.5128 50.5183C69.2637 50.4949 69.7064 50.2912 69.7064 49.7902C69.7064 49.2892 69.2637 49.0693 68.502 49.0621L67.2008 49.0549H66.7312V50.5273H67.0431L67.0467 50.5255Z" fill="white"/>
<path d="M57.2539 48.051H61.9264V49.0692H58.2666V50.338H61.3009V51.3238H58.2666V52.8195H62.0824V53.845H57.2539V48.0528V48.051Z" fill="white"/>
<path d="M48.6914 48.051H53.3586V49.0692H49.7041V50.338H52.7384V51.3238H49.7041V52.8195H53.5145V53.845H48.6914V48.0528V48.051Z" fill="white"/>
<path d="M39.4219 48.051H40.551L43.7826 52.3095V48.051H44.7952V53.8432H43.7467L40.4345 49.4531V53.8432H39.4219V48.051Z" fill="white"/>
<path d="M34.2852 48.051H35.3139V53.8432H34.2852V48.051Z" fill="white"/>
<path d="M30.1238 50.839V53.845H29.1308L29.1452 53.2034C28.7365 53.6576 28.1325 54.0018 27.2041 54.0018C25.4046 54.0018 24.2109 52.7961 24.2109 50.9886C24.2109 49.181 25.4853 47.9753 27.2041 47.9753C28.5304 47.9753 29.6578 48.6728 30.0467 49.9163L29.034 50.3073C28.7777 49.5486 28.1881 48.9773 27.2041 48.9773C25.9889 48.9773 25.2541 49.846 25.2541 50.9886C25.2541 52.1311 25.9907 52.9998 27.2041 52.9998C28.0053 52.9998 28.7509 52.6393 29.0591 51.841H27.3851V50.839H30.122H30.1238Z" fill="white"/>
<path d="M15.1406 48.051H16.2698L19.5013 52.3095V48.051H20.5086V53.8432H19.4601L16.1533 49.4531V53.8432H15.1406V48.051Z" fill="white"/>
<path d="M6.65234 48.051H11.3249V49.0692H7.665V50.338H10.6994V51.3238H7.665V52.8195H11.4808V53.845H6.65234V48.0528V48.051Z" fill="white"/>
</g>
<defs>
<clipPath id="clip0_3408_446">
<rect width="200" height="54" fill="white"/>
</clipPath>
</defs>
</svg>
