<svg width="111" height="30" viewBox="0 0 111 30" fill="none" xmlns="http://www.w3.org/2000/svg">
<g clip-path="url(#clip0_3408_2150)">
<path d="M19.1249 3.86065H10.6548C10.0928 3.86065 9.55265 4.08592 9.15277 4.4864L4.1622 9.49341C3.50767 10.1512 3.50767 11.2195 4.1622 11.8763L9.15277 16.8833C9.55265 17.2838 10.0928 17.509 10.6548 17.509H19.1249L22.7945 21.2035H10.6548C9.12193 21.2035 7.64774 20.5907 6.56249 19.5004L1.56894 14.4934C-0.52298 12.3919 -0.52298 8.97779 1.56894 6.87727L6.56249 1.87026C7.64774 0.777954 9.12193 0.16622 10.6548 0.16622H22.7945L19.1249 3.86065Z" fill="#E80004"/>
<path d="M18.7596 12.4009H8.23633V8.82161H18.7596V12.4009Z" fill="white"/>
<path d="M84.8477 3.86065H75.1242C73.7784 3.86065 72.6881 4.95897 72.6881 6.31259V6.37567L72.6911 6.43775C72.7558 7.7333 73.8211 8.76454 75.1242 8.76454H82.7886C86.1986 8.76454 88.9619 11.5419 88.9679 14.972C88.9739 18.357 86.2911 21.1154 82.9478 21.2005H82.9448L82.7936 21.2025H70.6171V17.508H82.8523C84.2091 17.472 85.3003 16.3526 85.2973 14.979C85.2944 13.6083 84.2061 12.494 82.8523 12.459H82.7856H75.1242C71.8038 12.459 69.1021 9.79277 69.0176 6.47078V6.31259C69.0176 2.91752 71.7501 0.16622 75.1242 0.16622H88.5173L84.8477 3.86065Z" fill="#E80004"/>
<path d="M43.8983 18.5152C43.8983 21.3356 40.3034 22.497 38.67 20.2052L28.4969 6.07726V21.2805H24.709V2.90646C24.709 0.108099 28.2443 -1.0573 29.8955 1.16337L29.9343 1.21643L40.1074 15.5106V0.0590401H43.8973V18.5152H43.8983Z" fill="#E80004"/>
<path d="M56.9074 0.0830765C61.2374 0.0830765 64.9577 2.71023 66.5801 6.46573H62.1973C60.9609 4.89986 59.05 3.89565 56.9074 3.89565C53.1791 3.89565 50.1551 6.9393 50.1551 10.6928C50.1551 14.4463 53.1791 17.49 56.9074 17.49C59.6071 17.49 61.9367 15.8971 63.017 13.5943H55.9206L59.7105 9.78071H67.4117C67.4366 10.0811 67.4505 10.3854 67.4505 10.6928C67.4505 16.5528 62.7315 21.3025 56.9074 21.3025C51.0832 21.3025 46.3672 16.5518 46.3672 10.6928C46.3672 4.83378 51.0862 0.0830765 56.9074 0.0830765Z" fill="#E80004"/>
<path d="M100.607 15.6328L106.814 0.16622H111.002L103.169 19.4924C102.747 20.5377 101.737 21.2215 100.613 21.2215C99.4888 21.2215 98.4781 20.5367 98.0564 19.4884L90.2656 0.16622H94.3997L100.607 15.6328Z" fill="#E80004"/>
<path d="M18.8134 8.81958H8.23047V12.4389H18.8134V8.81958Z" fill="#E80004"/>
<path d="M104.484 26.695H105.111L106.902 29.0609V26.695H107.464V29.9129H106.882L105.043 27.4739V29.9129H104.484V26.695Z" fill="#1C1D22"/>
<path d="M100.747 30C99.7479 30 99.0625 29.3302 99.0625 28.326C99.0625 27.3218 99.7926 26.652 100.747 26.652C101.701 26.652 102.431 27.3167 102.431 28.326C102.431 29.3352 101.745 30 100.747 30ZM100.747 29.4433C101.421 29.4433 101.849 28.9697 101.849 28.326C101.849 27.6822 101.421 27.2086 100.747 27.2086C100.072 27.2086 99.6444 27.6912 99.6444 28.326C99.6444 28.9607 100.072 29.4433 100.747 29.4433Z" fill="#1C1D22"/>
<path d="M96.2734 26.695H96.8444V29.9129H96.2734V26.695Z" fill="#1C1D22"/>
<path d="M91.3729 27.5871C91.3729 26.9483 91.9797 26.652 92.6541 26.652C93.1743 26.652 93.6946 26.8212 94.0159 27.1646L93.5822 27.565C93.3972 27.3478 93.0589 27.2176 92.6531 27.2176C92.2134 27.2176 91.9787 27.3738 91.9787 27.5871C91.9787 27.8434 92.286 27.9785 92.7058 28.0486C93.4668 28.1748 94.0964 28.4351 94.0964 29.0789C94.0964 29.7226 93.4479 30.001 92.6899 30.001C91.9319 30.001 91.4196 29.7447 91.1152 29.2701L91.5659 28.9137C91.7956 29.2481 92.1786 29.4313 92.6899 29.4313C93.1127 29.4313 93.4588 29.3091 93.4588 29.0618C93.4588 28.8266 93.1684 28.6614 92.6282 28.5833C91.9986 28.4922 91.3719 28.2529 91.3719 27.5871H91.3729Z" fill="#1C1D22"/>
<path d="M88.4121 26.695H88.9831V29.9129H88.4121V26.695Z" fill="#1C1D22"/>
<path d="M83.0137 26.695H83.6622L84.6361 29.2741L85.6069 26.695H86.2555L84.9633 29.9129H84.3058L83.0137 26.695Z" fill="#1C1D22"/>
<path d="M78.2207 26.6951H78.8892L79.7307 26.6991C80.617 26.7081 81.006 27.0725 81.006 27.6602C81.006 28.1298 80.7543 28.4642 80.1973 28.5773L81.1343 29.9119H80.443L79.5756 28.6204L78.932 28.6244H78.7698V29.9119H78.2188V26.6941L78.2207 26.6951ZM78.9449 28.0697C79.2075 28.0697 79.5885 28.0697 79.7566 28.0657C80.1764 28.0527 80.4221 27.9396 80.4221 27.6612C80.4221 27.3829 80.1764 27.2607 79.7536 27.2567L79.0314 27.2527H78.7708V28.0707H78.9439L78.9449 28.0697Z" fill="#1C1D22"/>
<path d="M73.5098 26.695H76.103V27.2607H74.0718V27.9655H75.7559V28.5132H74.0718V29.3442H76.1866V29.9139H73.5098V26.696V26.695Z" fill="#1C1D22"/>
<path d="M68.627 26.695H69.4048L70.1409 26.699C71.0253 26.708 71.4132 27.1426 71.4132 27.7473C71.4132 28.352 71.0243 28.7735 70.1827 28.7955L69.5342 28.7995H69.182V29.9129H68.6279V26.695H68.627ZM69.5471 28.2429L70.1648 28.2389C70.5846 28.2299 70.8303 28.1087 70.8303 27.7473C70.8303 27.3858 70.5846 27.2647 70.1588 27.2557L69.5461 27.2517H69.18V28.2429H69.5461H69.5471Z" fill="#1C1D22"/>
<path d="M66.4655 28.4131C66.4576 29.3482 65.9761 30 64.9774 30C63.9787 30 63.5003 29.3472 63.4923 28.4131L63.4863 27.5V26.696H64.0653V27.509L64.0712 28.4141C64.0792 29.1009 64.4124 29.4443 64.9774 29.4443C65.5424 29.4443 65.8777 29.1009 65.8866 28.4141L65.8896 27.509V26.696H66.4685V27.5L66.4655 28.4131Z" fill="#1C1D22"/>
<path d="M58.7117 27.5871C58.7117 26.9483 59.3185 26.652 59.9929 26.652C60.5131 26.652 61.0364 26.8212 61.3547 27.1646L60.921 27.565C60.736 27.3478 60.4007 27.2176 59.9919 27.2176C59.5522 27.2176 59.3175 27.3738 59.3175 27.5871C59.3175 27.8434 59.6248 27.9785 60.0446 28.0486C60.8056 28.1748 61.4353 28.4351 61.4353 29.0789C61.4353 29.7226 60.7887 30.001 60.0287 30.001C59.2687 30.001 58.7584 29.7447 58.457 29.2701L58.9047 28.9137C59.1344 29.2481 59.5204 29.4313 60.0287 29.4313C60.4515 29.4313 60.7976 29.3091 60.7976 29.0618C60.7976 28.8266 60.5072 28.6614 59.967 28.5833C59.3374 28.4922 58.7107 28.2529 58.7107 27.5871H58.7117Z" fill="#1C1D22"/>
<path d="M52.7534 28.2439V29.9139H52.2023L52.2102 29.5575C51.9834 29.8098 51.6482 30.001 51.1329 30.001C50.1342 30.001 49.4688 29.3312 49.4688 28.327C49.4688 27.3228 50.179 26.653 51.1329 26.653C51.869 26.653 52.4947 27.0404 52.7106 27.7313L52.1486 27.9485C52.0063 27.527 51.679 27.2096 51.1329 27.2096C50.4585 27.2096 50.0477 27.6922 50.0477 28.327C50.0477 28.9617 50.4585 29.4443 51.1329 29.4443C51.5776 29.4443 51.9914 29.2441 52.1625 28.8005H51.2334V28.2439H52.7524H52.7534Z" fill="#1C1D22"/>
<path d="M44.4375 26.695H45.0642L46.8577 29.0609V26.695H47.4167V29.9129H46.8348L44.9965 27.4739V29.9129H44.4375V26.695Z" fill="#1C1D22"/>
<path d="M41.582 26.695H42.153V29.9129H41.582V26.695Z" fill="#1C1D22"/>
<path d="M36.4864 26.6951H37.1548L37.9964 26.6991C38.8827 26.7081 39.2716 27.0725 39.2716 27.6602C39.2716 28.1298 39.0199 28.4642 38.4629 28.5773L39.3999 29.9119H38.7086L37.8412 28.6204L37.1976 28.6244H37.0355V29.9119H36.4844V26.6941L36.4864 26.6951ZM37.2105 28.0697C37.4731 28.0697 37.8541 28.0697 38.0242 28.0657C38.441 28.0527 38.6867 27.9396 38.6867 27.6612C38.6867 27.3829 38.441 27.2607 38.0182 27.2567L37.2961 27.2527H37.0355V28.0707H37.2085L37.2105 28.0697Z" fill="#1C1D22"/>
<path d="M31.7754 26.695H34.3687V27.2607H32.3374V27.9655H34.0215V28.5132H32.3374V29.3442H34.4552V29.9139H31.7754V26.696V26.695Z" fill="#1C1D22"/>
<path d="M27.0234 26.695H29.6137V27.2607H27.5855V27.9656H29.2695V28.5132H27.5855V29.3442H29.7003V29.9139H27.0234V26.696V26.695Z" fill="#1C1D22"/>
<path d="M21.8789 26.695H22.5056L24.2991 29.0609V26.695H24.8611V29.9129H24.2792L22.4409 27.4739V29.9129H21.8789V26.695Z" fill="#1C1D22"/>
<path d="M19.0273 26.695H19.5983V29.9129H19.0273V26.695Z" fill="#1C1D22"/>
<path d="M16.7191 28.2439V29.9139H16.168L16.176 29.5575C15.9492 29.8098 15.614 30.001 15.0987 30.001C14.1 30.001 13.4375 29.3312 13.4375 28.327C13.4375 27.3228 14.1448 26.653 15.0987 26.653C15.8348 26.653 16.4605 27.0404 16.6763 27.7313L16.1143 27.9485C15.9721 27.527 15.6448 27.2096 15.0987 27.2096C14.4243 27.2096 14.0164 27.6922 14.0164 28.327C14.0164 28.9617 14.4253 29.4443 15.0987 29.4443C15.5433 29.4443 15.9572 29.2441 16.1282 28.8005H15.1992V28.2439H16.7181H16.7191Z" fill="#1C1D22"/>
<path d="M8.40234 26.695H9.02902L10.8225 29.0609V26.695H11.3816V29.9129H10.7996L8.96437 27.4739V29.9129H8.40234V26.695Z" fill="#1C1D22"/>
<path d="M3.69141 26.695H6.28467V27.2607H4.25343V27.9655H5.93751V28.5132H4.25343V29.3442H6.37121V29.9139H3.69141V26.696V26.695Z" fill="#1C1D22"/>
</g>
<defs>
<clipPath id="clip0_3408_2150">
<rect width="111" height="30" fill="white"/>
</clipPath>
</defs>
</svg>
