<svg width="961" height="1600" viewBox="0 0 961 1600" fill="none" xmlns="http://www.w3.org/2000/svg">
<g opacity="0.7">
<path d="M26.2891 320.319H294.525" stroke="white" stroke-opacity="0.4"/>
<path d="M346.117 320.319H614.353" stroke="white" stroke-opacity="0.4"/>
<path d="M665.934 320.319H934.169" stroke="white" stroke-opacity="0.4"/>
<path d="M17.6946 320.319H0.5M0.5 320.319L0.5 337.514M0.5 320.319L0.5 303.125" stroke="white"/>
<path d="M942.536 320.319H959.73M959.73 320.319V337.514M959.73 320.319V303.125" stroke="white"/>
<path d="M26.2891 640.139H294.525" stroke="white" stroke-opacity="0.4"/>
<path d="M26.2891 1278.67H294.525" stroke="white" stroke-opacity="0.4"/>
<path d="M346.117 640.139H614.353" stroke="white" stroke-opacity="0.4"/>
<path d="M346.117 1278.67H614.353" stroke="white" stroke-opacity="0.4"/>
<path d="M665.934 640.139H934.169" stroke="white" stroke-opacity="0.4"/>
<path d="M665.934 1278.67H934.169" stroke="white" stroke-opacity="0.4"/>
<path d="M17.6946 640.139H0.5M0.5 640.139L0.5 657.333M0.5 640.139L0.5 622.944" stroke="white"/>
<path d="M942.536 640.139H959.73M959.73 640.139V657.333M959.73 640.139V622.944" stroke="white"/>
<path d="M26.2891 959.958H294.525" stroke="white" stroke-opacity="0.4"/>
<path d="M346.117 959.958H614.353" stroke="white" stroke-opacity="0.4"/>
<path d="M665.934 959.958H934.169" stroke="white" stroke-opacity="0.4"/>
<path d="M17.6946 959.958H0.5M0.5 959.958L0.5 977.153M0.5 959.958L0.5 942.763" stroke="white"/>
<path d="M17.6946 1278.22H0.5M0.5 1278.22L0.5 1295.42M0.5 1278.22L0.5 1261.03" stroke="white"/>
<path d="M942.536 959.958H959.73M959.73 959.958V977.153M959.73 959.958V942.763" stroke="white"/>
<path d="M942.536 1278.22H959.73M959.73 1278.22V1295.42M959.73 1278.22V1261.03" stroke="white"/>
<path d="M0.5 294.527L0.5 26.2919" stroke="white" stroke-opacity="0.4"/>
<path d="M320.316 294.527V26.2919" stroke="white" stroke-opacity="0.4"/>
<path d="M640.141 294.527V26.2919" stroke="white" stroke-opacity="0.4"/>
<path d="M959.961 294.527V26.2919" stroke="white" stroke-opacity="0.4"/>
<path d="M0.5 614.347L0.5 346.111" stroke="white" stroke-opacity="0.4"/>
<path d="M320.316 614.347V346.111" stroke="white" stroke-opacity="0.4"/>
<path d="M640.141 614.347V346.111" stroke="white" stroke-opacity="0.4"/>
<path d="M959.961 614.347V346.111" stroke="white" stroke-opacity="0.4"/>
<path d="M0.5 934.166L0.5 665.93" stroke="white" stroke-opacity="0.4"/>
<path d="M320.316 934.166V665.93" stroke="white" stroke-opacity="0.4"/>
<path d="M640.141 934.166V665.93" stroke="white" stroke-opacity="0.4"/>
<path d="M959.961 934.166V665.93" stroke="white" stroke-opacity="0.4"/>
<path d="M0.5 1253.56L0.5 985.321" stroke="white" stroke-opacity="0.4"/>
<path d="M320.316 1253.56V985.321" stroke="white" stroke-opacity="0.4"/>
<path d="M640.141 1253.56V985.321" stroke="white" stroke-opacity="0.4"/>
<path d="M959.961 1253.56V985.321" stroke="white" stroke-opacity="0.4"/>
<path d="M0.5 1573.38L0.5 1305.14" stroke="white" stroke-opacity="0.4"/>
<path d="M320.316 1573.38V1305.14" stroke="white" stroke-opacity="0.4"/>
<path d="M640.141 1573.38V1305.14" stroke="white" stroke-opacity="0.4"/>
<path d="M959.961 1573.38V1305.14" stroke="white" stroke-opacity="0.4"/>
<path d="M26.2891 0.5H294.525" stroke="white" stroke-opacity="0.4"/>
<path d="M346.117 0.5H614.353" stroke="white" stroke-opacity="0.4"/>
<path d="M665.934 0.5H934.169" stroke="white" stroke-opacity="0.4"/>
<path d="M640.14 17.6946V0.5M640.14 0.5H622.945M640.14 0.5H657.334" stroke="white"/>
<path d="M320.323 17.6946V0.5M320.323 0.5H303.129M320.323 0.5H337.518" stroke="white"/>
<path d="M942.535 0.5H959.73V17.6946" stroke="white"/>
<path d="M17.6946 0.5H0.5V17.6946" stroke="white"/>
<path d="M26.2891 1599.17H294.525" stroke="white" stroke-opacity="0.4"/>
<path d="M346.117 1599.17H614.353" stroke="white" stroke-opacity="0.4"/>
<path d="M665.934 1599.17H934.169" stroke="white" stroke-opacity="0.4"/>
<path d="M640.14 1581.97V1599.17M640.14 1599.17H622.945M640.14 1599.17H657.334" stroke="white"/>
<path d="M320.323 1581.97V1599.17M320.323 1599.17H303.129M320.323 1599.17H337.518" stroke="white"/>
<path d="M942.535 1599.17H959.73V1581.97" stroke="white"/>
<path d="M17.6946 1599.17H0.5V1581.97" stroke="white"/>
</g>
</svg>
