<svg width="1161" height="1160" viewBox="0 0 1161 1160" fill="none" xmlns="http://www.w3.org/2000/svg">
<g opacity="0.7">
<path d="M23.8867 290.5H267.113" stroke="white" stroke-opacity="0.4"/>
<path d="M313.891 290.5H557.117" stroke="white" stroke-opacity="0.4"/>
<path d="M603.891 290.5H847.117" stroke="white" stroke-opacity="0.4"/>
<path d="M893.887 290.5H1137.11" stroke="white" stroke-opacity="0.4"/>
<path d="M16.0914 290.5H0.5M0.5 290.5L0.5 306.092M0.5 290.5L0.5 274.909" stroke="white"/>
<path d="M1144.71 290.5H1160.3M1160.3 290.5V306.092M1160.3 290.5V274.909" stroke="white"/>
<path d="M23.8867 580.501H267.113" stroke="white" stroke-opacity="0.4"/>
<path d="M23.8867 1159.5H267.113" stroke="white" stroke-opacity="0.4"/>
<path d="M313.891 580.501H557.117" stroke="white" stroke-opacity="0.4"/>
<path d="M313.891 1159.5H557.117" stroke="white" stroke-opacity="0.4"/>
<path d="M603.891 580.501H847.117" stroke="white" stroke-opacity="0.4"/>
<path d="M603.891 1159.5H847.117" stroke="white" stroke-opacity="0.4"/>
<path d="M893.887 580.501H1137.11" stroke="white" stroke-opacity="0.4"/>
<path d="M893.887 1159.5H1137.11" stroke="white" stroke-opacity="0.4"/>
<path d="M16.0914 580.501H0.5M0.5 580.501L0.5 596.092M0.5 580.501L0.5 564.909" stroke="white"/>
<path d="M1144.71 580.501H1160.3M1160.3 580.501V596.092M1160.3 580.501V564.909" stroke="white"/>
<path d="M23.8867 870.501H267.113" stroke="white" stroke-opacity="0.4"/>
<path d="M313.891 870.501H557.117" stroke="white" stroke-opacity="0.4"/>
<path d="M603.891 870.501H847.117" stroke="white" stroke-opacity="0.4"/>
<path d="M893.887 870.501H1137.11" stroke="white" stroke-opacity="0.4"/>
<path d="M16.0914 870.501H0.5M0.5 870.501L0.5 886.093M0.5 870.501L0.5 854.91" stroke="white"/>
<path d="M1144.71 870.501H1160.3M1160.3 870.501V886.093M1160.3 870.501V854.91" stroke="white"/>
<path d="M0.5 267.113L0.5 23.8871" stroke="white" stroke-opacity="0.4"/>
<path d="M290.5 267.113V23.8871" stroke="white" stroke-opacity="0.4"/>
<path d="M580.5 267.113V23.8871" stroke="white" stroke-opacity="0.4"/>
<path d="M870.504 267.113V23.8871" stroke="white" stroke-opacity="0.4"/>
<path d="M1160.5 267.113V23.8871" stroke="white" stroke-opacity="0.4"/>
<path d="M0.5 557.114L0.5 313.888" stroke="white" stroke-opacity="0.4"/>
<path d="M290.5 557.114V313.888" stroke="white" stroke-opacity="0.4"/>
<path d="M580.5 557.114V313.888" stroke="white" stroke-opacity="0.4"/>
<path d="M870.504 557.114V313.888" stroke="white" stroke-opacity="0.4"/>
<path d="M1160.5 557.114V313.888" stroke="white" stroke-opacity="0.4"/>
<path d="M0.5 847.114L0.5 603.888" stroke="white" stroke-opacity="0.4"/>
<path d="M290.5 847.114V603.888" stroke="white" stroke-opacity="0.4"/>
<path d="M580.5 847.114V603.888" stroke="white" stroke-opacity="0.4"/>
<path d="M870.504 847.114V603.888" stroke="white" stroke-opacity="0.4"/>
<path d="M1160.5 847.114V603.888" stroke="white" stroke-opacity="0.4"/>
<path d="M0.5 1136.73L0.5 893.5" stroke="white" stroke-opacity="0.4"/>
<path d="M290.5 1136.73V893.5" stroke="white" stroke-opacity="0.4"/>
<path d="M580.5 1136.73V893.5" stroke="white" stroke-opacity="0.4"/>
<path d="M870.504 1136.73V893.5" stroke="white" stroke-opacity="0.4"/>
<path d="M1160.5 1136.73V893.5" stroke="white" stroke-opacity="0.4"/>
<path d="M23.8867 0.5H267.113" stroke="white" stroke-opacity="0.4"/>
<path d="M313.891 0.5H557.117" stroke="white" stroke-opacity="0.4"/>
<path d="M603.891 0.5H847.117" stroke="white" stroke-opacity="0.4"/>
<path d="M893.887 0.5H1137.11" stroke="white" stroke-opacity="0.4"/>
<path d="M870.502 16.0914V0.5M870.502 0.5H854.91M870.502 0.5H886.093" stroke="white"/>
<path d="M580.502 16.0914V0.5M580.502 0.5H564.91M580.502 0.5H596.093" stroke="white"/>
<path d="M290.502 16.0914V0.5M290.502 0.5H274.91M290.502 0.5H306.093" stroke="white"/>
<path d="M1144.71 0.5H1160.31V16.0914" stroke="white"/>
<path d="M16.0914 0.5H0.5V16.0914" stroke="white"/>
<path d="M870.502 1143.52V1159.11M870.502 1159.11H854.91M870.502 1159.11H886.093" stroke="white"/>
<path d="M580.502 1143.52V1159.11M580.502 1159.11H564.91M580.502 1159.11H596.093" stroke="white"/>
<path d="M290.502 1143.52V1159.11M290.502 1159.11H274.91M290.502 1159.11H306.093" stroke="white"/>
<path d="M1144.71 1159.11H1160.31V1143.52" stroke="white"/>
<path d="M16.0914 1159.11H0.5V1143.52" stroke="white"/>
</g>
</svg>
