<svg width="341" height="1021" viewBox="0 0 341 1021" fill="none" xmlns="http://www.w3.org/2000/svg">
<path d="M5.5 0.5H0.5V5.5" stroke="white"/>
<path d="M335.5 0.5H340.5V5.5" stroke="white"/>
<path d="M170.5 5.5V0.5M170.5 0.5H165.5M170.5 0.5H175.5" stroke="white"/>
<path d="M0.5 160.5L0.5 10.5" stroke="white" stroke-opacity="0.4"/>
<path d="M170.5 160.5V10.5" stroke="white" stroke-opacity="0.4"/>
<path d="M340.5 160.5V10.5" stroke="white" stroke-opacity="0.4"/>
<path d="M0.5 330.5L0.5 180.5" stroke="white" stroke-opacity="0.4"/>
<path d="M170.5 330.5V180.5" stroke="white" stroke-opacity="0.4"/>
<path d="M340.5 330.5V180.5" stroke="white" stroke-opacity="0.4"/>
<path d="M0.5 500.5L0.5 350.5" stroke="white" stroke-opacity="0.4"/>
<path d="M170.5 500.5V350.5" stroke="white" stroke-opacity="0.4"/>
<path d="M340.5 500.5V350.5" stroke="white" stroke-opacity="0.4"/>
<path d="M10.5 0.5H160.5" stroke="white" stroke-opacity="0.4"/>
<path d="M180.5 0.5H330.5" stroke="white" stroke-opacity="0.4"/>
<path d="M10.5 170.5H160.5" stroke="white" stroke-opacity="0.4"/>
<path d="M180.5 170.5H330.5" stroke="white" stroke-opacity="0.4"/>
<path d="M5.5 170.5H0.5M0.5 170.5L0.5 175.5M0.5 170.5L0.5 165.5" stroke="white"/>
<path d="M335.5 170.5H340.5M340.5 170.5V175.5M340.5 170.5V165.5" stroke="white"/>
<path d="M5.5 1020.5H0.5V1015.5" stroke="white"/>
<path d="M335.5 1020.5H340.5V1015.5" stroke="white"/>
<path d="M170.5 1015.5V1020.5M170.5 1020.5H165.5M170.5 1020.5H175.5" stroke="white"/>
<path d="M10.5 1020.5H160.5" stroke="white" stroke-opacity="0.4"/>
<path d="M180.5 1020.5H330.5" stroke="white" stroke-opacity="0.4"/>
<path d="M10.5 340.5H160.5" stroke="white" stroke-opacity="0.4"/>
<path d="M180.5 340.5H330.5" stroke="white" stroke-opacity="0.4"/>
<path d="M5.5 340.5H0.5M0.5 340.5L0.5 345.5M0.5 340.5L0.5 335.5" stroke="white"/>
<path d="M335.5 340.5H340.5M340.5 340.5V345.5M340.5 340.5V335.5" stroke="white"/>
<path d="M0.5 670.5L0.5 520.5" stroke="white" stroke-opacity="0.4"/>
<path d="M170.5 670.5V520.5" stroke="white" stroke-opacity="0.4"/>
<path d="M340.5 670.5V520.5" stroke="white" stroke-opacity="0.4"/>
<path d="M10.5 510.5H160.5" stroke="white" stroke-opacity="0.4"/>
<path d="M180.5 510.5H330.5" stroke="white" stroke-opacity="0.4"/>
<path d="M5.5 510.5H0.5M0.5 510.5L0.5 515.5M0.5 510.5L0.5 505.5" stroke="white"/>
<path d="M335.5 510.5H340.5M340.5 510.5V515.5M340.5 510.5V505.5" stroke="white"/>
<path d="M0.5 840.5L0.5 690.5" stroke="white" stroke-opacity="0.4"/>
<path d="M170.5 840.5V690.5" stroke="white" stroke-opacity="0.4"/>
<path d="M340.5 840.5V690.5" stroke="white" stroke-opacity="0.4"/>
<path d="M10.5 680.5H160.5" stroke="white" stroke-opacity="0.4"/>
<path d="M180.5 680.5H330.5" stroke="white" stroke-opacity="0.4"/>
<path d="M5.5 680.5H0.5M0.5 680.5L0.5 685.5M0.5 680.5L0.5 675.5" stroke="white"/>
<path d="M335.5 680.5H340.5M340.5 680.5V685.5M340.5 680.5V675.5" stroke="white"/>
<path d="M0.5 1010.5L0.5 860.5" stroke="white" stroke-opacity="0.4"/>
<path d="M170.5 1010.5V860.5" stroke="white" stroke-opacity="0.4"/>
<path d="M340.5 1010.5V860.5" stroke="white" stroke-opacity="0.4"/>
<path d="M10.5 850.5H160.5" stroke="white" stroke-opacity="0.4"/>
<path d="M180.5 850.5H330.5" stroke="white" stroke-opacity="0.4"/>
<path d="M5.5 850.5H0.5M0.5 850.5L0.5 855.5M0.5 850.5L0.5 845.5" stroke="white"/>
<path d="M335.5 850.5H340.5M340.5 850.5V855.5M340.5 850.5V845.5" stroke="white"/>
</svg>
