<svg width="1861" height="1489" viewBox="0 0 1861 1489" fill="none" xmlns="http://www.w3.org/2000/svg">
<g opacity="0.7">
<path d="M30.5 372.5H342.5" stroke="white" stroke-opacity="0.4"/>
<path d="M402.5 372.5H714.5" stroke="white" stroke-opacity="0.4"/>
<path d="M774.5 372.5H1086.5" stroke="white" stroke-opacity="0.4"/>
<path d="M1146.5 372.5H1458.5" stroke="white" stroke-opacity="0.4"/>
<path d="M1518.5 372.5H1830.5" stroke="white" stroke-opacity="0.4"/>
<path d="M20.5 372.5H0.5M0.5 372.5L0.5 392.5M0.5 372.5L0.5 352.5" stroke="white"/>
<path d="M1840.5 372.5H1860.5M1860.5 372.5V392.5M1860.5 372.5V352.5" stroke="white"/>
<path d="M30.5 744.5H342.5" stroke="white" stroke-opacity="0.4"/>
<path d="M402.5 744.5H714.5" stroke="white" stroke-opacity="0.4"/>
<path d="M774.5 744.5H1086.5" stroke="white" stroke-opacity="0.4"/>
<path d="M1146.5 744.5H1458.5" stroke="white" stroke-opacity="0.4"/>
<path d="M1518.5 744.5H1830.5" stroke="white" stroke-opacity="0.4"/>
<path d="M20.5 744.5H0.5M0.5 744.5L0.5 764.5M0.5 744.5L0.5 724.5" stroke="white"/>
<path d="M1840.5 744.5H1860.5M1860.5 744.5V764.5M1860.5 744.5V724.5" stroke="white"/>
<path d="M30.5 1116.5H342.5" stroke="white" stroke-opacity="0.4"/>
<path d="M402.5 1116.5H714.5" stroke="white" stroke-opacity="0.4"/>
<path d="M774.5 1116.5H1086.5" stroke="white" stroke-opacity="0.4"/>
<path d="M1146.5 1116.5H1458.5" stroke="white" stroke-opacity="0.4"/>
<path d="M1518.5 1116.5H1830.5" stroke="white" stroke-opacity="0.4"/>
<path d="M20.5 1116.5H0.5M0.5 1116.5L0.5 1136.5M0.5 1116.5L0.5 1096.5" stroke="white"/>
<path d="M1840.5 1116.5H1860.5M1860.5 1116.5V1136.5M1860.5 1116.5V1096.5" stroke="white"/>
<path d="M0.5 342.5L0.5 30.5" stroke="white" stroke-opacity="0.4"/>
<path d="M372.5 342.5V30.5" stroke="white" stroke-opacity="0.4"/>
<path d="M744.5 342.5V30.5" stroke="white" stroke-opacity="0.4"/>
<path d="M1116.5 342.5V30.5" stroke="white" stroke-opacity="0.4"/>
<path d="M1488.5 342.5V30.5" stroke="white" stroke-opacity="0.4"/>
<path d="M1860.5 342.5V30.5" stroke="white" stroke-opacity="0.4"/>
<path d="M0.5 714.5L0.5 402.5" stroke="white" stroke-opacity="0.4"/>
<path d="M372.5 714.5V402.5" stroke="white" stroke-opacity="0.4"/>
<path d="M744.5 714.5V402.5" stroke="white" stroke-opacity="0.4"/>
<path d="M1116.5 714.5V402.5" stroke="white" stroke-opacity="0.4"/>
<path d="M1488.5 714.5V402.5" stroke="white" stroke-opacity="0.4"/>
<path d="M1860.5 714.5V402.5" stroke="white" stroke-opacity="0.4"/>
<path d="M0.5 1086.5L0.5 774.5" stroke="white" stroke-opacity="0.4"/>
<path d="M372.5 1086.5V774.5" stroke="white" stroke-opacity="0.4"/>
<path d="M744.5 1086.5V774.5" stroke="white" stroke-opacity="0.4"/>
<path d="M1116.5 1086.5V774.5" stroke="white" stroke-opacity="0.4"/>
<path d="M1488.5 1086.5V774.5" stroke="white" stroke-opacity="0.4"/>
<path d="M1860.5 1086.5V774.5" stroke="white" stroke-opacity="0.4"/>
<path d="M0.5 1458.5L0.5 1146.5" stroke="white" stroke-opacity="0.4"/>
<path d="M372.5 1458.5V1146.5" stroke="white" stroke-opacity="0.4"/>
<path d="M744.5 1458.5V1146.5" stroke="white" stroke-opacity="0.4"/>
<path d="M1116.5 1458.5V1146.5" stroke="white" stroke-opacity="0.4"/>
<path d="M1488.5 1458.5V1146.5" stroke="white" stroke-opacity="0.4"/>
<path d="M1860.5 1458.5V1146.5" stroke="white" stroke-opacity="0.4"/>
<path d="M30.5 0.5H342.5" stroke="white" stroke-opacity="0.4"/>
<path d="M402.5 0.5H714.5" stroke="white" stroke-opacity="0.4"/>
<path d="M774.5 0.5H1086.5" stroke="white" stroke-opacity="0.4"/>
<path d="M1146.5 0.5H1458.5" stroke="white" stroke-opacity="0.4"/>
<path d="M1518.5 0.5H1830.5" stroke="white" stroke-opacity="0.4"/>
<path d="M1116.5 20.5V0.5M1116.5 0.5H1096.5M1116.5 0.5H1136.5" stroke="white"/>
<path d="M1488.5 20.5V0.5M1488.5 0.5H1468.5M1488.5 0.5H1508.5" stroke="white"/>
<path d="M744.5 20.5V0.5M744.5 0.5H724.5M744.5 0.5H764.5" stroke="white"/>
<path d="M372.5 20.5V0.5M372.5 0.5H352.5M372.5 0.5H392.5" stroke="white"/>
<path d="M1840.5 0.5H1860.5V20.5" stroke="white"/>
<path d="M20.5 0.5H0.5V20.5" stroke="white"/>
<path d="M30.5 1488.5H342.5" stroke="white" stroke-opacity="0.4"/>
<path d="M402.5 1488.5H714.5" stroke="white" stroke-opacity="0.4"/>
<path d="M774.5 1488.5H1086.5" stroke="white" stroke-opacity="0.4"/>
<path d="M1146.5 1488.5H1458.5" stroke="white" stroke-opacity="0.4"/>
<path d="M1518.5 1488.5H1830.5" stroke="white" stroke-opacity="0.4"/>
<path d="M1116.5 1468.5V1488.5M1116.5 1488.5H1096.5M1116.5 1488.5H1136.5" stroke="white"/>
<path d="M1488.5 1468.5V1488.5M1488.5 1488.5H1468.5M1488.5 1488.5H1508.5" stroke="white"/>
<path d="M744.5 1468.5V1488.5M744.5 1488.5H724.5M744.5 1488.5H764.5" stroke="white"/>
<path d="M372.5 1468.5V1488.5M372.5 1488.5H352.5M372.5 1488.5H392.5" stroke="white"/>
<path d="M1840.5 1488.5H1860.5V1468.5" stroke="white"/>
<path d="M20.5 1488.5H0.5V1468.5" stroke="white"/>
</g>
</svg>
