<svg width="388" height="13" viewBox="0 0 388 13" fill="none" xmlns="http://www.w3.org/2000/svg">
<path d="M376.839 0.15918H379.182L385.877 8.91279V0.15918H387.978V12.0653H385.802L378.929 3.04124V12.0653H376.839V0.15918Z" fill="white"/>
<path d="M362.864 12.3877C359.13 12.3877 356.568 9.90939 356.568 6.19383C356.568 2.47827 359.297 0 362.864 0C366.431 0 369.16 2.45975 369.16 6.19383C369.16 9.92791 366.598 12.3877 362.864 12.3877ZM362.864 10.328C365.385 10.328 366.985 8.57579 366.985 6.19383C366.985 3.81187 365.385 2.05967 362.864 2.05967C360.342 2.05967 358.743 3.84521 358.743 6.19383C358.743 8.54245 360.342 10.328 362.864 10.328Z" fill="white"/>
<path d="M346.136 0.15918H348.271V12.0653H346.136V0.15918Z" fill="white"/>
<path d="M327.816 3.45995C327.816 1.09651 330.085 0 332.606 0C334.551 0 336.497 0.626049 337.698 1.89667L336.076 3.37845C335.385 2.57459 334.12 2.09301 332.603 2.09301C330.959 2.09301 330.081 2.6709 330.081 3.45995C330.081 4.40829 331.23 4.90838 332.8 5.16769C335.645 5.63445 337.999 6.59761 337.999 8.97957C337.999 11.3615 335.574 12.3914 332.74 12.3914C329.906 12.3914 327.991 11.443 326.853 9.68712L328.538 8.36834C329.397 9.60562 330.829 10.2835 332.74 10.2835C334.321 10.2835 335.615 9.83159 335.615 8.91659C335.615 8.04605 334.529 7.43481 332.51 7.14587C330.156 6.80876 327.813 5.92341 327.813 3.45995H327.816Z" fill="white"/>
<path d="M316.745 0.15918H318.88V12.0653H316.745V0.15918Z" fill="white"/>
<path d="M296.563 0.15918H298.988L302.628 9.70183L306.258 0.15918H308.683L303.852 12.0653H301.394L296.563 0.15918Z" fill="white"/>
<path d="M278.641 0.15947H281.14L284.286 0.174291C287.6 0.207631 289.054 1.55604 289.054 3.73055C289.054 5.46793 288.113 6.70522 286.031 7.12382L289.534 12.0619H286.949L283.706 7.28311L281.3 7.29793H280.694V12.0619H278.634V0.155762L278.641 0.15947ZM281.348 5.24567C282.33 5.24567 283.755 5.24567 284.383 5.23086C285.953 5.1827 286.871 4.76409 286.871 3.73426C286.871 2.70442 285.953 2.25248 284.372 2.23766L281.672 2.22285H280.698V5.24937H281.345L281.348 5.24567Z" fill="white"/>
<path d="M261.028 0.15918H270.724V2.25219H263.13V4.86012H269.426V6.88645H263.13V9.96114H271.036V12.069H261.028V0.162888V0.15918Z" fill="white"/>
<path d="M242.775 0.15918H245.683L248.435 0.174001C251.742 0.207341 253.192 1.81507 253.192 4.05256C253.192 6.29004 251.738 7.8496 248.591 7.9311L246.167 7.94592H244.85V12.0653H242.779V0.15918H242.775ZM246.215 5.88625L248.525 5.87143C250.094 5.83809 251.013 5.38986 251.013 4.05256C251.013 2.71525 250.094 2.26701 248.502 2.23367L246.211 2.21885H244.843V5.88625H246.211H246.215Z" fill="white"/>
<path d="M234.695 6.51621C234.665 9.97616 232.865 12.3878 229.131 12.3878C225.397 12.3878 223.608 9.97246 223.579 6.51621L223.556 3.13776V0.163086H225.721V3.17109L225.743 6.5199C225.773 9.06115 227.019 10.3318 229.131 10.3318C231.244 10.3318 232.497 9.06115 232.53 6.5199L232.542 3.17109V0.163086H234.706V3.13776L234.695 6.51621Z" fill="white"/>
<path d="M205.704 3.45995C205.704 1.09651 207.973 0 210.494 0C212.439 0 214.396 0.626049 215.586 1.89667L213.964 3.37845C213.273 2.57459 212.019 2.09301 210.491 2.09301C208.847 2.09301 207.969 2.6709 207.969 3.45995C207.969 4.40829 209.118 4.90838 210.688 5.16769C213.533 5.63445 215.887 6.59761 215.887 8.97957C215.887 11.3615 213.47 12.3914 210.628 12.3914C207.787 12.3914 205.879 11.443 204.752 9.68712L206.426 8.36834C207.285 9.60562 208.728 10.2835 210.628 10.2835C212.209 10.2835 213.503 9.83159 213.503 8.91659C213.503 8.04605 212.417 7.43481 210.398 7.14587C208.044 6.80876 205.701 5.92341 205.701 3.45995H205.704Z" fill="white"/>
<path d="M183.427 5.89028V12.0693H181.367L181.397 10.7505C180.549 11.684 179.295 12.3916 177.369 12.3916C173.635 12.3916 171.147 9.9133 171.147 6.19774C171.147 2.48218 173.802 0.00390625 177.369 0.00390625C180.121 0.00390625 182.46 1.43753 183.267 3.9936L181.166 4.79746C180.634 3.23789 179.411 2.06358 177.369 2.06358C174.847 2.06358 173.311 3.84912 173.311 6.19774C173.311 8.54636 174.847 10.3319 177.369 10.3319C179.031 10.3319 180.578 9.59101 181.218 7.94995H177.745V5.89028H183.424H183.427Z" fill="white"/>
<path d="M152.334 0.15918H154.677L161.382 8.91279V0.15918H163.472V12.0653H161.297L154.424 3.04124V12.0653H152.334V0.15918Z" fill="white"/>
<path d="M141.659 0.15918H143.794V12.0653H141.659V0.15918Z" fill="white"/>
<path d="M122.611 0.15947H125.11L128.256 0.174291C131.57 0.207631 133.024 1.55604 133.024 3.73055C133.024 5.46793 132.083 6.70522 130 7.12382L133.504 12.0619H130.919L127.676 7.28311L125.27 7.29793H124.664V12.0619H122.603V0.155762L122.611 0.15947ZM125.318 5.24567C126.3 5.24567 127.724 5.24567 128.36 5.23086C129.919 5.1827 130.837 4.76409 130.837 3.73426C130.837 2.70442 129.919 2.25248 128.338 2.23766L125.638 2.22285H124.664V5.24937H125.311L125.318 5.24567Z" fill="white"/>
<path d="M104.998 0.15918H114.694V2.25219H107.099V4.86012H113.396V6.88645H107.099V9.96114H115.017V12.069H104.998V0.162888V0.15918Z" fill="white"/>
<path d="M87.2314 0.15918H96.9158V2.25219H89.3327V4.86012H95.629V6.88645H89.3327V9.96114H97.2394V12.069H87.2314V0.162888V0.15918Z" fill="white"/>
<path d="M67.9966 0.15918H70.3396L77.045 8.91279V0.15918H79.1463V12.0653H76.9706L70.0978 3.04124V12.0653H67.9966V0.15918Z" fill="white"/>
<path d="M57.3379 0.15918H59.4726V12.0653H57.3379V0.15918Z" fill="white"/>
<path d="M48.7032 5.89028V12.0693H46.6428L46.6726 10.7505C45.8247 11.684 44.5713 12.3916 42.6449 12.3916C38.911 12.3916 36.4341 9.9133 36.4341 6.19774C36.4341 2.48218 39.0783 0.00390625 42.6449 0.00390625C45.397 0.00390625 47.7362 1.43753 48.5433 3.9936L46.442 4.79746C45.9102 3.23789 44.6866 2.06358 42.6449 2.06358C40.1234 2.06358 38.5986 3.84912 38.5986 6.19774C38.5986 8.54636 40.1271 10.3319 42.6449 10.3319C44.3073 10.3319 45.8544 9.59101 46.4941 7.94995H43.0205V5.89028H48.6995H48.7032Z" fill="white"/>
<path d="M17.613 0.15918H19.956L26.6615 8.91279V0.15918H28.7516V12.0653H26.5759L19.7143 3.04124V12.0653H17.613V0.15918Z" fill="white"/>
<path d="M0 0.15918H9.69553V2.25219H2.10126V4.86012H8.39759V6.88645H2.10126V9.96114H10.0191V12.069H0V0.162888V0.15918Z" fill="white"/>
</svg>
