<svg width="82" height="16" viewBox="0 0 82 16" fill="none" xmlns="http://www.w3.org/2000/svg">
<path d="M80.0049 8.06055L80.5437 8.58224L81.0488 8.06055L80.5437 7.53885L80.0049 8.06055ZM73.7663 0.538853L73.2446 2.51532e-05L72.1669 1.04341L72.6886 1.58224L73.2275 1.06055L73.7663 0.538853ZM73.2275 15.0605L73.7663 15.5822L80.5437 8.58224L80.0049 8.06055L79.4661 7.53885L72.6886 14.5389L73.2275 15.0605ZM80.0049 8.06055L80.5437 7.53885L73.7663 0.538853L73.2275 1.06055L72.6886 1.58224L79.4661 8.58224L80.0049 8.06055ZM0.00488281 7.45449L-0.000128789 8.20448L79.8932 8.73835L79.8982 7.98836L79.9033 7.23838L0.00989441 6.70451L0.00488281 7.45449Z" fill="#E80004"/>
</svg>
