<svg width="26" height="32" viewBox="0 0 26 32" fill="none" xmlns="http://www.w3.org/2000/svg">
<path d="M24.6691 1.09814L21.8834 5.71064C21.7652 5.90788 21.598 6.0712 21.3981 6.18478C21.1981 6.29836 20.9722 6.35832 20.7423 6.35886H5.02444C4.7945 6.35832 4.56861 6.29836 4.36868 6.18478C4.16875 6.0712 4.00157 5.90788 3.88337 5.71064L1.09766 1.09814" stroke="white" stroke-width="1.6" stroke-linecap="square" stroke-linejoin="round"/>
<path d="M6.26562 6.3584L7.67991 13.1513" stroke="white" stroke-width="1.6" stroke-linecap="round" stroke-linejoin="round"/>
<path d="M19.469 6.3584L18.0547 13.1513" stroke="white" stroke-width="1.6" stroke-linecap="round" stroke-linejoin="round"/>
<path d="M19.5314 13.1519H6.23493C5.93907 13.1519 5.69922 13.3917 5.69922 13.6876V15.059C5.69922 15.3549 5.93907 15.5947 6.23493 15.5947H19.5314C19.8272 15.5947 20.0671 15.3549 20.0671 15.059V13.6876C20.0671 13.3917 19.8272 13.1519 19.5314 13.1519Z" stroke="white" stroke-width="1.6" stroke-linecap="square" stroke-linejoin="round"/>
<path d="M9.71094 15.5996V21.6425L13.0002 25.1193L16.0538 21.6425V15.5996" stroke="white" stroke-width="1.6" stroke-linecap="square" stroke-linejoin="round"/>
<path d="M13 25.1196V28.2053" stroke="white" stroke-width="1.6" stroke-linecap="square" stroke-linejoin="round"/>
<path d="M1.09766 31.0981H24.6691" stroke="white" stroke-width="1.6" stroke-linecap="square" stroke-linejoin="round"/>
<path d="M9.71094 20.2979H16.0538" stroke="white" stroke-width="1.6" stroke-linecap="square" stroke-linejoin="round"/>
</svg>
