<!DOCTYPE svg PUBLIC "-//W3C//DTD SVG 1.1//EN" "http://www.w3.org/Graphics/SVG/1.1/DTD/svg11.dtd"><svg
   viewBox="0 0 800 800" xmlns="http://www.w3.org/2000/svg" xmlns:xlink="http://www.w3.org/1999/xlink"
   style="display: none;"><svg fill="none" viewBox="0 0 24 24" id="icon-arrow-diagonal"
      xmlns="http://www.w3.org/2000/svg">
      <path d="M2 22h20V2" stroke="currentColor" stroke-width="4" stroke-miterlimit="10" stroke-linecap="square" />
      <path d="m2 2 20 20" stroke="currentColor" stroke-width="4" stroke-miterlimit="10" />
   </svg><svg fill="none" viewBox="0 0 20 19" id="icon-arrow-left" xmlns="http://www.w3.org/2000/svg">
      <path d="M7.847 2.248 1.06 9.034l6.787 6.786" stroke="currentColor" stroke-width="1.5" stroke-miterlimit="10"
         stroke-linecap="square" />
      <path d="M19.163 9.069h-18" stroke="currentColor" stroke-width="1.5" stroke-miterlimit="10" />
   </svg><svg fill="none" viewBox="0 0 82 14" id="icon-arrow-long" xmlns="http://www.w3.org/2000/svg">
      <path d="m73.993.53 6.008 6.008-6.008 6.007m6.008-6.007c-31.216 0-48.776.013-80.001.013" stroke="currentColor"
         stroke-width="1.5" stroke-miterlimit="10" />
   </svg><svg fill="none" viewBox="0 0 20 19" id="icon-arrow-right" xmlns="http://www.w3.org/2000/svg">
      <path d="m11.32 15.857 6.787-6.786-6.787-6.787" stroke="currentColor" stroke-width="1.5" stroke-miterlimit="10"
         stroke-linecap="square" />
      <path d="M0 9.036h18" stroke="currentColor" stroke-width="1.5" stroke-miterlimit="10" />
   </svg><svg fill="none" viewBox="0 0 40 22" id="icon-burger" xmlns="http://www.w3.org/2000/svg">
      <path d="M0 1h40M0 11h40M0 21h40" stroke="currentColor" stroke-width="2" />
   </svg><svg fill="none" viewBox="0 0 11 6" id="icon-chevron" xmlns="http://www.w3.org/2000/svg">
      <path d="m.438.547 5 4 5-4" stroke="currentColor" stroke-width="1.4" />
   </svg><svg fill="none" viewBox="0 0 16 27" id="icon-chevron-right" xmlns="http://www.w3.org/2000/svg">
      <path d="m2.12 2.12 11.338 10.578L2.881 24.036" stroke="currentColor" stroke-width="3" stroke-miterlimit="10"
         stroke-linecap="square" />
   </svg><svg fill="none" viewBox="0 0 32 32" id="icon-close" xmlns="http://www.w3.org/2000/svg">
      <path d="m.707 30.707 30-30m0 30-30-30" stroke="currentColor" stroke-width="2" stroke-miterlimit="10" />
   </svg><svg fill="none" viewBox="0 0 23 23" id="icon-glass" xmlns="http://www.w3.org/2000/svg">
      <path d="m21 21-4.826-4.826m0 0a8.889 8.889 0 1 0-12.57-12.57 8.889 8.889 0 0 0 12.57 12.57Z"
         stroke="currentColor" stroke-width="2" stroke-linecap="square" stroke-linejoin="round" />
   </svg><svg fill="none" viewBox="0 0 8 20" id="icon-chevron-right" xmlns="http://www.w3.org/2000/svg">
      <path d="M0.707031 0.707108L5.70703 5.70711L0.707031 10.7071" stroke="currentColor" stroke-width="2"/>
   </svg><svg viewBox="0 0 93.06 93.06" xml:space="preserve" id="icon-linkedin" xmlns="http://www.w3.org/2000/svg">
      <path
         d="M11.185.08C5.004.08.001 5.092 0 11.259c0 6.173 5.003 11.184 11.186 11.184 6.166 0 11.176-5.011 11.176-11.184C22.362 5.091 17.351.08 11.185.08zM1.538 30.926h19.287V92.98H1.538zM69.925 29.383c-9.382 0-15.673 5.144-18.248 10.022h-.258v-8.479H32.92v62.053h19.27V62.281c0-8.093 1.541-15.932 11.575-15.932 9.89 0 10.022 9.256 10.022 16.451v30.178H93.06V58.942c0-16.707-3.605-29.559-23.135-29.559z" fill="currentColor" />
   </svg><svg fill="none" viewBox="0 0 10 11" id="icon-location" xmlns="http://www.w3.org/2000/svg">
      <path stroke="currentColor" stroke-width="2" stroke-linejoin="round" d="M4.641 4.643h.004v.004h-.004z" />
      <path d="m4.642 10.5 2.93-2.929a4.142 4.142 0 1 0-5.859 0l2.93 2.929Z" stroke="currentColor"
         stroke-linejoin="round" />
   </svg><svg fill="none" viewBox="0 0 9 7" id="icon-mail" xmlns="http://www.w3.org/2000/svg">
      <path
         d="M.944.929 3.66 2.905v.001c.302.213.453.32.618.36.146.037.3.037.446.001.165-.041.316-.148.618-.362 0 0 1.741-1.288 2.715-1.976M.5 5.129V1.872c0-.48 0-.72.097-.904A.873.873 0 0 1 .985.593C1.175.5 1.425.5 1.922.5h5.156c.498 0 .746 0 .936.093a.874.874 0 0 1 .39.375c.096.183.096.423.096.902v3.26c0 .48 0 .719-.097.902a.875.875 0 0 1-.389.375c-.19.093-.438.093-.935.093H1.921c-.497 0-.746 0-.936-.093a.874.874 0 0 1-.388-.375C.5 5.849.5 5.609.5 5.129Z"
         stroke="currentColor" stroke-linecap="round" stroke-linejoin="round" />
   </svg><svg fill="none" viewBox="0 0 17 13" id="icon-mail-fill" xmlns="http://www.w3.org/2000/svg">
      <path d="M14.5435 0H1.61594C0.727174 0 0.0080797 0.727174 0.0080797 1.61594L0 11.3116C0 12.2004 0.727174 12.9275 1.61594 12.9275H14.5435C15.4322 12.9275 16.1594 12.2004 16.1594 11.3116V1.61594C16.1594 0.727174 15.4322 0 14.5435 0ZM14.5435 3.23188L8.07971 7.27174L1.61594 3.23188V1.61594L8.07971 5.6558L14.5435 1.61594V3.23188Z" fill="currentColor"/>
   </svg><svg fill="none" viewBox="0 0 16 16" id="icon-max" xmlns="http://www.w3.org/2000/svg">
      <path
         d="M7.722.011C2.956.261-.19 4.012.01 8.741c.087 2.071.916 3.852 1.113 5.817.05.51-.096 1.137.489 1.36.72.273 1.823-.186 2.426-.605.206-.14.402-.303.553-.505.624.415 1.215.816 1.958.995 3.27.787 6.852-1.013 8.445-3.904C17.986 6.467 13.939-.314 7.723.01Zm-1.85 11.335c-.258.202-.508.477-.793.635-.414.223-.542-.009-.697-.376-.489-1.167-.548-3.154-.263-4.376.384-1.663 1.666-3.125 3.427-3.281 1.783-.158 3.437.75 4.184 2.389 1.654 3.647-2.58 7.25-5.858 5.011v-.002Z"
         fill="currentColor" />
   </svg><svg fill="none" viewBox="0 0 24 23" id="icon-pencil" xmlns="http://www.w3.org/2000/svg">
      <path
         d="m14.978 4.91 3.706 3.53M12.508 21.38h9.883m-21 0 1.235-4.706L18.684 1.381l3.706 3.53L6.332 20.203 1.39 21.381Z"
         stroke="currentColor" stroke-width="2" />
   </svg><svg fill="none" viewBox="0 0 15 2" id="icon-reperpeper" xmlns="http://www.w3.org/2000/svg">
      <path
         d="M7.5 2C4.548 2 1.814 1.587 0 .868L.63 0c3.402 1.35 10.338 1.35 13.74 0l.63.868C13.186 1.588 10.452 2 7.5 2Z"
         fill="currentColor" />
   </svg><svg fill="none" viewBox="0 0 8 8" id="icon-tel" xmlns="http://www.w3.org/2000/svg">
      <path
         d="M7.645 2.365a8.018 8.018 0 0 1-5.28 5.28C1.098 8.036 0 6.925 0 5.6c0-.331.27-.596.599-.635.428-.052.84-.157 1.228-.31l.76.76a6.024 6.024 0 0 0 2.828-2.828l-.76-.76c.153-.388.258-.8.31-1.228C5.004.269 5.269 0 5.6 0c1.325 0 2.436 1.098 2.045 2.365Z"
         fill="currentColor" />
   </svg><svg fill="none" viewBox="0 0 16 14" id="icon-telegram" xmlns="http://www.w3.org/2000/svg">
      <path fill-rule="evenodd" clip-rule="evenodd"
         d="M14.343.096a1.168 1.168 0 0 1 1.202.167c.168.135.297.314.374.518.077.204.1.425.065.64L14.18 12.64c-.175 1.082-1.335 1.702-2.303 1.163a46.261 46.261 0 0 1-3.097-1.87c-.541-.363-2.2-1.525-1.996-2.352.175-.707 2.962-3.363 4.554-4.943.625-.62.34-.978-.398-.407C9.106 5.647 6.164 7.802 5.19 8.409c-.858.534-1.305.626-1.84.534-.976-.166-1.882-.424-2.62-.737-.999-.424-.95-1.83-.001-2.24L14.343.096Z"
         fill="currentColor" />
   </svg>
</svg>