<svg width="50" height="50" viewBox="0 0 50 50" fill="none" xmlns="http://www.w3.org/2000/svg">
<circle cx="25" cy="25" r="25" fill="#E80004"/>
<path d="M32.8136 17.2146H23.1547C22.5122 17.2146 21.8951 17.4715 21.4402 17.9283L15.7478 23.6406C15.0002 24.3909 15.0002 25.6096 15.7478 26.3594L21.4402 32.0717C21.8957 32.5285 22.5122 32.7854 23.1547 32.7854H32.8136L37 37H23.1542C21.4033 37 19.724 36.3014 18.484 35.0571L12.7916 29.3448C10.4028 26.9475 10.4028 23.0525 12.7916 20.6552L18.484 14.9429C19.724 13.6986 21.4039 13 23.1542 13H37L32.8136 17.2146Z" fill="white"/>
<path d="M32.3974 26.9585H20.3942V22.8752H32.3974V26.9585Z" fill="white"/>
</svg>
