<svg width="28" height="30" viewBox="0 0 28 30" fill="none" xmlns="http://www.w3.org/2000/svg">
<path d="M14 0C11.1364 0 9.20739 1.10552 7.47727 2.02597C5.74716 2.94643 4.17614 3.74026 1.27273 3.74026H0V4.98701C0 14.6104 3.32102 20.8734 6.68182 24.6623C10.0426 28.4513 13.5227 29.8442 13.5227 29.8442L14 30L14.4773 29.8442C14.4773 29.8442 17.9574 28.4805 21.3182 24.7013C24.679 20.9221 28 14.6445 28 4.98701V3.74026H26.7273C23.8388 3.74026 22.2528 2.94643 20.5227 2.02597C18.7926 1.10552 16.8636 0 14 0ZM14 2.49351C16.2273 2.49351 17.505 3.25812 19.2898 4.20779C20.7962 5.01136 22.7947 5.78084 25.375 6.03896C25.1314 14.474 22.2827 19.836 19.4091 23.0649C16.804 25.9919 14.6165 26.9659 14 27.2338C13.3786 26.961 11.196 25.9627 8.59091 23.026C5.71733 19.7873 2.86861 14.4351 2.625 6.03896C5.2152 5.78084 7.20384 5.01136 8.71023 4.20779C10.495 3.25812 11.7727 2.49351 14 2.49351Z" fill="white"/>
</svg>
